<svg width="20" height="20" viewBox="0 0 20 20" fill="none" xmlns="http://www.w3.org/2000/svg">
<path d="M20 10C20 15.52 15.525 20 10 20C4.475 20 0 15.52 0 10C0 4.475 4.475 0 10 0C15.525 0 20 4.475 20 10Z" fill="#283544"/>
<path d="M14.6872 7.46967C14.6327 7.5015 13.3336 8.17331 13.3336 9.66286C13.3948 11.3616 14.9729 11.9573 15 11.9573C14.9729 11.9892 14.7618 12.7689 14.1362 13.5862C13.6397 14.2903 13.0887 15.0001 12.252 15.0001C11.4561 15.0001 11.1704 14.5309 10.252 14.5309C9.26574 14.5309 8.98667 15.0001 8.23157 15.0001C7.39483 15.0001 6.803 14.2522 6.27948 13.5548C5.59935 12.642 5.02127 11.2095 5.00086 9.83402C4.98711 9.10516 5.13706 8.3887 5.51772 7.78015C6.05499 6.93057 7.01418 6.35385 8.06165 6.33483C8.86423 6.30961 9.57851 6.8483 10.0683 6.8483C10.5377 6.8483 11.4153 6.33483 12.4082 6.33483C12.8367 6.33524 13.9796 6.45555 14.6872 7.46967ZM10.0004 6.18931C9.85757 5.5237 10.252 4.8581 10.6193 4.43351C11.0887 3.92005 11.8301 3.57153 12.4694 3.57153C12.5102 4.23714 12.2515 4.88993 11.7893 5.36536C11.3744 5.87883 10.6601 6.26538 10.0004 6.18931Z" fill="white"/>
</svg>
