<svg width="183" height="151" viewBox="0 0 183 151" fill="none" xmlns="http://www.w3.org/2000/svg">
<g opacity="0.2" clip-path="url(#clip0_8411_3003)">
<path fill-rule="evenodd" clip-rule="evenodd" d="M116.494 62.0793C91.7799 48.5648 63.5136 38.6382 35.4886 40.583C25.2915 41.2896 15.8524 44.2567 6.16174 47.2065C5.48193 47.4123 5.09447 48.1395 5.29841 48.829C5.50574 49.5184 6.22634 49.9094 6.90954 49.7002C16.4132 46.8086 25.6654 43.8759 35.6653 43.183C63.2926 41.2656 91.1409 51.1374 115.481 64.4872L115.308 64.8816C113.415 69.1589 114.587 75.4017 117.681 81.9531C122.113 91.3447 130.366 101.436 137.793 107.01C141.13 109.514 144.329 111.105 146.967 111.438C149.023 111.699 150.787 111.232 152.15 109.991C155.053 107.343 154.951 102.825 152.65 97.5874C147.84 86.6318 133.714 72.2048 126.052 67.5777C123.659 66.1336 121.226 64.7136 118.755 63.3313C119.067 62.5698 119.377 61.8255 119.71 61.1154C120.665 59.0951 121.838 57.3287 124.098 56.1178C127.623 54.2347 131.848 53.9089 136.171 54.3959C142.918 55.1608 149.903 57.9289 155.046 60.3059C183.686 73.546 197.87 96.5103 205.477 119.564C213.156 142.847 214.162 166.24 216.436 180.039C216.551 180.749 217.218 181.226 217.921 181.11C218.625 180.993 219.101 180.321 218.982 179.611C216.694 165.722 215.658 142.178 207.925 118.741C200.121 95.0731 185.522 71.5291 156.124 57.9357C150.767 55.4592 143.486 52.602 136.46 51.8062C131.596 51.2574 126.854 51.6964 122.888 53.8162C119.329 55.7199 117.915 58.6904 116.494 62.0793ZM117.752 65.7495L117.664 65.945C116.008 69.6838 117.307 75.1033 120.012 80.8315C124.271 89.856 132.194 99.5597 139.336 104.917C141.783 106.756 144.125 108.077 146.185 108.632C147.884 109.088 149.359 109.023 150.417 108.056C151.419 107.147 151.817 105.895 151.8 104.437C151.783 102.726 151.219 100.76 150.291 98.6438C145.668 88.117 132.089 74.2595 124.727 69.8141C122.439 68.4352 120.114 67.0769 117.752 65.7495Z" fill="#373536"/>
<path fill-rule="evenodd" clip-rule="evenodd" d="M2.8852 51.2393C2.99737 50.6802 3.37467 49.977 3.78936 49.2258C4.77507 47.4353 6.17887 45.5282 6.80429 44.602C7.20538 44.0052 7.04902 43.1957 6.46099 42.791C5.86956 42.3862 5.06738 42.5405 4.66629 43.1374C3.90151 44.2727 2.03546 46.8179 1.03275 48.9274C0.4957 50.0593 0.216989 51.1055 0.278172 51.8567C0.380143 53.1361 1.38285 53.9353 3.37128 53.8873C5.72341 53.829 10.0912 52.6388 13.7485 54.0691C14.4113 54.3298 15.1625 53.9936 15.4174 53.3248C15.6758 52.6525 15.3461 51.8978 14.6799 51.6371C11.1925 50.2754 7.12721 50.9305 4.39099 51.2049C3.87094 51.2564 3.2523 51.2496 2.8852 51.2393Z" fill="#373536"/>
</g>
<defs>
<clipPath id="clip0_8411_3003">
<rect width="184" height="151" fill="white" transform="translate(184 151) rotate(180)"/>
</clipPath>
</defs>
</svg>
