<svg width="136" height="93" viewBox="0 0 136 93" fill="none" xmlns="http://www.w3.org/2000/svg">
<path d="M23.3731 88H22.2931V79.36H23.3731L27.8791 86.11V79.36H28.9591V88H27.8791L23.3731 81.244V88ZM33.3969 88.18C32.7609 88.18 32.2069 88.036 31.7349 87.748C31.2669 87.456 30.9069 87.052 30.6549 86.536C30.4029 86.016 30.2769 85.422 30.2769 84.754C30.2769 84.082 30.4049 83.488 30.6609 82.972C30.9169 82.456 31.2809 82.056 31.7529 81.772C32.2249 81.484 32.7729 81.34 33.3969 81.34C34.0329 81.34 34.5869 81.484 35.0589 81.772C35.5309 82.06 35.8929 82.462 36.1449 82.978C36.3969 83.494 36.5229 84.086 36.5229 84.754C36.5229 85.43 36.3949 86.028 36.1389 86.548C35.8869 87.064 35.5249 87.466 35.0529 87.754C34.5809 88.038 34.0289 88.18 33.3969 88.18ZM33.3969 87.166C34.0489 87.166 34.5429 86.95 34.8789 86.518C35.2189 86.082 35.3889 85.494 35.3889 84.754C35.3889 84.006 35.2189 83.42 34.8789 82.996C34.5389 82.568 34.0449 82.354 33.3969 82.354C32.7409 82.354 32.2449 82.57 31.9089 83.002C31.5769 83.434 31.4109 84.018 31.4109 84.754C31.4109 85.502 31.5809 86.092 31.9209 86.524C32.2649 86.952 32.7569 87.166 33.3969 87.166ZM42.6943 88.174C42.1823 88.174 41.7283 88.098 41.3323 87.946C40.9363 87.794 40.6143 87.574 40.3663 87.286C40.1183 86.998 39.9583 86.652 39.8863 86.248L40.9783 86.074C41.0663 86.43 41.2683 86.71 41.5843 86.914C41.9003 87.118 42.2923 87.22 42.7603 87.22C43.2003 87.22 43.5463 87.13 43.7983 86.95C44.0543 86.766 44.1823 86.514 44.1823 86.194C44.1823 86.002 44.1383 85.852 44.0503 85.744C43.9663 85.636 43.8003 85.534 43.5523 85.438C43.3043 85.338 42.9043 85.214 42.3523 85.066C41.7723 84.91 41.3203 84.752 40.9963 84.592C40.6723 84.428 40.4403 84.24 40.3003 84.028C40.1603 83.816 40.0903 83.552 40.0903 83.236C40.0903 82.86 40.1943 82.53 40.4023 82.246C40.6103 81.958 40.9023 81.736 41.2783 81.58C41.6543 81.42 42.0883 81.34 42.5803 81.34C43.0683 81.34 43.5063 81.42 43.8943 81.58C44.2863 81.736 44.6003 81.958 44.8363 82.246C45.0763 82.53 45.2183 82.86 45.2623 83.236L44.1703 83.434C44.1183 83.082 43.9423 82.804 43.6423 82.6C43.3463 82.396 42.9663 82.294 42.5023 82.294C42.2383 82.294 42.0043 82.332 41.8003 82.408C41.6003 82.48 41.4443 82.584 41.3323 82.72C41.2203 82.852 41.1643 83.006 41.1643 83.182C41.1643 83.346 41.2123 83.482 41.3083 83.59C41.4083 83.698 41.5883 83.802 41.8483 83.902C42.1083 83.998 42.4983 84.112 43.0183 84.244C43.5983 84.392 44.0503 84.55 44.3743 84.718C44.6983 84.886 44.9303 85.084 45.0703 85.312C45.2143 85.54 45.2863 85.824 45.2863 86.164C45.2863 86.58 45.1823 86.94 44.9743 87.244C44.7663 87.544 44.4683 87.774 44.0803 87.934C43.6923 88.094 43.2303 88.174 42.6943 88.174ZM48.2715 82.402V85.504V85.852C48.2715 86.056 48.2795 86.22 48.2955 86.344C48.3115 86.468 48.3475 86.576 48.4035 86.668C48.4995 86.84 48.6355 86.964 48.8115 87.04C48.9915 87.116 49.2115 87.154 49.4715 87.154C49.6595 87.154 49.9115 87.13 50.2275 87.082V88C49.8955 88.068 49.5755 88.102 49.2675 88.102C48.8395 88.102 48.4635 88.032 48.1395 87.892C47.8195 87.748 47.5815 87.524 47.4255 87.22C47.3335 87.04 47.2735 86.856 47.2455 86.668C47.2175 86.48 47.2035 86.246 47.2035 85.966V85.552V82.402H45.8895V81.52H47.2035V79.72H48.2715V81.52H50.2275V82.402H48.2715ZM53.0491 81.916C53.2291 81.772 53.4411 81.662 53.6851 81.586C53.9291 81.51 54.1751 81.472 54.4231 81.472C54.5791 81.472 54.7331 81.488 54.8851 81.52V82.522C54.7171 82.482 54.5551 82.462 54.3991 82.462C54.0111 82.462 53.6791 82.564 53.4031 82.768C53.1111 82.976 52.9071 83.25 52.7911 83.59C52.6751 83.926 52.6171 84.312 52.6171 84.748V88H51.5431V81.52H52.4971V82.546C52.6491 82.282 52.8331 82.072 53.0491 81.916ZM57.2077 80.374H56.1397V79.27H57.2077V80.374ZM57.2077 88H56.1397V81.52H57.2077V88ZM62.122 81.352C62.77 81.352 63.286 81.512 63.67 81.832C64.054 82.152 64.322 82.544 64.474 83.008C64.626 83.468 64.702 83.938 64.702 84.418V88H63.622V84.754C63.622 84.058 63.486 83.486 63.214 83.038C62.946 82.59 62.496 82.366 61.864 82.366C61.312 82.366 60.876 82.554 60.556 82.93C60.24 83.302 60.082 83.854 60.082 84.586V88H59.002V81.52H59.962V82.354C60.206 82.03 60.51 81.782 60.874 81.61C61.242 81.438 61.658 81.352 62.122 81.352ZM70.8339 81.52H71.7819V88.042C71.7819 88.43 71.7559 88.762 71.7039 89.038C71.5799 89.714 71.2759 90.22 70.7919 90.556C70.3079 90.892 69.6719 91.06 68.8839 91.06C68.3519 91.06 67.8559 90.938 67.3959 90.694C66.9399 90.454 66.5819 90.102 66.3219 89.638L67.2999 89.122C67.4519 89.426 67.6699 89.652 67.9539 89.8C68.2419 89.952 68.5539 90.028 68.8899 90.028C70.1139 90.028 70.7199 89.362 70.7079 88.03V87.406C70.4719 87.654 70.1939 87.846 69.8739 87.982C69.5539 88.114 69.1979 88.18 68.8059 88.18C68.2139 88.18 67.6979 88.032 67.2579 87.736C66.8219 87.436 66.4859 87.028 66.2499 86.512C66.0179 85.992 65.9019 85.406 65.9019 84.754C65.9019 84.106 66.0179 83.524 66.2499 83.008C66.4859 82.488 66.8219 82.08 67.2579 81.784C67.6979 81.488 68.2119 81.34 68.7999 81.34C69.2319 81.34 69.6179 81.418 69.9579 81.574C70.2979 81.73 70.5899 81.954 70.8339 82.246V81.52ZM68.9379 87.202C69.5659 87.202 70.0379 86.98 70.3539 86.536C70.6739 86.092 70.8339 85.498 70.8339 84.754C70.8339 84.01 70.6759 83.418 70.3599 82.978C70.0439 82.538 69.5799 82.318 68.9679 82.318C68.5439 82.318 68.1859 82.424 67.8939 82.636C67.6059 82.848 67.3899 83.138 67.2459 83.506C67.1059 83.87 67.0359 84.286 67.0359 84.754C67.0359 85.226 67.1059 85.646 67.2459 86.014C67.3899 86.382 67.6039 86.672 67.8879 86.884C68.1759 87.096 68.5259 87.202 68.9379 87.202ZM75.9052 88.174C75.3932 88.174 74.9392 88.098 74.5432 87.946C74.1472 87.794 73.8252 87.574 73.5772 87.286C73.3292 86.998 73.1692 86.652 73.0972 86.248L74.1892 86.074C74.2772 86.43 74.4792 86.71 74.7952 86.914C75.1112 87.118 75.5032 87.22 75.9712 87.22C76.4112 87.22 76.7572 87.13 77.0092 86.95C77.2652 86.766 77.3932 86.514 77.3932 86.194C77.3932 86.002 77.3492 85.852 77.2612 85.744C77.1772 85.636 77.0112 85.534 76.7632 85.438C76.5152 85.338 76.1152 85.214 75.5632 85.066C74.9832 84.91 74.5312 84.752 74.2072 84.592C73.8832 84.428 73.6512 84.24 73.5112 84.028C73.3712 83.816 73.3012 83.552 73.3012 83.236C73.3012 82.86 73.4052 82.53 73.6132 82.246C73.8212 81.958 74.1132 81.736 74.4892 81.58C74.8652 81.42 75.2992 81.34 75.7912 81.34C76.2792 81.34 76.7172 81.42 77.1052 81.58C77.4972 81.736 77.8112 81.958 78.0472 82.246C78.2872 82.53 78.4292 82.86 78.4732 83.236L77.3812 83.434C77.3292 83.082 77.1532 82.804 76.8532 82.6C76.5572 82.396 76.1772 82.294 75.7132 82.294C75.4492 82.294 75.2152 82.332 75.0112 82.408C74.8112 82.48 74.6552 82.584 74.5432 82.72C74.4312 82.852 74.3752 83.006 74.3752 83.182C74.3752 83.346 74.4232 83.482 74.5192 83.59C74.6192 83.698 74.7992 83.802 75.0592 83.902C75.3192 83.998 75.7092 84.112 76.2292 84.244C76.8092 84.392 77.2612 84.55 77.5852 84.718C77.9092 84.886 78.1412 85.084 78.2812 85.312C78.4252 85.54 78.4972 85.824 78.4972 86.164C78.4972 86.58 78.3932 86.94 78.1852 87.244C77.9772 87.544 77.6792 87.774 77.2912 87.934C76.9032 88.094 76.4412 88.174 75.9052 88.174ZM87.2028 82.606C87.2868 82.79 87.3428 82.994 87.3708 83.218C87.3988 83.438 87.4128 83.696 87.4128 83.992V88H86.4648V86.992C85.9488 87.784 85.1488 88.18 84.0648 88.18C83.5968 88.18 83.1968 88.094 82.8648 87.922C82.5328 87.746 82.2828 87.512 82.1148 87.22C81.9468 86.928 81.8628 86.604 81.8628 86.248C81.8628 85.292 82.3928 84.658 83.4528 84.346C83.7648 84.262 84.1228 84.188 84.5268 84.124C84.9308 84.06 85.4148 83.99 85.9788 83.914L86.3628 83.86C86.3468 83.336 86.2148 82.952 85.9668 82.708C85.7188 82.46 85.3188 82.336 84.7668 82.336C84.3588 82.336 84.0088 82.43 83.7168 82.618C83.4288 82.802 83.2288 83.086 83.1168 83.47L82.1028 83.164C82.2588 82.584 82.5628 82.136 83.0148 81.82C83.4708 81.5 84.0588 81.34 84.7788 81.34C85.3748 81.34 85.8808 81.448 86.2968 81.664C86.7168 81.876 87.0188 82.19 87.2028 82.606ZM84.2268 87.286C84.5988 87.286 84.9268 87.22 85.2108 87.088C85.4948 86.952 85.7248 86.772 85.9008 86.548C86.0768 86.32 86.1908 86.068 86.2428 85.792C86.2828 85.656 86.3088 85.504 86.3208 85.336C86.3368 85.168 86.3468 84.98 86.3508 84.772L86.0568 84.808C85.4928 84.884 85.0588 84.946 84.7548 84.994C84.4548 85.042 84.1808 85.102 83.9328 85.174C83.6248 85.27 83.3788 85.402 83.1948 85.57C83.0148 85.738 82.9248 85.962 82.9248 86.242C82.9248 86.43 82.9708 86.604 83.0628 86.764C83.1548 86.92 83.2988 87.046 83.4948 87.142C83.6908 87.238 83.9348 87.286 84.2268 87.286ZM94.8528 82.402V85.504V85.852C94.8528 86.056 94.8608 86.22 94.8768 86.344C94.8928 86.468 94.9288 86.576 94.9848 86.668C95.0808 86.84 95.2168 86.964 95.3928 87.04C95.5728 87.116 95.7928 87.154 96.0528 87.154C96.2408 87.154 96.4928 87.13 96.8088 87.082V88C96.4768 88.068 96.1568 88.102 95.8488 88.102C95.4208 88.102 95.0448 88.032 94.7208 87.892C94.4008 87.748 94.1628 87.524 94.0068 87.22C93.9148 87.04 93.8548 86.856 93.8268 86.668C93.7988 86.48 93.7848 86.246 93.7848 85.966V85.552V82.402H90.6348V85.504V85.852C90.6348 86.056 90.6428 86.22 90.6588 86.344C90.6748 86.468 90.7108 86.576 90.7668 86.668C90.8628 86.84 90.9988 86.964 91.1748 87.04C91.3548 87.116 91.5748 87.154 91.8348 87.154C92.0228 87.154 92.2748 87.13 92.5908 87.082V88C92.2588 88.068 91.9388 88.102 91.6308 88.102C91.2028 88.102 90.8268 88.032 90.5028 87.892C90.1828 87.748 89.9448 87.524 89.7888 87.22C89.6968 87.04 89.6368 86.856 89.6088 86.668C89.5808 86.48 89.5668 86.246 89.5668 85.966V85.552V82.402H88.2528V81.52H89.5668V79.72H90.6348V81.52H93.7848V79.72H94.8528V81.52H96.8088V82.402H94.8528ZM103.105 82.606C103.189 82.79 103.245 82.994 103.273 83.218C103.301 83.438 103.315 83.696 103.315 83.992V88H102.367V86.992C101.851 87.784 101.051 88.18 99.9672 88.18C99.4992 88.18 99.0992 88.094 98.7672 87.922C98.4352 87.746 98.1852 87.512 98.0172 87.22C97.8492 86.928 97.7652 86.604 97.7652 86.248C97.7652 85.292 98.2952 84.658 99.3552 84.346C99.6672 84.262 100.025 84.188 100.429 84.124C100.833 84.06 101.317 83.99 101.881 83.914L102.265 83.86C102.249 83.336 102.117 82.952 101.869 82.708C101.621 82.46 101.221 82.336 100.669 82.336C100.261 82.336 99.9112 82.43 99.6192 82.618C99.3312 82.802 99.1312 83.086 99.0192 83.47L98.0052 83.164C98.1612 82.584 98.4652 82.136 98.9172 81.82C99.3732 81.5 99.9612 81.34 100.681 81.34C101.277 81.34 101.783 81.448 102.199 81.664C102.619 81.876 102.921 82.19 103.105 82.606ZM100.129 87.286C100.501 87.286 100.829 87.22 101.113 87.088C101.397 86.952 101.627 86.772 101.803 86.548C101.979 86.32 102.093 86.068 102.145 85.792C102.185 85.656 102.211 85.504 102.223 85.336C102.239 85.168 102.249 84.98 102.253 84.772L101.959 84.808C101.395 84.884 100.961 84.946 100.657 84.994C100.357 85.042 100.083 85.102 99.8352 85.174C99.5272 85.27 99.2812 85.402 99.0972 85.57C98.9172 85.738 98.8272 85.962 98.8272 86.242C98.8272 86.43 98.8732 86.604 98.9652 86.764C99.0572 86.92 99.2012 87.046 99.3972 87.142C99.5932 87.238 99.8372 87.286 100.129 87.286ZM107.605 88.18C106.961 88.18 106.407 88.036 105.943 87.748C105.483 87.456 105.131 87.052 104.887 86.536C104.647 86.02 104.523 85.428 104.515 84.76C104.523 84.084 104.649 83.488 104.893 82.972C105.141 82.456 105.497 82.056 105.961 81.772C106.425 81.484 106.977 81.34 107.617 81.34C108.069 81.34 108.483 81.416 108.859 81.568C109.235 81.72 109.553 81.938 109.813 82.222C110.077 82.506 110.265 82.84 110.377 83.224L109.321 83.542C109.185 83.17 108.963 82.88 108.655 82.672C108.351 82.46 108.001 82.354 107.605 82.354C106.961 82.354 106.475 82.572 106.147 83.008C105.823 83.444 105.657 84.028 105.649 84.76C105.657 85.504 105.827 86.092 106.159 86.524C106.495 86.952 106.977 87.166 107.605 87.166C108.433 87.166 108.997 86.788 109.297 86.032L110.377 86.314C110.149 86.918 109.797 87.38 109.321 87.7C108.845 88.02 108.273 88.18 107.605 88.18ZM114.716 81.352C115.364 81.352 115.88 81.512 116.264 81.832C116.648 82.152 116.916 82.544 117.068 83.008C117.22 83.468 117.296 83.938 117.296 84.418V88H116.216V84.754C116.216 84.058 116.08 83.486 115.808 83.038C115.54 82.59 115.09 82.366 114.458 82.366C113.906 82.366 113.47 82.554 113.15 82.93C112.834 83.302 112.676 83.854 112.676 84.586V88H111.596V79.36H112.556V82.354C112.8 82.03 113.104 81.782 113.468 81.61C113.836 81.438 114.252 81.352 114.716 81.352ZM119.642 85.06C119.686 85.736 119.876 86.256 120.212 86.62C120.552 86.984 121.02 87.166 121.616 87.166C122.04 87.166 122.41 87.068 122.726 86.872C123.046 86.676 123.296 86.394 123.476 86.026L124.502 86.38C124.25 86.948 123.872 87.39 123.368 87.706C122.864 88.022 122.296 88.18 121.664 88.18C121.032 88.18 120.476 88.04 119.996 87.76C119.52 87.48 119.15 87.084 118.886 86.572C118.626 86.06 118.496 85.47 118.496 84.802C118.496 84.102 118.624 83.492 118.88 82.972C119.14 82.448 119.504 82.046 119.972 81.766C120.444 81.482 120.992 81.34 121.616 81.34C122.236 81.34 122.77 81.48 123.218 81.76C123.67 82.036 124.016 82.434 124.256 82.954C124.496 83.47 124.616 84.084 124.616 84.796C124.616 84.912 124.614 85 124.61 85.06H119.642ZM121.652 82.3C121.072 82.3 120.614 82.462 120.278 82.786C119.942 83.11 119.736 83.582 119.66 84.202H123.5C123.368 82.934 122.752 82.3 121.652 82.3ZM130.397 79.36H131.471V88H130.517V87.268C130.273 87.56 129.981 87.786 129.641 87.946C129.301 88.102 128.917 88.18 128.489 88.18C127.897 88.18 127.381 88.032 126.941 87.736C126.505 87.436 126.169 87.028 125.933 86.512C125.701 85.992 125.585 85.406 125.585 84.754C125.585 84.106 125.701 83.524 125.933 83.008C126.169 82.488 126.505 82.08 126.941 81.784C127.381 81.488 127.895 81.34 128.483 81.34C128.879 81.34 129.237 81.406 129.557 81.538C129.881 81.67 130.161 81.86 130.397 82.108V79.36ZM128.621 87.202C129.249 87.202 129.721 86.98 130.037 86.536C130.357 86.092 130.517 85.498 130.517 84.754C130.517 84.01 130.359 83.418 130.043 82.978C129.727 82.538 129.263 82.318 128.651 82.318C128.227 82.318 127.869 82.424 127.577 82.636C127.289 82.848 127.073 83.138 126.929 83.506C126.789 83.87 126.719 84.286 126.719 84.754C126.719 85.226 126.789 85.646 126.929 86.014C127.073 86.382 127.287 86.672 127.571 86.884C127.859 87.096 128.209 87.202 128.621 87.202ZM134.521 88H133.345V86.824H134.521V88Z" fill="#373536"/>
<g clip-path="url(#clip0_8411_2831)">
<path fill-rule="evenodd" clip-rule="evenodd" d="M42.023 22.1912C33.1078 17.3603 22.9113 13.8118 12.8018 14.5071C9.1234 14.7596 5.71843 15.8203 2.22272 16.8747C1.97749 16.9483 1.83772 17.2082 1.91129 17.4547C1.98609 17.7012 2.24602 17.8409 2.49248 17.7661C5.92075 16.7325 9.25828 15.6842 12.8656 15.4365C22.8316 14.7511 32.8773 18.2799 41.6576 23.052L41.5951 23.193C40.9122 24.722 41.3352 26.9535 42.451 29.2955C44.0498 32.6526 47.0269 36.2599 49.706 38.2524C50.9101 39.1475 52.0638 39.7164 53.0153 39.8353C53.7571 39.9285 54.3935 39.7617 54.8852 39.3179C55.9323 38.3713 55.8955 36.7565 55.0654 34.8842C53.3304 30.9679 48.2346 25.8108 45.4709 24.1567C44.6077 23.6405 43.7298 23.1329 42.8384 22.6388C42.9512 22.3666 43.0628 22.1005 43.183 21.8467C43.5275 21.1245 43.9505 20.4931 44.7659 20.0602C46.0374 19.3871 47.5615 19.2706 49.1211 19.4447C51.555 19.7181 54.0747 20.7076 55.9298 21.5573C66.2612 26.2902 71.3779 34.4992 74.122 42.74C76.8918 51.063 77.2548 59.4253 78.0751 64.358C78.1167 64.6118 78.3571 64.7822 78.6109 64.7406C78.8647 64.6989 79.0363 64.4585 78.9934 64.2047C78.1682 59.2401 77.7943 50.8239 75.0048 42.4457C72.1896 33.9854 66.9234 25.5692 56.3185 20.7101C54.3861 19.8248 51.7598 18.8034 49.2253 18.519C47.4708 18.3228 45.7603 18.4797 44.3294 19.2375C43.0456 19.918 42.5356 20.9798 42.023 22.1912ZM42.4767 23.5032L42.4448 23.5731C41.8477 24.9096 42.3161 26.8469 43.2921 28.8945C44.8284 32.1205 47.6865 35.5892 50.2627 37.5044C51.1455 38.1616 51.9903 38.6337 52.7333 38.8323C53.3464 38.9954 53.8785 38.9721 54.2599 38.6263C54.6216 38.3014 54.765 37.8539 54.7589 37.3328C54.7528 36.7209 54.5492 36.0184 54.2145 35.2618C52.5469 31.4988 47.6485 26.5452 44.9927 24.9562C44.1675 24.4633 43.3289 23.9777 42.4767 23.5032Z" fill="#373536"/>
<path fill-rule="evenodd" clip-rule="evenodd" d="M1.04076 18.3162C1.08123 18.1164 1.21733 17.865 1.36692 17.5965C1.7225 16.9564 2.22889 16.2747 2.4545 15.9436C2.59918 15.7303 2.54278 15.4409 2.33066 15.2962C2.11731 15.1516 1.82794 15.2067 1.68326 15.4201C1.40738 15.8259 0.734237 16.7357 0.372527 17.4898C0.178798 17.8944 0.0782588 18.2684 0.100329 18.5369C0.137114 18.9943 0.49882 19.28 1.21611 19.2628C2.06459 19.242 3.64018 18.8165 4.9595 19.3278C5.1986 19.421 5.46956 19.3008 5.56152 19.0617C5.65471 18.8214 5.53578 18.5516 5.29546 18.4584C4.03745 17.9717 2.57099 18.2059 1.58395 18.304C1.39635 18.3223 1.17319 18.3199 1.04076 18.3162Z" fill="#373536"/>
</g>
<defs>
<clipPath id="clip0_8411_2831">
<rect width="79" height="79" fill="white" transform="translate(79 79) rotate(180)"/>
</clipPath>
</defs>
</svg>
