<svg width="14" height="14" viewBox="0 0 14 14" fill="none" xmlns="http://www.w3.org/2000/svg">
<path d="M4.6665 1.16675V2.91675" stroke="#918D91" stroke-miterlimit="10" stroke-linecap="round" stroke-linejoin="round"/>
<path d="M9.3335 1.16675V2.91675" stroke="#918D91" stroke-miterlimit="10" stroke-linecap="round" stroke-linejoin="round"/>
<path d="M2.0415 5.30249H11.9582" stroke="#918D91" stroke-miterlimit="10" stroke-linecap="round" stroke-linejoin="round"/>
<path d="M10.4998 13.4167C11.7885 13.4167 12.8332 12.372 12.8332 11.0833C12.8332 9.79467 11.7885 8.75 10.4998 8.75C9.21117 8.75 8.1665 9.79467 8.1665 11.0833C8.1665 12.372 9.21117 13.4167 10.4998 13.4167Z" stroke="#918D91" stroke-miterlimit="10" stroke-linecap="round" stroke-linejoin="round"/>
<path d="M11.1244 11.7308L9.8877 10.5" stroke="#918D91" stroke-miterlimit="10" stroke-linecap="round" stroke-linejoin="round"/>
<path d="M11.1126 10.5117L9.87598 11.7484" stroke="#918D91" stroke-miterlimit="10" stroke-linecap="round" stroke-linejoin="round"/>
<path d="M12.25 4.95841V9.54341C11.8242 9.05924 11.2 8.75008 10.5 8.75008C9.21083 8.75008 8.16667 9.79425 8.16667 11.0834C8.16667 11.5209 8.28917 11.9351 8.505 12.2851C8.6275 12.4951 8.785 12.6817 8.96583 12.8334H4.66667C2.625 12.8334 1.75 11.6667 1.75 9.91675V4.95841C1.75 3.20841 2.625 2.04175 4.66667 2.04175H9.33333C11.375 2.04175 12.25 3.20841 12.25 4.95841Z" stroke="#918D91" stroke-miterlimit="10" stroke-linecap="round" stroke-linejoin="round"/>
<path d="M6.99745 7.99162H7.00269" stroke="#918D91" stroke-linecap="round" stroke-linejoin="round"/>
<path d="M4.83827 7.99162H4.84351" stroke="#918D91" stroke-linecap="round" stroke-linejoin="round"/>
<path d="M4.83827 9.74162H4.84351" stroke="#918D91" stroke-linecap="round" stroke-linejoin="round"/>
</svg>
