<svg width="17" height="18" viewBox="0 0 17 18" fill="none" xmlns="http://www.w3.org/2000/svg">
<path d="M5.66602 1.41663V3.54163" stroke="#EC601D" stroke-width="1.5" stroke-miterlimit="10" stroke-linecap="round" stroke-linejoin="round"/>
<path d="M11.334 1.41663V3.54163" stroke="#EC601D" stroke-width="1.5" stroke-miterlimit="10" stroke-linecap="round" stroke-linejoin="round"/>
<path d="M2.47852 6.43872H14.5202" stroke="#EC601D" stroke-width="1.5" stroke-miterlimit="10" stroke-linecap="round" stroke-linejoin="round"/>
<path d="M12.7493 16.2917C14.3142 16.2917 15.5827 15.0231 15.5827 13.4583C15.5827 11.8935 14.3142 10.625 12.7493 10.625C11.1845 10.625 9.91602 11.8935 9.91602 13.4583C9.91602 15.0231 11.1845 16.2917 12.7493 16.2917Z" stroke="#EC601D" stroke-width="1.5" stroke-miterlimit="10" stroke-linecap="round" stroke-linejoin="round"/>
<path d="M13.8062 13.4938H11.6953" stroke="#EC601D" stroke-width="1.5" stroke-miterlimit="10" stroke-linecap="round" stroke-linejoin="round"/>
<path d="M12.75 12.4596V14.5775" stroke="#EC601D" stroke-width="1.5" stroke-miterlimit="10" stroke-linecap="round" stroke-linejoin="round"/>
<path d="M14.875 6.02079V11.5883C14.3579 11.0004 13.6 10.625 12.75 10.625C11.1846 10.625 9.91667 11.8929 9.91667 13.4583C9.91667 13.9895 10.0654 14.4925 10.3275 14.9175C10.4763 15.1725 10.6675 15.3991 10.8871 15.5833H5.66667C3.1875 15.5833 2.125 14.1666 2.125 12.0416V6.02079C2.125 3.89579 3.1875 2.47913 5.66667 2.47913H11.3333C13.8125 2.47913 14.875 3.89579 14.875 6.02079Z" stroke="#EC601D" stroke-width="1.5" stroke-miterlimit="10" stroke-linecap="round" stroke-linejoin="round"/>
<path d="M8.49676 9.70414H8.50312" stroke="#EC601D" stroke-width="2" stroke-linecap="round" stroke-linejoin="round"/>
<path d="M5.87567 9.70414H5.88203" stroke="#EC601D" stroke-width="2" stroke-linecap="round" stroke-linejoin="round"/>
<path d="M5.87567 11.8291H5.88203" stroke="#EC601D" stroke-width="2" stroke-linecap="round" stroke-linejoin="round"/>
</svg>
