<svg width="46" height="46" viewBox="0 0 46 46" fill="none" xmlns="http://www.w3.org/2000/svg">
<rect opacity="0.05" width="46" height="46" rx="23" fill="#373536"/>
<path d="M13 13H14.74C15.82 13 16.67 13.93 16.58 15L15.75 24.96C15.61 26.59 16.9 27.99 18.54 27.99H29.19C30.63 27.99 31.89 26.81 32 25.38L32.54 17.88C32.66 16.22 31.4 14.87 29.73 14.87H16.82" stroke="#373536" stroke-width="1.5" stroke-miterlimit="10" stroke-linecap="round" stroke-linejoin="round"/>
<path d="M27.25 33C27.9404 33 28.5 32.4404 28.5 31.75C28.5 31.0596 27.9404 30.5 27.25 30.5C26.5596 30.5 26 31.0596 26 31.75C26 32.4404 26.5596 33 27.25 33Z" stroke="#373536" stroke-width="1.5" stroke-miterlimit="10" stroke-linecap="round" stroke-linejoin="round"/>
<path d="M19.25 33C19.9404 33 20.5 32.4404 20.5 31.75C20.5 31.0596 19.9404 30.5 19.25 30.5C18.5596 30.5 18 31.0596 18 31.75C18 32.4404 18.5596 33 19.25 33Z" stroke="#373536" stroke-width="1.5" stroke-miterlimit="10" stroke-linecap="round" stroke-linejoin="round"/>
<path d="M20 19H32" stroke="#373536" stroke-width="1.5" stroke-miterlimit="10" stroke-linecap="round" stroke-linejoin="round"/>
</svg>
