<svg width="33" height="32" viewBox="0 0 33 32" fill="none" xmlns="http://www.w3.org/2000/svg">
<rect width="32.3242" height="32" rx="16" fill="#FFF3EE"/>
<path d="M22.9286 11.3874L22.9287 11.3874C22.9587 11.3544 22.9568 11.305 22.9211 11.2741L23.4122 10.7072L22.9211 11.2741C22.8818 11.24 22.8205 11.2446 22.7872 11.2812L22.7871 11.2812L15.1745 19.637L15.1745 19.637C14.5862 20.2826 13.5849 20.3337 12.9333 19.7534L22.9286 11.3874ZM22.9286 11.3874L14.0783 21.1122C14.0783 21.1122 14.0783 21.1122 14.0783 21.1123C14.0438 21.1501 13.9805 21.1534 13.9419 21.1174C13.9419 21.1174 13.9419 21.1174 13.9419 21.1174L8.82051 16.3444C8.82051 16.3444 8.8205 16.3444 8.8205 16.3444C8.79427 16.3199 8.78556 16.2701 8.81656 16.2317L8.81656 16.2317C8.83291 16.2115 8.85807 16.1971 8.8898 16.1944C8.92087 16.1916 8.94384 16.201 8.95975 16.2152C8.95976 16.2152 8.95976 16.2152 8.95977 16.2152L12.9333 19.7534L22.9286 11.3874Z" fill="#EC601D" stroke="#EC601D" stroke-width="1.5"/>
</svg>
