<svg width="24" height="24" viewBox="0 0 24 24" fill="none" xmlns="http://www.w3.org/2000/svg">
<rect width="24" height="24" rx="12" fill="#FFF3EE"/>
<mask id="path-2-inside-1_8751_12468" fill="white">
<path fill-rule="evenodd" clip-rule="evenodd" d="M17.383 8.03053C17.6455 8.26017 17.6693 8.66022 17.4358 8.9193L10.8646 16.2129C10.63 16.4734 10.2271 16.4899 9.97187 16.2497L6.16935 12.6699C5.93221 12.4467 5.90951 12.0747 6.11297 11.8204C6.33747 11.5397 6.75554 11.5011 7.02272 11.7414L9.97297 14.3951C10.2294 14.6257 10.6241 14.6051 10.8551 14.349L16.5073 8.08223C16.736 7.82863 17.126 7.80564 17.383 8.03053V8.03053Z"/>
</mask>
<path fill-rule="evenodd" clip-rule="evenodd" d="M17.383 8.03053C17.6455 8.26017 17.6693 8.66022 17.4358 8.9193L10.8646 16.2129C10.63 16.4734 10.2271 16.4899 9.97187 16.2497L6.16935 12.6699C5.93221 12.4467 5.90951 12.0747 6.11297 11.8204C6.33747 11.5397 6.75554 11.5011 7.02272 11.7414L9.97297 14.3951C10.2294 14.6257 10.6241 14.6051 10.8551 14.349L16.5073 8.08223C16.736 7.82863 17.126 7.80564 17.383 8.03053V8.03053Z" fill="#EC601D"/>
<path d="M17.4358 8.9193L16.3215 7.91523L16.3214 7.91527L17.4358 8.9193ZM10.8646 16.2129L11.979 17.217L11.9791 17.2169L10.8646 16.2129ZM9.97187 16.2497L8.94369 17.3418L8.94375 17.3419L9.97187 16.2497ZM6.16935 12.6699L5.14116 13.7621L5.14117 13.7621L6.16935 12.6699ZM6.11297 11.8204L7.28426 12.7574L7.28427 12.7574L6.11297 11.8204ZM7.02272 11.7414L8.02585 10.6262L8.02582 10.6262L7.02272 11.7414ZM9.97297 14.3951L10.9761 13.2799L10.9761 13.2799L9.97297 14.3951ZM10.8551 14.349L11.9689 15.3538L11.969 15.3537L10.8551 14.349ZM16.5073 8.08223L17.6211 9.08686L17.6212 9.08676L16.5073 8.08223ZM16.3952 9.15938C16.028 8.83805 15.9945 8.27813 16.3215 7.91523L18.5502 9.92338C19.3441 9.04231 19.2629 7.68228 18.3708 6.90167L16.3952 9.15938ZM16.3214 7.91527L9.75023 15.2089L11.9791 17.2169L18.5502 9.92334L16.3214 7.91527ZM9.75025 15.2089C10.0787 14.8443 10.6427 14.8211 11 15.1574L8.94375 17.3419C9.81151 18.1587 11.1813 18.1024 11.979 17.217L9.75025 15.2089ZM11.0001 15.1575L7.19754 11.5777L5.14117 13.7621L8.94369 17.3418L11.0001 15.1575ZM7.19755 11.5778C7.54091 11.901 7.55931 12.4136 7.28426 12.7574L4.94168 10.8833C4.25972 11.7357 4.32352 12.9923 5.14116 13.7621L7.19755 11.5778ZM7.28427 12.7574C6.98192 13.1353 6.4078 13.2058 6.01962 12.8567L8.02582 10.6262C7.10328 9.7964 5.69302 9.94412 4.94167 10.8833L7.28427 12.7574ZM6.01959 12.8566L8.96984 15.5103L10.9761 13.2799L8.02585 10.6262L6.01959 12.8566ZM8.96982 15.5103C9.84159 16.2945 11.1836 16.2243 11.9689 15.3538L9.7413 13.3443C10.0646 12.986 10.6171 12.957 10.9761 13.2799L8.96982 15.5103ZM11.969 15.3537L17.6211 9.08686L15.3934 7.0776L9.7412 13.3444L11.969 15.3537ZM17.6212 9.08676C17.3007 9.44219 16.7548 9.47401 16.3952 9.15937L18.3708 6.90169C17.4972 6.13727 16.1712 6.21507 15.3933 7.0777L17.6212 9.08676Z" fill="#EC601D" mask="url(#path-2-inside-1_8751_12468)"/>
</svg>
