<svg width="20" height="20" viewBox="0 0 20 20" fill="none" xmlns="http://www.w3.org/2000/svg">
<path d="M13.0215 9.87404L8.2168 6.39749C8.19345 6.38053 8.16586 6.37038 8.13709 6.36814C8.10832 6.36591 8.0795 6.37169 8.05381 6.38483C8.02813 6.39798 8.00658 6.41798 7.99157 6.44262C7.97655 6.46727 7.96866 6.49558 7.96875 6.52444V7.44045C7.96875 7.63967 8.06445 7.82912 8.22656 7.94631L11.0664 10.001L8.22656 12.0557C8.06445 12.1729 7.96875 12.3604 7.96875 12.5615V13.4775C7.96875 13.6045 8.11328 13.6787 8.2168 13.6045L13.0215 10.1279C13.1074 10.0654 13.1074 9.93654 13.0215 9.87404Z" fill="#7B7B7B"/>
<path d="M10 1.25C5.16797 1.25 1.25 5.16797 1.25 10C1.25 14.832 5.16797 18.75 10 18.75C14.832 18.75 18.75 14.832 18.75 10C18.75 5.16797 14.832 1.25 10 1.25ZM10 17.2656C5.98828 17.2656 2.73438 14.0117 2.73438 10C2.73438 5.98828 5.98828 2.73438 10 2.73438C14.0117 2.73438 17.2656 5.98828 17.2656 10C17.2656 14.0117 14.0117 17.2656 10 17.2656Z" fill="#7B7B7B"/>
</svg>
