<svg width="135" height="114" viewBox="0 0 135 114" fill="none" xmlns="http://www.w3.org/2000/svg">
<g opacity="0.1">
<path fill-rule="evenodd" clip-rule="evenodd" d="M97.9565 12.7347C104.505 13.0708 109.711 16.3879 114.916 20.1125C131.988 32.3439 137.698 51.3217 126 69.9706C107.808 98.8906 65.4359 117.818 32.5793 109.083C25.3027 107.158 15.4513 105.461 8.23067 96.0599C1.51382 87.3186 1.79369 76.9269 4.87224 67.3062C8.00677 57.4421 14.0519 48.3636 18.8657 42.5279C39.9118 17.0668 82.0601 -6.0739 120.178 6.12569C120.962 6.36075 121.746 5.95651 121.969 5.22286C122.193 4.48921 121.801 3.70252 121.074 3.46746C81.836 -9.08779 38.3443 14.5498 16.6825 40.753C10.6933 48.0298 2.85741 60.1769 0.618456 72.7449C-0.892836 81.3349 0.170447 90.1158 5.99172 97.7544C13.6601 107.769 24.1273 109.73 31.8517 111.78C65.7718 120.802 109.599 101.322 128.35 71.453C140.944 51.4088 134.899 30.9916 116.54 17.8446C110.943 13.8033 105.233 10.311 98.1243 9.94692C97.3407 9.90728 96.6692 10.4997 96.6692 11.2691C96.6133 12.0384 97.2289 12.695 97.9565 12.7347Z" fill="black"/>
</g>
</svg>
