<svg width="40" height="32" viewBox="0 0 40 32" fill="none" xmlns="http://www.w3.org/2000/svg">
<rect width="40" height="32" rx="16" fill="white"/>
<path d="M25.1831 14.4935V14.4935H25.18H22.4867C21.9939 14.4935 21.7769 14.4023 21.6772 14.3141C21.5933 14.2398 21.5 14.0835 21.5 13.6735V10.6535C21.5 10.2478 21.5928 10.0904 21.6779 10.0148C21.7782 9.92573 21.9957 9.8335 22.4867 9.8335H25.18C25.671 9.8335 25.8885 9.92573 25.9887 10.0148C26.0739 10.0904 26.1667 10.2478 26.1667 10.6535V13.6802C26.1667 14.0862 26.0737 14.2428 25.9895 14.3174C25.8903 14.4051 25.6738 14.4966 25.1831 14.4935Z" fill="#DB105B" stroke="#DB105B"/>
<path d="M26.1667 18.4867V21.18C26.1667 21.6599 26.0671 21.8674 25.9673 21.9673C25.8674 22.0671 25.6599 22.1667 25.18 22.1667H22.4867C22.0067 22.1667 21.7992 22.0671 21.6994 21.9673C21.5995 21.8674 21.5 21.6599 21.5 21.18V18.4867C21.5 18.0067 21.5995 17.7992 21.6994 17.6994C21.7992 17.5995 22.0067 17.5 22.4867 17.5H25.18C25.6599 17.5 25.8674 17.5995 25.9673 17.6994C26.0671 17.7992 26.1667 18.0067 26.1667 18.4867Z" fill="#DB105B" stroke="#DB105B"/>
<path d="M17.5166 14.4935V14.4935H17.5135H14.8202C14.3274 14.4935 14.1104 14.4023 14.0107 14.3141C13.9268 14.2398 13.8335 14.0835 13.8335 13.6735V10.6535C13.8335 10.2478 13.9263 10.0904 14.0114 10.0148C14.1117 9.92573 14.3292 9.8335 14.8202 9.8335H17.5135C18.0045 9.8335 18.222 9.92573 18.3222 10.0148C18.4074 10.0904 18.5002 10.2478 18.5002 10.6535V13.6802C18.5002 14.0862 18.4072 14.2428 18.323 14.3174C18.2238 14.4051 18.0073 14.4966 17.5166 14.4935Z" fill="#DB105B" stroke="#DB105B"/>
<path d="M19.0002 21.18V18.4867C19.0002 17.4267 18.5735 17 17.5135 17H14.8202C13.7602 17 13.3335 17.4267 13.3335 18.4867V21.18C13.3335 22.24 13.7602 22.6667 14.8202 22.6667H17.5135C18.5735 22.6667 19.0002 22.24 19.0002 21.18Z" fill="#DB105B"/>
</svg>
