<svg width="40" height="32" viewBox="0 0 40 32" fill="none" xmlns="http://www.w3.org/2000/svg">
<g clip-path="url(#clip0_17649_3658)">
<path d="M18.3333 10.6666L17.3851 10.6666C17.3507 10.997 17.3333 11.3304 17.3333 11.6656V11.6666C17.3333 11.667 17.3333 11.6673 17.3333 11.6676C17.3333 12.0028 17.3507 12.3362 17.3851 12.6666H18.3333H25.9999H26.9481C26.9825 12.3359 26.9999 12.0022 26.9999 11.6666C26.9999 11.3311 26.9825 10.9974 26.9481 10.6666L25.9999 10.6666H18.3333Z" fill="#918D91" stroke="#918D91" stroke-width="21.3333"/>
<path d="M26.9481 17.3334H25.9999H18.3332H17.3851C17.3507 17.003 17.3333 16.6696 17.3333 16.3345L17.3333 16.3334V16.3323M26.9481 17.3334L17.3333 16.3323M26.9481 17.3334C26.9825 17.0026 26.9999 16.6689 26.9999 16.3334C26.9999 15.9978 26.9825 15.6641 26.9481 15.3334V17.3334ZM17.3333 16.3323V15.3334M17.3333 16.3323V15.3334M17.3333 15.3334C17.068 15.3334 16.8137 15.4387 16.6261 15.6263C16.4386 15.8138 16.3333 16.0682 16.3333 16.3334C16.3333 16.5986 16.4386 16.8529 16.6261 17.0405C16.8137 17.228 17.068 17.3334 17.3333 17.3334L17.3851 15.3334L17.3333 15.3334Z" fill="#918D91" stroke="#918D91" stroke-width="21.3333"/>
<path d="M25.9999 22H26.9481C26.9825 21.6693 26.9999 21.3355 26.9999 21C26.9999 20.6645 26.9825 20.3307 26.9481 20H25.9999H18.3333L17.3851 20C17.3507 20.3307 17.3333 20.6645 17.3333 21C17.3333 21.3355 17.3507 21.6693 17.3851 22H18.3333H25.9999Z" fill="#918D91" stroke="#918D91" stroke-width="21.3333"/>
<path d="M13.6667 13.3333C14.5871 13.3333 15.3333 12.5871 15.3333 11.6667C15.3333 10.7462 14.5871 10 13.6667 10C12.7462 10 12 10.7462 12 11.6667C12 12.5871 12.7462 13.3333 13.6667 13.3333Z" fill="#918D91"/>
<path d="M13.6667 17.6667C14.5871 17.6667 15.3333 16.9205 15.3333 16C15.3333 15.0796 14.5871 14.3334 13.6667 14.3334C12.7462 14.3334 12 15.0796 12 16C12 16.9205 12.7462 17.6667 13.6667 17.6667Z" fill="#918D91"/>
<path d="M13.6667 22.3333C14.5871 22.3333 15.3333 21.5871 15.3333 20.6667C15.3333 19.7462 14.5871 19 13.6667 19C12.7462 19 12 19.7462 12 20.6667C12 21.5871 12.7462 22.3333 13.6667 22.3333Z" fill="#918D91"/>
</g>
<defs>
<clipPath id="clip0_17649_3658">
<rect width="16" height="16" fill="white" transform="translate(12 8)"/>
</clipPath>
</defs>
</svg>
