<svg width="46" height="46" viewBox="0 0 46 46" fill="none" xmlns="http://www.w3.org/2000/svg">
<rect opacity="0.05" width="46" height="46" rx="23" fill="#373536"/>
<path d="M23.0201 13.9102C19.7101 13.9102 17.0201 16.6002 17.0201 19.9102V22.8002C17.0201 23.4102 16.7601 24.3402 16.4501 24.8602L15.3001 26.7702C14.5901 27.9502 15.0801 29.2602 16.3801 29.7002C20.6901 31.1402 25.3401 31.1402 29.6501 29.7002C30.8601 29.3002 31.3901 27.8702 30.7301 26.7702L29.5801 24.8602C29.2801 24.3402 29.0201 23.4102 29.0201 22.8002V19.9102C29.0201 16.6102 26.3201 13.9102 23.0201 13.9102Z" stroke="#373536" stroke-width="1.5" stroke-miterlimit="10" stroke-linecap="round"/>
<path d="M24.8699 14.1999C24.5599 14.1099 24.2399 14.0399 23.9099 13.9999C22.9499 13.8799 22.0299 13.9499 21.1699 14.1999C21.4599 13.4599 22.1799 12.9399 23.0199 12.9399C23.8599 12.9399 24.5799 13.4599 24.8699 14.1999Z" stroke="#373536" stroke-width="1.5" stroke-miterlimit="10" stroke-linecap="round" stroke-linejoin="round"/>
<path d="M26.02 30.0601C26.02 31.7101 24.67 33.0601 23.02 33.0601C22.2 33.0601 21.44 32.7201 20.9 32.1801C20.36 31.6401 20.02 30.8801 20.02 30.0601" stroke="#373536" stroke-width="1.5" stroke-miterlimit="10"/>
</svg>
