<svg width="24" height="24" viewBox="0 0 24 24" fill="none" xmlns="http://www.w3.org/2000/svg">
<circle opacity="0.1" cx="12" cy="12" r="12" fill="#21050F"/>
<path d="M10.5 15.5002C10.5 15.9202 10.565 16.3302 10.685 16.7102C8.76501 16.0452 7.31501 14.2802 7.16501 12.2152C7.01501 10.0202 8.28001 7.97018 10.325 7.11018C10.855 6.89018 11.125 7.05018 11.24 7.16518C11.35 7.27518 11.505 7.54018 11.285 8.04518C11.06 8.56518 10.95 9.11518 10.95 9.68518C10.955 10.7052 11.355 11.6502 12.005 12.3752C11.09 13.1052 10.5 14.2352 10.5 15.5002Z" fill="#171416"/>
<path d="M16.605 14.86C15.615 16.205 14.045 16.995 12.37 16.995C12.29 16.995 12.21 16.99 12.13 16.985C11.63 16.965 11.145 16.87 10.685 16.71C10.565 16.33 10.5 15.92 10.5 15.5C10.5 14.235 11.09 13.105 12.005 12.375C12.74 13.2 13.795 13.735 14.96 13.785C15.275 13.8 15.59 13.775 15.9 13.72C16.46 13.62 16.685 13.83 16.765 13.965C16.85 14.1 16.94 14.395 16.605 14.86Z" fill="#171416"/>
</svg>
