<svg width="20" height="20" viewBox="0 0 20 20" fill="none" xmlns="http://www.w3.org/2000/svg">
<g clip-path="url(#clip0_17673_27449)">
<path d="M17.0462 10.1811C17.0462 14.2228 13.7697 17.4993 9.72798 17.4993C5.68626 17.4993 2.4098 14.2228 2.4098 10.1811C2.4098 6.13939 5.68626 2.86293 9.72798 2.86293C13.7697 2.86293 17.0462 6.13939 17.0462 10.1811Z" fill="#F4F1F6" stroke="#918D91" stroke-width="1.27273"/>
<mask id="path-2-inside-1_17673_27449" fill="white">
<path d="M12.8469 10.7781H6.48331C6.15717 10.7781 5.88672 10.5077 5.88672 10.1816C5.88672 9.85542 6.15717 9.58496 6.48331 9.58496H12.8469C13.1731 9.58496 13.4435 9.85542 13.4435 10.1816C13.4435 10.5077 13.181 10.7781 12.8469 10.7781Z"/>
</mask>
<path d="M12.8469 9.50542H6.48331V12.0509H12.8469V9.50542ZM6.48331 9.50542C6.86008 9.50542 7.15945 9.80478 7.15945 10.1816H4.61399C4.61399 11.2106 5.45427 12.0509 6.48331 12.0509V9.50542ZM7.15945 10.1816C7.15945 10.5583 6.86008 10.8577 6.48331 10.8577V8.31223C5.45427 8.31223 4.61399 9.15251 4.61399 10.1816H7.15945ZM6.48331 10.8577H12.8469V8.31223H6.48331V10.8577ZM12.8469 10.8577C12.4702 10.8577 12.1708 10.5583 12.1708 10.1816H14.7163C14.7163 9.15251 13.876 8.31223 12.8469 8.31223V10.8577ZM12.1708 10.1816C12.1708 9.81586 12.4671 9.50542 12.8469 9.50542V12.0509C13.895 12.0509 14.7163 11.1995 14.7163 10.1816H12.1708Z" fill="#918D91" mask="url(#path-2-inside-1_17673_27449)"/>
</g>
<defs>
<clipPath id="clip0_17673_27449">
<rect width="19.0909" height="19.0909" fill="white" transform="translate(0.181641 0.635742)"/>
</clipPath>
</defs>
</svg>
