<svg width="64" height="64" viewBox="0 0 64 64" fill="none" xmlns="http://www.w3.org/2000/svg">
<circle cx="32" cy="32" r="32" fill="#FFF3EE"/>
<g clip-path="url(#clip0_8461_3252)">
<path d="M26.9604 37.0187L26.8514 38.5147L26.8514 38.5147L26.9604 37.0187ZM17.5983 44.1489L19.0252 44.6114L19.0282 44.6022L17.5983 44.1489ZM19.8808 36.9494L21.3107 37.4027C21.5446 36.6648 21.1786 35.87 20.4657 35.5682L19.8808 36.9494ZM25.8888 26.2371L25.9371 24.7379L25.9124 24.7371L25.8878 24.7371L25.8888 26.2371ZM21.9426 26.2398L21.9416 24.7398L21.9426 26.2398ZM34.705 38.2615L34.2954 39.7045L34.705 38.2615ZM34.7013 24.9602L34.2371 23.5338L34.7013 24.9602ZM33.3333 25.0554V38.1653H36.3333V25.0554H33.3333ZM35.1146 36.8185C31.5467 35.8058 28.4898 35.6261 27.0693 35.5226L26.8514 38.5147C28.2748 38.6184 31.0543 38.7846 34.2954 39.7045L35.1146 36.8185ZM24.1221 37.5542L21.8201 44.656L24.674 45.581L26.9759 38.4792L24.1221 37.5542ZM21.8328 44.6667H19.0126V47.6667H21.8328V44.6667ZM19.0282 44.6022L21.3107 37.4027L18.451 36.4961L16.1684 43.6956L19.0282 44.6022ZM21.9436 27.7398L25.8898 27.7371L25.8878 24.7371L21.9416 24.7398L21.9436 27.7398ZM25.8888 26.2371C25.8405 27.7363 25.8408 27.7363 25.841 27.7363C25.8412 27.7363 25.8415 27.7364 25.8417 27.7364C25.8422 27.7364 25.8427 27.7364 25.8434 27.7364C25.8446 27.7364 25.8461 27.7365 25.8479 27.7365C25.8514 27.7367 25.856 27.7368 25.8617 27.7369C25.8731 27.7372 25.8887 27.7376 25.9085 27.738C25.948 27.7389 26.0039 27.7398 26.0753 27.7404C26.2179 27.7417 26.4222 27.7417 26.6791 27.7371C27.1926 27.7278 27.9191 27.6999 28.7863 27.6258C30.512 27.4783 32.8376 27.1442 35.1655 26.3866L34.2371 23.5338C32.2011 24.1964 30.1204 24.5008 28.5308 24.6367C27.7405 24.7042 27.082 24.7293 26.625 24.7375C26.3967 24.7417 26.2193 24.7416 26.1016 24.7405C26.0428 24.74 25.9989 24.7393 25.9711 24.7387C25.9572 24.7384 25.9473 24.7382 25.9416 24.738C25.9387 24.7379 25.9369 24.7379 25.9362 24.7378C25.9358 24.7378 25.9357 24.7378 25.9358 24.7378C25.9359 24.7378 25.936 24.7378 25.9362 24.7378C25.9363 24.7379 25.9365 24.7379 25.9366 24.7379C25.9368 24.7379 25.9371 24.7379 25.8888 26.2371ZM20.4657 35.5682C17.5783 34.3455 17.0939 30.4549 19.2496 28.4305L17.1959 26.2436C13.6208 29.6011 14.212 36.1779 19.2959 38.3307L20.4657 35.5682ZM19.0126 44.6667C19.012 44.6667 19.0151 44.6668 19.0205 44.6681C19.0256 44.6695 19.03 44.6713 19.0332 44.6731C19.0391 44.6763 19.0368 44.6766 19.0315 44.6692C19.0263 44.6617 19.0227 44.6527 19.0213 44.6442C19.0207 44.6403 19.0205 44.6364 19.0208 44.632C19.0211 44.6278 19.0221 44.6211 19.0252 44.6114L16.1714 43.6864C15.5539 45.5915 16.9178 47.6667 19.0126 47.6667V44.6667ZM21.8201 44.656C21.8178 44.6633 21.8153 44.6673 21.8138 44.6694C21.8121 44.6717 21.811 44.6725 21.8112 44.6723C21.8115 44.6721 21.8135 44.6707 21.8178 44.6692C21.8225 44.6676 21.828 44.6667 21.8328 44.6667V47.6667C23.1472 47.6667 24.2776 46.8038 24.674 45.581L21.8201 44.656ZM27.0693 35.5226C25.6688 35.4207 24.515 36.342 24.1221 37.5542L26.9759 38.4792C26.981 38.4636 26.9837 38.471 26.9636 38.4853C26.9534 38.4927 26.9375 38.5014 26.9161 38.5076C26.894 38.514 26.8712 38.5162 26.8514 38.5147L27.0693 35.5226ZM21.9416 24.7398C20.5565 24.7407 18.6216 24.9047 17.1959 26.2436L19.2496 28.4305C19.7736 27.9383 20.654 27.7407 21.9436 27.7398L21.9416 24.7398ZM33.3333 38.1653C33.3333 37.2206 34.2362 36.5692 35.1146 36.8185L34.2954 39.7045C35.3018 39.9902 36.3333 39.2431 36.3333 38.1653H33.3333ZM36.3333 25.0554C36.3333 23.9542 35.2583 23.2015 34.2371 23.5338L35.1655 26.3866C34.2741 26.6767 33.3333 26.0202 33.3333 25.0554H36.3333Z" fill="#EC601D"/>
<mask id="mask0_8461_3252" style="mask-type:alpha" maskUnits="userSpaceOnUse" x="39" y="19" width="10" height="24">
<path d="M39.7039 19.5388H49V42.7364H39.7039V19.5388Z" fill="white"/>
</mask>
<g mask="url(#mask0_8461_3252)">
<circle cx="38.1545" cy="31.9336" r="9.34545" stroke="#EC601D" stroke-width="3"/>
<path d="M41.3026 31.9337C41.3026 33.6723 39.8931 35.0817 38.1545 35.0817C36.4159 35.0817 35.0065 33.6723 35.0065 31.9337C35.0065 30.1951 36.4159 28.7856 38.1545 28.7856C39.8931 28.7856 41.3026 30.1951 41.3026 31.9337Z" stroke="#EC601D" stroke-width="3"/>
</g>
</g>
<defs>
<clipPath id="clip0_8461_3252">
<rect width="34" height="34" fill="white" transform="translate(15 15)"/>
</clipPath>
</defs>
</svg>
