<svg width="64" height="64" viewBox="0 0 64 64" fill="none" xmlns="http://www.w3.org/2000/svg">
<circle cx="32" cy="32" r="32" fill="#FFF3EE"/>
<path d="M40.5 25.1434C40.415 25.1292 40.3159 25.1292 40.2309 25.1434C38.2759 25.0725 36.7175 23.4717 36.7175 21.4884C36.7175 19.4625 38.3467 17.8334 40.3725 17.8334C42.3984 17.8334 44.0275 19.4767 44.0275 21.4884C44.0134 23.4717 42.455 25.0725 40.5 25.1434Z" stroke="#EC601D" stroke-width="2.5" stroke-linecap="round" stroke-linejoin="round"/>
<path d="M39.0409 35.4567C40.9818 35.7825 43.1209 35.4425 44.6226 34.4367C46.6201 33.105 46.6201 30.9234 44.6226 29.5917C43.1068 28.5859 40.9392 28.2459 38.9984 28.5859" stroke="#EC601D" stroke-width="2.5" stroke-linecap="round" stroke-linejoin="round"/>
<path d="M23.4576 25.1434C23.5426 25.1292 23.6417 25.1292 23.7267 25.1434C25.6817 25.0725 27.2401 23.4717 27.2401 21.4884C27.2401 19.4625 25.6109 17.8334 23.5851 17.8334C21.5592 17.8334 19.9301 19.4767 19.9301 21.4884C19.9442 23.4717 21.5026 25.0725 23.4576 25.1434Z" stroke="#EC601D" stroke-width="2.5" stroke-linecap="round" stroke-linejoin="round"/>
<path d="M24.9167 35.4567C22.9759 35.7825 20.8367 35.4425 19.335 34.4367C17.3375 33.105 17.3375 30.9234 19.335 29.5917C20.8509 28.5859 23.0184 28.2459 24.9592 28.5859" stroke="#EC601D" stroke-width="2.5" stroke-linecap="round" stroke-linejoin="round"/>
<path d="M32 35.7259C31.915 35.7117 31.8159 35.7117 31.7309 35.7259C29.7759 35.6551 28.2175 34.0542 28.2175 32.0709C28.2175 30.0451 29.8467 28.4159 31.8725 28.4159C33.8984 28.4159 35.5275 30.0592 35.5275 32.0709C35.5134 34.0542 33.955 35.6692 32 35.7259Z" stroke="#EC601D" stroke-width="2.5" stroke-linecap="round" stroke-linejoin="round"/>
<path d="M27.8775 40.1884C25.88 41.5201 25.88 43.7017 27.8775 45.0334C30.1442 46.5492 33.8559 46.5492 36.1225 45.0334C38.12 43.7017 38.12 41.5201 36.1225 40.1884C33.87 38.6867 30.1442 38.6867 27.8775 40.1884Z" stroke="#EC601D" stroke-width="2.5" stroke-linecap="round" stroke-linejoin="round"/>
</svg>
