<svg width="64" height="64" viewBox="0 0 64 64" fill="none" xmlns="http://www.w3.org/2000/svg">
<circle cx="32" cy="32" r="32" fill="#FFF3EE"/>
<path d="M22.7349 41.1942V37.0575C22.7349 35.6833 23.8116 34.4508 25.3416 34.4508C26.7158 34.4508 27.9483 35.5275 27.9483 37.0575V41.0383C27.9483 43.8008 25.6533 46.0958 22.8908 46.0958C20.1283 46.0958 17.8333 43.7867 17.8333 41.0383V32.3117C17.6774 24.35 23.9674 17.9042 31.9291 17.9042C39.8908 17.9042 46.1666 24.35 46.1666 32.1558V40.8825C46.1666 43.645 43.8716 45.94 41.1091 45.94C38.3466 45.94 36.0516 43.645 36.0516 40.8825V36.9017C36.0516 35.5275 37.1283 34.295 38.6583 34.295C40.0324 34.295 41.2649 35.3717 41.2649 36.9017V41.1942" stroke="#EC601D" stroke-width="2.5" stroke-linecap="round" stroke-linejoin="round"/>
</svg>
