<svg width="64" height="64" viewBox="0 0 64 64" fill="none" xmlns="http://www.w3.org/2000/svg">
<circle cx="32" cy="32" r="32" fill="#FFF3EE"/>
<path d="M25.5967 40.9959L29.9883 44.3959C30.555 44.9625 31.83 45.2459 32.68 45.2459H38.0633C39.7633 45.2459 41.605 43.9709 42.03 42.2709L45.43 31.9292C46.1383 29.9459 44.8633 28.2459 42.7383 28.2459H37.0717C36.2217 28.2459 35.5133 27.5375 35.655 26.5459L36.3633 22.0125C36.6467 20.7375 35.7967 19.3209 34.5217 18.8959C33.3883 18.4709 31.9717 19.0375 31.405 19.8875L25.5967 28.5292" stroke="#EC601D" stroke-width="2.5" stroke-miterlimit="10"/>
<path d="M18.3716 40.9958V27.1124C18.3716 25.1291 19.2216 24.4208 21.205 24.4208H22.6216C24.605 24.4208 25.455 25.1291 25.455 27.1124V40.9958C25.455 42.9791 24.605 43.6874 22.6216 43.6874H21.205C19.2216 43.6874 18.3716 42.9791 18.3716 40.9958Z" stroke="#EC601D" stroke-width="2.5" stroke-linecap="round" stroke-linejoin="round"/>
</svg>
