<svg width="46" height="46" viewBox="0 0 46 46" fill="none" xmlns="http://www.w3.org/2000/svg">
<rect x="0.5" y="0.5" width="45" height="45" rx="11.5" stroke="#EC601D"/>
<path d="M33.1392 14.7654H20.0322C19.6719 13.6951 18.6596 12.9219 17.4693 12.9219C16.2791 12.9219 15.2668 13.6951 14.9065 14.7654H12.8606C12.3853 14.7654 12 15.1507 12 15.6259C12 16.1012 12.3853 16.4865 12.8606 16.4865H14.9065C15.2669 17.5568 16.2792 18.33 17.4694 18.33C18.6596 18.33 19.6719 17.5568 20.0323 16.4865H33.1393C33.6145 16.4865 33.9998 16.1012 33.9998 15.6259C33.9998 15.1507 33.6145 14.7654 33.1392 14.7654ZM17.4693 16.6089C16.9274 16.6089 16.4864 16.1679 16.4864 15.6259C16.4864 15.084 16.9274 14.643 17.4693 14.643C18.0113 14.643 18.4523 15.084 18.4523 15.6259C18.4523 16.1679 18.0113 16.6089 17.4693 16.6089Z" fill="#EC601D"/>
<path d="M33.1392 22.1393H31.0933C30.7329 21.069 29.7205 20.2958 28.5304 20.2958C27.3402 20.2958 26.3279 21.069 25.9676 22.1393H12.8606C12.3853 22.1393 12 22.5246 12 22.9998C12 23.4751 12.3853 23.8604 12.8606 23.8604H25.9676C26.3279 24.9307 27.3403 25.7039 28.5304 25.7039C29.7206 25.7039 30.733 24.9307 31.0933 23.8604H33.1393C33.6145 23.8604 33.9998 23.4751 33.9998 22.9998C33.9998 22.5246 33.6145 22.1393 33.1392 22.1393ZM28.5304 23.9828C27.9885 23.9828 27.5475 23.5418 27.5475 22.9998C27.5475 22.4579 27.9885 22.0169 28.5304 22.0169C29.0724 22.0169 29.5134 22.4579 29.5134 22.9998C29.5134 23.5418 29.0724 23.9828 28.5304 23.9828Z" fill="#EC601D"/>
<path d="M33.1392 29.5135H23.7193C23.3589 28.4433 22.3466 27.67 21.1564 27.67C19.9662 27.67 18.9539 28.4433 18.5935 29.5135H12.8606C12.3853 29.5135 12 29.8988 12 30.3741C12 30.8494 12.3853 31.2347 12.8606 31.2347H18.5935C18.9539 32.3049 19.9662 33.0782 21.1564 33.0782C22.3466 33.0782 23.3589 32.3049 23.7193 31.2347H33.1393C33.6145 31.2347 33.9998 30.8494 33.9998 30.3741C33.9998 29.8988 33.6145 29.5135 33.1392 29.5135ZM21.1564 31.3571C20.6144 31.3571 20.1735 30.9161 20.1735 30.3742C20.1735 29.8322 20.6144 29.3912 21.1564 29.3912C21.6984 29.3912 22.1393 29.8321 22.1393 30.3741C22.1393 30.9161 21.6984 31.3571 21.1564 31.3571Z" fill="#EC601D"/>
</svg>
