<svg width="20" height="20" viewBox="0 0 20 20" fill="none" xmlns="http://www.w3.org/2000/svg">
<path d="M19.99 10.1871C19.99 9.36767 19.9219 8.76973 19.7747 8.14966H10.1987V11.848H15.8196C15.7063 12.7671 15.0944 14.1512 13.7344 15.0813L13.7154 15.2051L16.7431 17.4969L16.9529 17.5174C18.8794 15.7789 19.99 13.221 19.99 10.1871" fill="#4285F4"/>
<path d="M10.1987 19.9312C12.9525 19.9312 15.2643 19.0453 16.9529 17.5173L13.7344 15.0812C12.8732 15.6681 11.7172 16.0777 10.1987 16.0777C7.50162 16.0777 5.21248 14.3393 4.39647 11.9365L4.27686 11.9464L1.12857 14.3271L1.0874 14.439C2.76459 17.6944 6.20967 19.9312 10.1987 19.9312Z" fill="#34A853"/>
<path d="M4.39695 11.9366C4.18164 11.3165 4.05703 10.6521 4.05703 9.96559C4.05703 9.27902 4.18164 8.61467 4.38563 7.9946L4.37992 7.86254L1.19219 5.4436L1.08789 5.49208C0.396641 6.84299 0 8.36002 0 9.96559C0 11.5712 0.396641 13.0881 1.08789 14.439L4.39695 11.9366" fill="#FBBC05"/>
<path d="M10.1987 3.85336C12.1139 3.85336 13.4058 4.66168 14.1424 5.33718L17.0208 2.59107C15.253 0.985496 12.9525 0 10.1987 0C6.20967 0 2.76459 2.23672 1.0874 5.49214L4.38514 7.99466C5.21248 5.59183 7.50162 3.85336 10.1987 3.85336" fill="#EB4335"/>
</svg>
