<svg width="16" height="16" viewBox="0 0 16 16" fill="none" xmlns="http://www.w3.org/2000/svg">
<path d="M13.1831 6.49338V6.49337H13.18H10.4867C9.99392 6.49337 9.77686 6.40215 9.6772 6.31395C9.59327 6.23967 9.5 6.08339 9.5 5.67337V2.65337C9.5 2.24773 9.59279 2.0903 9.67793 2.01465C9.77815 1.9256 9.9957 1.83337 10.4867 1.83337H13.18C13.671 1.83337 13.8885 1.9256 13.9887 2.01465C14.0739 2.0903 14.1667 2.24773 14.1667 2.65337V5.68004C14.1667 6.08606 14.0737 6.24272 13.9895 6.31728C13.8903 6.40502 13.6738 6.49647 13.1831 6.49338Z" fill="#DB105B" stroke="#DB105B"/>
<path d="M14.1667 10.4867V13.18C14.1667 13.6599 14.0671 13.8674 13.9673 13.9673C13.8674 14.0671 13.6599 14.1667 13.18 14.1667H10.4867C10.0067 14.1667 9.79923 14.0671 9.69939 13.9673C9.59954 13.8674 9.5 13.6599 9.5 13.18V10.4867C9.5 10.0067 9.59954 9.79923 9.69939 9.69939C9.79923 9.59954 10.0067 9.5 10.4867 9.5H13.18C13.6599 9.5 13.8674 9.59954 13.9673 9.69939C14.0671 9.79923 14.1667 10.0067 14.1667 10.4867Z" fill="#DB105B" stroke="#DB105B"/>
<path d="M5.5164 6.49338V6.49337H5.51325H2.81992C2.32717 6.49337 2.11011 6.40215 2.01046 6.31395C1.92653 6.23967 1.83325 6.08339 1.83325 5.67337V2.65337C1.83325 2.24773 1.92604 2.0903 2.01119 2.01465C2.11141 1.9256 2.32895 1.83337 2.81992 1.83337H5.51325C6.00422 1.83337 6.22176 1.9256 6.32198 2.01465C6.40713 2.0903 6.49992 2.24773 6.49992 2.65337V5.68004C6.49992 6.08606 6.40696 6.24272 6.32271 6.31728C6.22358 6.40502 6.00709 6.49647 5.5164 6.49338Z" fill="#DB105B" stroke="#DB105B"/>
<path d="M6.99992 13.18V10.4867C6.99992 9.42667 6.57325 9 5.51325 9H2.81992C1.75992 9 1.33325 9.42667 1.33325 10.4867V13.18C1.33325 14.24 1.75992 14.6667 2.81992 14.6667H5.51325C6.57325 14.6667 6.99992 14.24 6.99992 13.18Z" fill="#DB105B"/>
</svg>
