<svg width="133" height="190" viewBox="0 0 133 190" fill="none" xmlns="http://www.w3.org/2000/svg">
<g opacity="0.1">
<path fill-rule="evenodd" clip-rule="evenodd" d="M131.73 45.3684C127.643 42.0099 123.124 39.089 118.445 36.7146C109.294 32.0697 95.5556 27.8888 82.8352 27.7704C74.1159 27.6892 65.8786 29.5287 59.7949 34.2656C48.2073 43.288 45.8211 58.8728 49.132 75.0661C51.5469 86.8765 56.969 98.9934 63.8169 108.942C56.0384 104.464 45.9798 100.31 36.2117 99.288C25.2619 98.1338 14.6903 100.869 7.78929 111.052C-6.63193 132.338 0.59001 152.933 16.2562 167.799C31.6469 182.4 55.2491 191.363 73.8767 189.83C74.8616 189.746 75.5954 188.874 75.5148 187.882C75.4343 186.891 74.5699 186.151 73.5856 186.235C55.8367 187.69 33.3745 179.088 18.7105 165.172C4.32265 151.52 -2.499 132.633 10.7452 113.09C16.8236 104.121 26.1955 101.855 35.8407 102.871C45.8748 103.929 56.2197 108.491 63.8127 113.12C65.8691 114.37 67.9433 115.609 70.0009 116.877C75.5196 123.111 81.5699 127.806 87.5104 130.078C88.9857 130.637 89.6646 129.663 89.8418 129.381C90.084 128.996 90.3184 128.377 89.9277 127.577C89.8543 127.427 89.6736 127.144 89.352 126.832C88.9124 126.411 87.9334 125.635 87.5271 125.257C85.8508 123.682 84.0128 122.233 82.2041 120.826C79.0602 118.374 75.7207 116.192 72.331 114.094C71.846 113.535 71.3664 112.97 70.8915 112.393C62.3935 102.035 55.4257 87.9748 52.6374 74.3387C49.6248 59.6032 51.4395 45.3294 61.9837 37.1198C67.472 32.8463 74.9362 31.3038 82.8024 31.3772C94.9603 31.4902 108.089 35.4961 116.835 39.9355C122.177 42.6472 127.303 46.1055 131.757 50.1372C133.236 51.4754 134.584 52.9938 135.876 54.5141C136.018 54.6812 136.214 54.9282 136.432 55.2114C136.996 56.0608 137.593 56.8789 138.222 57.6634C138.554 58.0763 138.781 58.2236 138.822 58.2501C139.903 58.9468 140.672 58.3619 140.999 58.0589C141.096 57.9687 142.078 57.0009 141.28 55.7277C141.118 55.4699 140.107 54.0897 139.302 53.0503C133.332 43.9871 131.473 31.2317 134.109 20.8784C135.782 14.3153 139.271 8.70675 144.8 5.77985C148.478 3.83399 153.039 3.09341 158.511 3.97767C171.708 6.11048 182.762 13.6985 192.6 23.0401C202.663 32.5963 211.452 43.9961 219.874 53.5348C220.53 54.2784 221.662 54.3451 222.4 53.6833C223.138 53.022 223.204 51.8811 222.548 51.1375C214.062 41.5249 205.195 30.0457 195.055 20.415C184.687 10.5703 172.987 2.66419 159.078 0.416568C152.711 -0.612567 147.414 0.322819 143.136 2.58667C136.734 5.97464 132.578 12.3833 130.643 19.9815C128.621 27.9219 129.04 37.151 131.73 45.3684Z" fill="black"/>
</g>
</svg>
