<svg width="18" height="18" viewBox="0 0 18 18" fill="none" xmlns="http://www.w3.org/2000/svg">
<path d="M5.60986 13.7626L7.93486 15.5626C8.23486 15.8626 8.90986 16.0126 9.35986 16.0126H12.2099C13.1099 16.0126 14.0849 15.3376 14.3099 14.4376L16.1099 8.9626C16.4849 7.9126 15.8099 7.0126 14.6849 7.0126H11.6849C11.2349 7.0126 10.8599 6.6376 10.9349 6.1126L11.3099 3.7126C11.4599 3.0376 11.0099 2.2876 10.3349 2.0626C9.73486 1.8376 8.98486 2.1376 8.68486 2.5876L5.60986 7.1626" stroke="#918D91" stroke-width="1.5" stroke-miterlimit="10"/>
<path d="M1.78516 13.7627V6.41267C1.78516 5.36267 2.23516 4.98767 3.28516 4.98767H4.03516C5.08516 4.98767 5.53516 5.36267 5.53516 6.41267V13.7627C5.53516 14.8127 5.08516 15.1877 4.03516 15.1877H3.28516C2.23516 15.1877 1.78516 14.8127 1.78516 13.7627Z" stroke="#918D91" stroke-width="1.5" stroke-linecap="round" stroke-linejoin="round"/>
</svg>
