<svg width="20" height="20" viewBox="0 0 20 20" fill="none" xmlns="http://www.w3.org/2000/svg">
<path d="M6.46875 14.9609L8.89062 16.8359C9.20312 17.1484 9.90625 17.3047 10.375 17.3047H13.3438C14.2813 17.3047 15.2969 16.6016 15.5313 15.6641L17.4062 9.96093C17.7969 8.86718 17.0938 7.92968 15.9219 7.92968H12.7969C12.3281 7.92968 11.9375 7.53905 12.0156 6.99218L12.4062 4.49218C12.5625 3.78905 12.0937 3.0078 11.3906 2.77343C10.7656 2.53905 9.98437 2.85155 9.67187 3.3203L6.46875 8.08593" stroke="#373536" stroke-width="1.5" stroke-miterlimit="10"/>
<path d="M2.48438 14.9609V7.30469C2.48438 6.21094 2.95313 5.82031 4.04688 5.82031H4.82812C5.92187 5.82031 6.39062 6.21094 6.39062 7.30469V14.9609C6.39062 16.0547 5.92187 16.4453 4.82812 16.4453H4.04688C2.95313 16.4453 2.48438 16.0547 2.48438 14.9609Z" stroke="#373536" stroke-width="1.5" stroke-linecap="round" stroke-linejoin="round"/>
</svg>
