<svg width="20" height="20" viewBox="0 0 20 20" fill="none" xmlns="http://www.w3.org/2000/svg">
<path d="M18.3332 8.33317V10.8332C18.3332 14.1665 16.6665 15.8332 13.3332 15.8332H12.9165C12.6582 15.8332 12.4082 15.9582 12.2498 16.1665L10.9998 17.8332C10.4498 18.5665 9.54984 18.5665 8.99984 17.8332L7.74984 16.1665C7.6165 15.9832 7.30817 15.8332 7.08317 15.8332H6.6665C3.33317 15.8332 1.6665 14.9998 1.6665 10.8332V6.6665C1.6665 3.33317 3.33317 1.6665 6.6665 1.6665H11.6665" stroke="#918D91" stroke-width="1.5" stroke-miterlimit="10" stroke-linecap="round" stroke-linejoin="round"/>
<path d="M16.2498 5.83317C17.4004 5.83317 18.3332 4.90043 18.3332 3.74984C18.3332 2.59924 17.4004 1.6665 16.2498 1.6665C15.0992 1.6665 14.1665 2.59924 14.1665 3.74984C14.1665 4.90043 15.0992 5.83317 16.2498 5.83317Z" stroke="#918D91" stroke-width="1.5" stroke-linecap="round" stroke-linejoin="round"/>
<path d="M13.3305 9.16667H13.338" stroke="#918D91" stroke-width="2" stroke-linecap="round" stroke-linejoin="round"/>
<path d="M9.99607 9.16667H10.0036" stroke="#918D91" stroke-width="2" stroke-linecap="round" stroke-linejoin="round"/>
<path d="M6.66209 9.16667H6.66957" stroke="#918D91" stroke-width="2" stroke-linecap="round" stroke-linejoin="round"/>
</svg>
