<svg width="46" height="46" viewBox="0 0 46 46" fill="none" xmlns="http://www.w3.org/2000/svg">
<rect opacity="0.05" width="46" height="46" rx="23" fill="#373536"/>
<path d="M23.02 13.9102C19.71 13.9102 17.02 16.6002 17.02 19.9102V22.8002C17.02 23.4102 16.76 24.3402 16.45 24.8602L15.3 26.7702C14.59 27.9502 15.08 29.2602 16.38 29.7002C20.69 31.1402 25.34 31.1402 29.65 29.7002C30.86 29.3002 31.39 27.8702 30.73 26.7702L29.58 24.8602C29.28 24.3402 29.02 23.4102 29.02 22.8002V19.9102C29.02 16.6102 26.32 13.9102 23.02 13.9102Z" stroke="#373536" stroke-width="1.5" stroke-miterlimit="10" stroke-linecap="round"/>
<path d="M24.87 14.1999C24.56 14.1099 24.24 14.0399 23.91 13.9999C22.95 13.8799 22.03 13.9499 21.17 14.1999C21.46 13.4599 22.18 12.9399 23.02 12.9399C23.86 12.9399 24.58 13.4599 24.87 14.1999Z" stroke="#373536" stroke-width="1.5" stroke-miterlimit="10" stroke-linecap="round" stroke-linejoin="round"/>
<path d="M26.02 30.0601C26.02 31.7101 24.67 33.0601 23.02 33.0601C22.2 33.0601 21.44 32.7201 20.9 32.1801C20.36 31.6401 20.02 30.8801 20.02 30.0601" stroke="#373536" stroke-width="1.5" stroke-miterlimit="10"/>
</svg>
