<svg width="46" height="46" viewBox="0 0 46 46" fill="none" xmlns="http://www.w3.org/2000/svg">
<rect opacity="0.1" y="3.05176e-05" width="46" height="46" rx="23" fill="#E3DFE7"/>
<path d="M23.0201 13.91C19.7101 13.91 17.0201 16.6 17.0201 19.91V22.8C17.0201 23.41 16.7601 24.34 16.4501 24.86L15.3001 26.77C14.5901 27.95 15.0801 29.26 16.3801 29.7C20.6901 31.14 25.3401 31.14 29.6501 29.7C30.8601 29.3 31.3901 27.87 30.7301 26.77L29.5801 24.86C29.2801 24.34 29.0201 23.41 29.0201 22.8V19.91C29.0201 16.61 26.3201 13.91 23.0201 13.91Z" stroke="#E3DFE7" stroke-width="1.5" stroke-miterlimit="10" stroke-linecap="round"/>
<path d="M24.8699 14.2C24.5599 14.11 24.2399 14.04 23.9099 14C22.9499 13.88 22.0299 13.95 21.1699 14.2C21.4599 13.46 22.1799 12.94 23.0199 12.94C23.8599 12.94 24.5799 13.46 24.8699 14.2Z" stroke="#E3DFE7" stroke-width="1.5" stroke-miterlimit="10" stroke-linecap="round" stroke-linejoin="round"/>
<path d="M26.02 30.06C26.02 31.71 24.67 33.06 23.02 33.06C22.2 33.06 21.44 32.72 20.9 32.18C20.36 31.64 20.02 30.88 20.02 30.06" stroke="#E3DFE7" stroke-width="1.5" stroke-miterlimit="10"/>
</svg>
