<svg width="16" height="16" viewBox="0 0 16 16" fill="none" xmlns="http://www.w3.org/2000/svg">
<path d="M6.10719 7.24658C6.04053 7.23992 5.96053 7.23992 5.88719 7.24658C4.30053 7.19325 3.04053 5.89325 3.04053 4.29325C3.04053 2.65992 4.36053 1.33325 6.00053 1.33325C7.63386 1.33325 8.96053 2.65992 8.96053 4.29325C8.95386 5.89325 7.69386 7.19325 6.10719 7.24658Z" stroke="#EC601D" stroke-width="1.5" stroke-linecap="round" stroke-linejoin="round"/>
<path d="M10.9407 2.66675C12.234 2.66675 13.274 3.71341 13.274 5.00008C13.274 6.26008 12.274 7.28675 11.0273 7.33341C10.974 7.32675 10.914 7.32675 10.854 7.33341" stroke="#EC601D" stroke-width="1.5" stroke-linecap="round" stroke-linejoin="round"/>
<path d="M2.77396 9.70675C1.16063 10.7867 1.16063 12.5467 2.77396 13.6201C4.6073 14.8467 7.61396 14.8467 9.4473 13.6201C11.0606 12.5401 11.0606 10.7801 9.4473 9.70675C7.62063 8.48675 4.61396 8.48675 2.77396 9.70675Z" stroke="#EC601D" stroke-width="1.5" stroke-linecap="round" stroke-linejoin="round"/>
<path d="M12.2271 13.3333C12.7071 13.2333 13.1604 13.0399 13.5337 12.7533C14.5737 11.9733 14.5737 10.6866 13.5337 9.90659C13.1671 9.62659 12.7204 9.43992 12.2471 9.33325" stroke="#EC601D" stroke-width="1.5" stroke-linecap="round" stroke-linejoin="round"/>
</svg>
