<svg width="26" height="24" viewBox="0 0 26 24" fill="none" xmlns="http://www.w3.org/2000/svg">
<path d="M10.1431 10.87C10.0373 10.86 9.91031 10.86 9.79391 10.87C7.27539 10.79 5.27539 8.84 5.27539 6.44C5.27539 3.99 7.37063 2 9.9738 2C12.5664 2 14.6722 3.99 14.6722 6.44C14.6616 8.84 12.6616 10.79 10.1431 10.87Z" stroke="#DB105B" stroke-width="1.5" stroke-linecap="round" stroke-linejoin="round"/>
<path d="M17.8133 4C19.8663 4 21.5171 5.57 21.5171 7.5C21.5171 9.39 19.9298 10.93 17.9509 11C17.8663 10.99 17.771 10.99 17.6758 11" stroke="#DB105B" stroke-width="1.5" stroke-linecap="round" stroke-linejoin="round"/>
<path d="M4.85228 14.56C2.29143 16.18 2.29143 18.82 4.85228 20.43C7.76233 22.27 12.5348 22.27 15.4449 20.43C18.0057 18.81 18.0057 16.17 15.4449 14.56C12.5454 12.73 7.77291 12.73 4.85228 14.56Z" stroke="#DB105B" stroke-width="1.5" stroke-linecap="round" stroke-linejoin="round"/>
<path d="M19.8574 20C20.6193 19.85 21.3389 19.56 21.9315 19.13C23.5823 17.96 23.5823 16.03 21.9315 14.86C21.3495 14.44 20.6405 14.16 19.8892 14" stroke="#DB105B" stroke-width="1.5" stroke-linecap="round" stroke-linejoin="round"/>
</svg>
