<svg width="25" height="20" viewBox="0 0 25 20" fill="none" xmlns="http://www.w3.org/2000/svg">
<path opacity="0.2" d="M12.0655 1.48837C8.71399 3.41085 6.70307 6.04651 6.03276 9.39535C7.00775 9.39535 7.98274 9.89147 8.95773 10.8837C9.93272 11.876 10.4202 13.0853 10.4202 14.5116C10.4202 16.062 9.93272 17.3643 8.95773 18.4186C7.98274 19.4729 6.764 20 5.30152 20C3.77809 20 2.49842 19.4419 1.46249 18.3256C0.487496 17.2093 0 15.7829 0 14.0465C0 11.0698 1.09687 8.37209 3.2906 5.95349C5.48433 3.53488 8.13509 1.55039 11.2429 0L12.0655 1.48837ZM24.8623 1.48837C21.5107 3.41085 19.4998 6.04651 18.8295 9.39535C19.8045 9.39535 20.7795 9.89147 21.7545 10.8837C22.7295 11.876 23.217 13.0853 23.217 14.5116C23.217 16.062 22.7295 17.3643 21.7545 18.4186C20.7795 19.4729 19.5608 20 18.0983 20C16.5749 20 15.2952 19.4419 14.2592 18.3256C13.2843 17.2093 12.7968 15.7829 12.7968 14.0465C12.7968 11.0698 13.8936 8.37209 16.0874 5.95349C18.2811 3.53488 20.9318 1.55039 24.0396 0L24.8623 1.48837Z" fill="black"/>
</svg>
