<svg width="26" height="20" viewBox="0 0 26 20" fill="none" xmlns="http://www.w3.org/2000/svg">
<path opacity="0.2" d="M13.7204 18.5116C17.1313 16.5892 19.1778 13.9535 19.86 10.6047C18.8677 10.6047 17.8755 10.1085 16.8832 9.11628C15.891 8.12403 15.3949 6.91473 15.3949 5.48837C15.3949 3.93799 15.891 2.63566 16.8832 1.5814C17.8755 0.527131 19.1158 -6.01794e-07 20.6042 -4.71676e-07C22.1546 -3.36137e-07 23.4569 0.558141 24.5111 1.67442C25.5034 2.7907 25.9995 4.21705 25.9995 5.95349C25.9995 8.93023 24.8832 11.6279 22.6507 14.0465C20.4181 16.4651 17.7204 18.4496 14.5577 20L13.7204 18.5116ZM0.697188 18.5116C4.10804 16.5891 6.15455 13.9535 6.83672 10.6047C5.84448 10.6047 4.85223 10.1085 3.85998 9.11628C2.86773 8.12403 2.37161 6.91473 2.37161 5.48837C2.37161 3.93798 2.86773 2.63566 3.85998 1.58139C4.85223 0.52713 6.09254 -1.74032e-06 7.58091 -1.61021e-06C9.1313 -1.47467e-06 10.4336 0.55814 11.4879 1.67442C12.4801 2.7907 12.9763 4.21705 12.9763 5.95349C12.9763 8.93023 11.86 11.6279 9.62742 14.0465C7.39486 16.4651 4.69719 18.4496 1.5344 20L0.697188 18.5116Z" fill="black"/>
</svg>
