<svg width="24" height="24" viewBox="0 0 24 24" fill="none" xmlns="http://www.w3.org/2000/svg">
<path d="M13.5002 7.5V3.75C13.4998 3.59878 13.4537 3.45122 13.3679 3.32667C13.2822 3.20211 13.1608 3.10639 13.0197 3.05205C12.8786 2.99771 12.7243 2.9873 12.5772 3.02218C12.43 3.05706 12.2969 3.1356 12.1952 3.2475L5.44518 10.7475C5.3208 10.8853 5.25195 11.0644 5.25195 11.25C5.25195 11.4356 5.3208 11.6147 5.44518 11.7525L12.1952 19.2525C12.2969 19.3644 12.43 19.4429 12.5772 19.4778C12.7243 19.5127 12.8786 19.5023 13.0197 19.4479C13.1608 19.3936 13.2822 19.2979 13.3679 19.1733C13.4537 19.0488 13.4998 18.9012 13.5002 18.75V15C17.8952 15.15 18.8102 16.71 20.5502 19.6725C20.7227 19.98 20.9102 20.295 21.1052 20.6175C21.1697 20.7322 21.2632 20.828 21.3764 20.8951C21.4897 20.9623 21.6186 20.9984 21.7502 21C21.8172 21.0109 21.8856 21.0109 21.9527 21C22.1149 20.9546 22.2571 20.856 22.3565 20.7199C22.4558 20.5839 22.5064 20.4183 22.5002 20.25C22.5002 15.9075 22.5002 7.935 13.5002 7.5ZM12.7502 13.5C12.5513 13.5 12.3605 13.579 12.2199 13.7197C12.0792 13.8603 12.0002 14.0511 12.0002 14.25V16.7925L7.01268 11.25L12.0002 5.7075V8.25C12.0002 8.44891 12.0792 8.63968 12.2199 8.78033C12.3605 8.92098 12.5513 9 12.7502 9C19.3877 9 20.6852 13.3875 20.9402 17.43C19.3952 15 17.7002 13.5 12.7502 13.5Z" fill="#373536"/>
<path d="M3.26268 11.2499L9.55518 4.25243C9.62815 4.18084 9.68573 4.09509 9.72435 4.00044C9.76298 3.90579 9.78185 3.80424 9.77981 3.70204C9.77776 3.59983 9.75484 3.49912 9.71246 3.40609C9.67008 3.31306 9.60912 3.22968 9.53334 3.16107C9.45756 3.09245 9.36855 3.04006 9.27178 3.0071C9.17501 2.97413 9.07253 2.9613 8.97062 2.96939C8.86871 2.97748 8.76953 3.00632 8.67918 3.05413C8.58882 3.10194 8.50919 3.16772 8.44518 3.24743L1.69518 10.7474C1.5708 10.8852 1.50195 11.0643 1.50195 11.2499C1.50195 11.4356 1.5708 11.6146 1.69518 11.7524L8.44518 19.2524C8.5153 19.3301 8.6009 19.3923 8.69649 19.4349C8.79207 19.4775 8.89552 19.4997 9.00018 19.4999C9.18606 19.4994 9.36513 19.43 9.50268 19.3049C9.64956 19.1715 9.73756 18.9852 9.7474 18.787C9.75724 18.5888 9.68812 18.3948 9.55518 18.2474L3.26268 11.2499Z" fill="#373536"/>
</svg>
