<svg width="20" height="20" viewBox="0 0 20 20" fill="none" xmlns="http://www.w3.org/2000/svg">
<mask id="path-1-inside-1_8753_26303" fill="white">
<path d="M14.7108 12.108C13.7086 12.108 12.8114 12.5652 12.2161 13.2819L8.34356 11.0832C8.46398 10.7443 8.53017 10.38 8.53017 10.0002C8.53017 9.62057 8.46398 9.25619 8.34356 8.91731L12.2158 6.71811C12.811 7.43499 13.7084 7.89233 14.7107 7.89233C16.4984 7.89233 17.9529 6.43732 17.9529 4.6488C17.9531 2.86081 16.4986 1.40625 14.7108 1.40625C12.9228 1.40625 11.4682 2.86081 11.4682 4.64872C11.4682 5.02846 11.5343 5.39291 11.6548 5.73187L7.78236 7.93114C7.18712 7.21464 6.28998 6.7576 5.288 6.7576C3.49978 6.7576 2.04492 8.21216 2.04492 10.0001C2.04492 11.7881 3.49978 13.2426 5.288 13.2426C6.28998 13.2426 7.18704 12.7856 7.78228 12.0692L11.6548 14.2679C11.5343 14.6069 11.4681 14.9714 11.4681 15.3512C11.4681 17.1391 12.9227 18.5937 14.7107 18.5937C16.4985 18.5937 17.953 17.139 17.953 15.3512C17.9531 13.563 16.4986 12.108 14.7108 12.108ZM14.7108 2.54091C15.8729 2.54091 16.8184 3.48646 16.8184 4.64872C16.8184 5.8116 15.8729 6.7576 14.7108 6.7576C13.5485 6.7576 12.6028 5.8116 12.6028 4.64872C12.6028 3.48646 13.5485 2.54091 14.7108 2.54091ZM5.28808 12.108C4.12551 12.108 3.17966 11.1624 3.17966 10.0002C3.17966 8.83788 4.12551 7.89233 5.28808 7.89233C6.45019 7.89233 7.39559 8.83788 7.39559 10.0002C7.39559 11.1624 6.45012 12.108 5.28808 12.108ZM14.7108 17.4591C13.5485 17.4591 12.6028 16.5135 12.6028 15.3513C12.6028 14.1886 13.5485 13.2427 14.7108 13.2427C15.8729 13.2427 16.8184 14.1886 16.8184 15.3513C16.8184 16.5135 15.8729 17.4591 14.7108 17.4591Z"/>
</mask>
<path d="M12.2161 13.2819L11.4755 14.5863L12.5675 15.2063L13.3699 14.2404L12.2161 13.2819ZM8.34356 11.0832L6.93015 10.581L6.50887 11.7665L7.60296 12.3876L8.34356 11.0832ZM8.34356 8.91731L7.60278 7.61299L6.50893 8.23423L6.93015 9.41957L8.34356 8.91731ZM12.2158 6.71811L13.3698 5.75989L12.5673 4.79341L11.475 5.41379L12.2158 6.71811ZM17.9529 4.6488L16.4529 4.64867V4.6488H17.9529ZM11.6548 5.73187L12.3956 7.03619L13.4896 6.41487L13.0681 5.22942L11.6548 5.73187ZM7.78236 7.93114L6.62857 8.88967L7.43109 9.85566L8.52312 9.23547L7.78236 7.93114ZM7.78228 12.0692L8.5229 10.7648L7.43098 10.1448L6.62854 11.1106L7.78228 12.0692ZM11.6548 14.2679L13.0681 14.7703L13.4896 13.5848L12.3954 12.9635L11.6548 14.2679ZM17.953 15.3512L16.453 15.3511V15.3512H17.953ZM14.7108 10.608C13.242 10.608 11.9291 11.2798 11.0622 12.3234L13.3699 14.2404C13.6936 13.8506 14.1752 13.608 14.7108 13.608V10.608ZM12.9567 11.9775L9.08416 9.7788L7.60296 12.3876L11.4755 14.5863L12.9567 11.9775ZM9.75697 11.5855C9.93319 11.0896 10.0302 10.5555 10.0302 10.0002H7.03017C7.03017 10.2044 6.99477 10.3991 6.93015 10.581L9.75697 11.5855ZM10.0302 10.0002C10.0302 9.44498 9.93319 8.91093 9.75697 8.41504L6.93015 9.41957C6.99478 9.60145 7.03017 9.79616 7.03017 10.0002H10.0302ZM9.08434 10.2216L12.9565 8.02243L11.475 5.41379L7.60278 7.61299L9.08434 10.2216ZM11.0617 7.67634C11.9286 8.72031 13.2417 9.39233 14.7107 9.39233V6.39233C14.175 6.39233 13.6935 6.14967 13.3698 5.75989L11.0617 7.67634ZM14.7107 9.39233C17.3274 9.39233 19.4529 7.2652 19.4529 4.6488H16.4529C16.4529 5.60944 15.6694 6.39233 14.7107 6.39233V9.39233ZM19.4529 4.64893C19.4531 2.0325 17.3271 -0.09375 14.7108 -0.09375V2.90625C15.6701 2.90625 16.453 3.68912 16.4529 4.64867L19.4529 4.64893ZM14.7108 -0.09375C12.0945 -0.09375 9.96818 2.03231 9.96818 4.64872H12.9682C12.9682 3.6893 13.7512 2.90625 14.7108 2.90625V-0.09375ZM9.96818 4.64872C9.96818 5.20381 10.065 5.738 10.2414 6.23431L13.0681 5.22942C13.0036 5.04781 12.9682 4.85311 12.9682 4.64872H9.96818ZM10.914 4.42754L7.04159 6.62681L8.52312 9.23547L12.3956 7.03619L10.914 4.42754ZM8.93615 6.97261C8.06928 5.92916 6.75644 5.2576 5.288 5.2576V8.2576C5.82352 8.2576 6.30495 8.50012 6.62857 8.88967L8.93615 6.97261ZM5.288 5.2576C2.6716 5.2576 0.544922 7.38348 0.544922 10.0001H3.54492C3.54492 9.04083 4.32796 8.2576 5.288 8.2576V5.2576ZM0.544922 10.0001C0.544922 12.6168 2.67163 14.7426 5.288 14.7426V11.7426C4.32793 11.7426 3.54492 10.9594 3.54492 10.0001H0.544922ZM5.288 14.7426C6.75647 14.7426 8.0692 14.071 8.93602 13.0277L6.62854 11.1106C6.30489 11.5001 5.82349 11.7426 5.288 11.7426V14.7426ZM7.04166 13.3736L10.9142 15.5723L12.3954 12.9635L8.5229 10.7648L7.04166 13.3736ZM10.2414 13.7655C10.0651 14.2616 9.96811 14.7959 9.96811 15.3512H12.9681C12.9681 15.1469 13.0035 14.9521 13.0681 14.7703L10.2414 13.7655ZM9.96811 15.3512C9.96811 17.9676 12.0944 20.0937 14.7107 20.0937V17.0937C13.7511 17.0937 12.9681 16.3106 12.9681 15.3512H9.96811ZM14.7107 20.0937C17.327 20.0937 19.453 17.9674 19.453 15.3512H16.453C16.453 16.3107 15.67 17.0937 14.7107 17.0937V20.0937ZM19.453 15.3513C19.4531 12.735 17.3274 10.608 14.7108 10.608V13.608C15.6697 13.608 16.453 14.391 16.453 15.3511L19.453 15.3513ZM14.7108 4.04091C15.0444 4.04091 15.3184 4.31474 15.3184 4.64872H18.3184C18.3184 2.65817 16.7015 1.04091 14.7108 1.04091V4.04091ZM15.3184 4.64872C15.3184 4.98401 15.0437 5.2576 14.7108 5.2576V8.2576C16.7022 8.2576 18.3184 6.63918 18.3184 4.64872H15.3184ZM14.7108 5.2576C14.3775 5.2576 14.1028 4.98377 14.1028 4.64872H11.1028C11.1028 6.63943 12.7194 8.2576 14.7108 8.2576V5.2576ZM14.1028 4.64872C14.1028 4.31499 14.3768 4.04091 14.7108 4.04091V1.04091C12.7201 1.04091 11.1028 2.65792 11.1028 4.64872H14.1028ZM5.28808 10.608C4.95355 10.608 4.67966 10.3336 4.67966 10.0002H1.67966C1.67966 11.9912 3.29746 13.608 5.28808 13.608V10.608ZM4.67966 10.0002C4.67966 9.66669 4.95355 9.39233 5.28808 9.39233V6.39233C3.29746 6.39233 1.67966 8.00907 1.67966 10.0002H4.67966ZM5.28808 9.39233C5.62152 9.39233 5.89559 9.66606 5.89559 10.0002H8.89559C8.89559 8.0097 7.27887 6.39233 5.28808 6.39233V9.39233ZM5.89559 10.0002C5.89559 10.3342 5.62148 10.608 5.28808 10.608V13.608C7.27876 13.608 8.89559 11.9906 8.89559 10.0002H5.89559ZM14.7108 15.9591C14.3768 15.9591 14.1028 15.685 14.1028 15.3513H11.1028C11.1028 17.342 12.7201 18.9591 14.7108 18.9591V15.9591ZM14.1028 15.3513C14.1028 15.0166 14.3773 14.7427 14.7108 14.7427V11.7427C12.7196 11.7427 11.1028 13.3606 11.1028 15.3513H14.1028ZM14.7108 14.7427C15.0438 14.7427 15.3184 15.0164 15.3184 15.3513H18.3184C18.3184 13.3609 16.702 11.7427 14.7108 11.7427V14.7427ZM15.3184 15.3513C15.3184 15.6852 15.0443 15.9591 14.7108 15.9591V18.9591C16.7015 18.9591 18.3184 17.3417 18.3184 15.3513H15.3184Z" fill="#373536" mask="url(#path-1-inside-1_8753_26303)"/>
</svg>
