<svg width="18" height="18" viewBox="0 0 18 18" fill="none" xmlns="http://www.w3.org/2000/svg">
<path d="M7.86762 1.67242L4.12512 3.08242C3.26262 3.40492 2.55762 4.42492 2.55762 5.33992V10.9124C2.55762 11.7974 3.14262 12.9599 3.85512 13.4924L7.08012 15.8999C8.13762 16.6949 9.87762 16.6949 10.9351 15.8999L14.1601 13.4924C14.8726 12.9599 15.4576 11.7974 15.4576 10.9124V5.33992C15.4576 4.41742 14.7526 3.39742 13.8901 3.07492L10.1476 1.67242C9.51012 1.43992 8.49012 1.43992 7.86762 1.67242Z" stroke="#918D91" stroke-width="1.5" stroke-linecap="round" stroke-linejoin="round"/>
<path d="M9 9.375C9.82843 9.375 10.5 8.70343 10.5 7.875C10.5 7.04657 9.82843 6.375 9 6.375C8.17157 6.375 7.5 7.04657 7.5 7.875C7.5 8.70343 8.17157 9.375 9 9.375Z" stroke="#918D91" stroke-width="1.5" stroke-miterlimit="10" stroke-linecap="round" stroke-linejoin="round"/>
<path d="M9 9.375V11.625" stroke="#918D91" stroke-width="1.5" stroke-miterlimit="10" stroke-linecap="round" stroke-linejoin="round"/>
</svg>
