<svg width="882" height="400" viewBox="0 0 882 400" fill="none" xmlns="http://www.w3.org/2000/svg">
<rect x="107" width="601" height="397" rx="20" fill="#F9F6F8"/>
<path d="M154.951 98H153.432V95.7633H147.844V94.3368L151.853 85.8458H153.558L149.549 94.3368H153.432V90.9185H154.951V94.3368H156.217V95.7633H154.951V98ZM159.757 98H158.229L158.238 85.8458H159.757V93.2733L163.58 88.8843H165.53L161.504 93.4422L166.003 98H163.901L159.757 93.611V98ZM152.039 146.437C152.725 146.477 153.328 146.665 153.845 147.003C154.369 147.34 154.771 147.793 155.052 148.362C155.339 148.924 155.483 149.558 155.483 150.261C155.483 151.026 155.308 151.71 154.959 152.312C154.616 152.914 154.141 153.387 153.533 153.73C152.931 154.068 152.258 154.236 151.516 154.236C150.919 154.236 150.359 154.127 149.836 153.907C149.313 153.682 148.863 153.364 148.486 152.953C148.114 152.543 147.844 152.059 147.675 151.502L149.119 151.088C149.293 151.634 149.591 152.056 150.013 152.354C150.435 152.652 150.919 152.801 151.465 152.801C151.96 152.801 152.393 152.695 152.765 152.481C153.142 152.267 153.432 151.969 153.634 151.586C153.837 151.198 153.938 150.756 153.938 150.261C153.938 149.766 153.834 149.327 153.626 148.944C153.423 148.556 153.136 148.255 152.765 148.041C152.393 147.827 151.969 147.72 151.49 147.72C151.288 147.72 151.074 147.748 150.849 147.805C150.629 147.861 150.424 147.94 150.233 148.041L149.507 146.851L153.457 143.281H148.156V141.846H155.322V143.289L152.039 146.437ZM159.196 154H157.669L157.677 141.846H159.196V149.273L163.02 144.884H164.97L160.944 149.442L165.442 154H163.341L159.196 149.611V154ZM150.157 208.557H155.922V209.992H147.844L147.852 208.641L153.246 203.788C153.668 203.405 153.963 203.034 154.132 202.674C154.301 202.314 154.385 201.928 154.385 201.517C154.385 201.056 154.278 200.637 154.065 200.26C153.851 199.877 153.558 199.576 153.187 199.357C152.815 199.137 152.399 199.027 151.938 199.027C151.465 199.027 151.037 199.143 150.655 199.373C150.272 199.599 149.971 199.902 149.752 200.285C149.538 200.662 149.434 201.07 149.439 201.509H147.903C147.903 200.755 148.078 200.082 148.426 199.492C148.781 198.895 149.265 198.431 149.878 198.099C150.497 197.761 151.192 197.593 151.963 197.593C152.706 197.593 153.378 197.767 153.98 198.116C154.582 198.459 155.055 198.932 155.398 199.534C155.747 200.13 155.922 200.797 155.922 201.534C155.922 202.052 155.854 202.505 155.719 202.893C155.59 203.276 155.395 203.63 155.137 203.957C154.878 204.277 154.523 204.638 154.073 205.037L150.157 208.557ZM159.46 210H157.932L157.941 197.846H159.46V205.273L163.284 200.884H165.233L161.207 205.442L165.706 210H163.604L159.46 205.611V210ZM151.828 266H150.3V255.509L148.013 256.893V255.213L150.3 253.846H151.828V266ZM156.559 266H155.031L155.04 253.846H156.559V261.273L160.382 256.884H162.332L158.306 261.442L162.805 266H160.703L156.559 261.611V266ZM152.284 322.253C151.507 322.253 150.807 322.076 150.182 321.721C149.557 321.367 149.068 320.877 148.713 320.253C148.359 319.628 148.182 318.928 148.182 318.151V313.695C148.182 312.918 148.359 312.218 148.713 311.593C149.068 310.968 149.557 310.479 150.182 310.124C150.807 309.77 151.507 309.593 152.284 309.593C153.06 309.593 153.761 309.77 154.385 310.124C155.01 310.479 155.5 310.968 155.854 311.593C156.209 312.218 156.386 312.918 156.386 313.695V318.151C156.386 318.928 156.209 319.628 155.854 320.253C155.5 320.877 155.01 321.367 154.385 321.721C153.761 322.076 153.06 322.253 152.284 322.253ZM152.284 320.81C152.751 320.81 153.181 320.695 153.575 320.464C153.969 320.233 154.281 319.921 154.512 319.527C154.743 319.133 154.858 318.703 154.858 318.236V313.602C154.858 313.135 154.743 312.704 154.512 312.31C154.281 311.916 153.969 311.604 153.575 311.373C153.181 311.143 152.751 311.027 152.284 311.027C151.817 311.027 151.386 311.143 150.992 311.373C150.598 311.604 150.286 311.916 150.055 312.31C149.825 312.704 149.709 313.135 149.709 313.602V318.236C149.709 318.703 149.825 319.133 150.055 319.527C150.286 319.921 150.598 320.233 150.992 320.464C151.386 320.695 151.817 320.81 152.284 320.81ZM160.268 322H158.74L158.749 309.846H160.268V317.273L164.092 312.884H166.041L162.015 317.442L166.514 322H164.412L160.268 317.611V322Z" fill="#918D91"/>
<g opacity="0.5">
<rect x="247" y="352" width="348" height="1" fill="#171416"/>
<path d="M195.828 357.115H194.3V346.623L192.013 348.007V346.328L194.3 344.96H195.828V357.115ZM203.845 357.115H202.419V344.96H203.786L208.378 354.642L212.944 344.96H214.328V357.106H212.902V348.261L208.775 357.115H207.973L203.845 348.261V357.115ZM223.701 349.527C223.819 349.785 223.898 350.072 223.937 350.388C223.977 350.697 223.996 351.06 223.996 351.476V357.115H222.663V355.697C221.937 356.811 220.811 357.368 219.286 357.368C218.628 357.368 218.065 357.247 217.598 357.005C217.131 356.757 216.78 356.428 216.543 356.017C216.307 355.607 216.189 355.151 216.189 354.65C216.189 353.305 216.934 352.413 218.426 351.974C218.864 351.856 219.368 351.752 219.936 351.662C220.505 351.572 221.186 351.474 221.979 351.367L222.519 351.291C222.497 350.554 222.311 350.013 221.962 349.67C221.613 349.321 221.051 349.147 220.274 349.147C219.7 349.147 219.208 349.279 218.797 349.544C218.392 349.802 218.11 350.202 217.953 350.742L216.526 350.312C216.746 349.496 217.174 348.865 217.809 348.421C218.451 347.971 219.278 347.746 220.291 347.746C221.129 347.746 221.841 347.898 222.426 348.201C223.017 348.5 223.442 348.941 223.701 349.527ZM219.514 356.11C220.038 356.11 220.499 356.017 220.899 355.832C221.298 355.64 221.622 355.387 221.869 355.072C222.117 354.751 222.277 354.397 222.35 354.009C222.407 353.817 222.443 353.603 222.46 353.367C222.483 353.131 222.497 352.866 222.502 352.574L222.089 352.624C221.295 352.731 220.685 352.818 220.257 352.886C219.835 352.953 219.45 353.038 219.101 353.139C218.667 353.274 218.321 353.46 218.063 353.696C217.809 353.933 217.683 354.248 217.683 354.642C217.683 354.906 217.747 355.151 217.877 355.376C218.006 355.595 218.209 355.773 218.485 355.908C218.76 356.043 219.104 356.11 219.514 356.11ZM228.309 348.556C228.563 348.353 228.861 348.199 229.204 348.092C229.547 347.985 229.893 347.931 230.242 347.931C230.462 347.931 230.678 347.954 230.892 347.999V349.408C230.656 349.352 230.428 349.324 230.208 349.324C229.663 349.324 229.196 349.468 228.807 349.755C228.397 350.047 228.11 350.433 227.946 350.911C227.783 351.384 227.702 351.927 227.702 352.54V357.115H226.191V347.999H227.533V349.442C227.747 349.071 228.005 348.775 228.309 348.556Z" fill="#171416"/>
<path d="M620.689 349.552C621.376 349.591 621.978 349.78 622.496 350.117C623.019 350.455 623.421 350.908 623.703 351.476C623.99 352.039 624.133 352.672 624.133 353.376C624.133 354.141 623.959 354.824 623.61 355.427C623.267 356.029 622.791 356.501 622.183 356.845C621.581 357.182 620.909 357.351 620.166 357.351C619.57 357.351 619.01 357.241 618.486 357.022C617.963 356.797 617.513 356.479 617.136 356.068C616.765 355.657 616.495 355.173 616.326 354.616L617.769 354.203C617.943 354.748 618.242 355.171 618.664 355.469C619.086 355.767 619.57 355.916 620.115 355.916C620.611 355.916 621.044 355.809 621.415 355.595C621.792 355.382 622.082 355.083 622.285 354.701C622.487 354.312 622.589 353.871 622.589 353.376C622.589 352.88 622.484 352.441 622.276 352.059C622.074 351.671 621.787 351.369 621.415 351.156C621.044 350.942 620.619 350.835 620.141 350.835C619.938 350.835 619.724 350.863 619.499 350.919C619.28 350.976 619.074 351.054 618.883 351.156L618.157 349.966L622.107 346.395H616.807V344.96H623.973V346.404L620.689 349.552ZM629.974 357.115H628.446V346.623L626.159 348.007V346.328L628.446 344.96H629.974V357.115ZM637.991 357.115H636.565V344.96H637.932L642.524 354.642L647.09 344.96H648.474V357.106H647.048V348.261L642.921 357.115H642.119L637.991 348.261V357.115ZM657.847 349.527C657.965 349.785 658.044 350.072 658.083 350.388C658.123 350.697 658.142 351.06 658.142 351.476V357.115H656.809V355.697C656.083 356.811 654.957 357.368 653.432 357.368C652.774 357.368 652.211 357.247 651.744 357.005C651.277 356.757 650.926 356.428 650.689 356.017C650.453 355.607 650.335 355.151 650.335 354.65C650.335 353.305 651.08 352.413 652.572 351.974C653.01 351.856 653.514 351.752 654.082 351.662C654.651 351.572 655.332 351.474 656.125 351.367L656.665 351.291C656.643 350.554 656.457 350.013 656.108 349.67C655.759 349.321 655.196 349.147 654.42 349.147C653.846 349.147 653.354 349.279 652.943 349.544C652.538 349.802 652.256 350.202 652.099 350.742L650.672 350.312C650.892 349.496 651.32 348.865 651.955 348.421C652.597 347.971 653.424 347.746 654.437 347.746C655.275 347.746 655.987 347.898 656.572 348.202C657.163 348.5 657.588 348.941 657.847 349.527ZM653.66 356.11C654.184 356.11 654.645 356.017 655.045 355.832C655.444 355.64 655.768 355.387 656.015 355.072C656.263 354.751 656.423 354.397 656.496 354.009C656.553 353.817 656.589 353.603 656.606 353.367C656.629 353.131 656.643 352.866 656.648 352.574L656.235 352.624C655.441 352.731 654.831 352.818 654.403 352.886C653.981 352.953 653.596 353.038 653.247 353.139C652.813 353.274 652.467 353.46 652.209 353.696C651.955 353.933 651.829 354.248 651.829 354.642C651.829 354.906 651.893 355.151 652.023 355.376C652.152 355.595 652.355 355.773 652.631 355.908C652.906 356.043 653.25 356.11 653.66 356.11ZM662.455 348.556C662.708 348.353 663.007 348.199 663.35 348.092C663.693 347.985 664.039 347.931 664.388 347.931C664.608 347.931 664.824 347.954 665.038 347.999V349.408C664.802 349.352 664.574 349.324 664.354 349.324C663.809 349.324 663.342 349.468 662.953 349.755C662.543 350.047 662.256 350.433 662.092 350.911C661.929 351.384 661.848 351.927 661.848 352.54V357.115H660.337V347.999H661.679V349.442C661.893 349.071 662.151 348.775 662.455 348.556Z" fill="#171416"/>
</g>
<rect opacity="0.2" x="483.317" y="99.782" width="13.9299" height="222.265" fill="#171416"/>
<rect opacity="0.2" x="316.158" y="99.782" width="13.9299" height="222.265" fill="#171416"/>
<rect opacity="0.2" x="650.475" y="99.782" width="13.9299" height="222.265" fill="#171416"/>
<rect x="274.369" y="150.425" width="13.9299" height="171.622" fill="black"/>
<rect opacity="0.2" x="608.686" y="150.425" width="13.9299" height="171.622" fill="#171416"/>
<rect opacity="0.2" x="190.79" y="201.067" width="13.9299" height="120.98" fill="#171416"/>
<rect opacity="0.2" x="525.106" y="201.067" width="13.9299" height="120.98" fill="#171416"/>
<rect opacity="0.2" x="441.527" y="201.067" width="13.9299" height="120.98" fill="#171416"/>
<rect opacity="0.2" x="357.948" y="201.067" width="13.9299" height="120.98" fill="#171416"/>
<rect opacity="0.2" x="232.579" y="246.083" width="13.9299" height="75.964" fill="#171416"/>
<rect opacity="0.2" x="566.896" y="246.083" width="13.9299" height="75.964" fill="#171416"/>
<rect opacity="0.2" x="399.738" y="246.083" width="13.9299" height="75.964" fill="#171416"/>
<g filter="url(#filter0_d_8414_4836)">
<rect x="60" y="222" width="233" height="88" rx="10" fill="white"/>
<rect x="61" y="223" width="231" height="86" rx="9" stroke="#D4CDD4" stroke-width="2"/>
</g>
<path d="M130 277C130 273.98 129.405 270.989 128.249 268.198C127.093 265.408 125.399 262.872 123.263 260.737C121.128 258.601 118.592 256.907 115.802 255.751C113.011 254.595 110.02 254 107 254C103.98 254 100.989 254.595 98.1983 255.751C95.4078 256.907 92.8723 258.601 90.7365 260.737C88.6008 262.872 86.9066 265.408 85.7508 268.198C84.5949 270.989 84 273.98 84 277L93 277C93 275.161 93.3621 273.341 94.0657 271.642C94.7693 269.944 95.8005 268.401 97.1005 267.101C98.4005 265.8 99.9439 264.769 101.642 264.066C103.341 263.362 105.161 263 107 263C108.839 263 110.659 263.362 112.358 264.066C114.056 264.769 115.599 265.8 116.899 267.101C118.2 268.401 119.231 269.944 119.934 271.642C120.638 273.341 121 275.161 121 277H130Z" fill="#DB105B"/>
<rect x="146" y="254" width="115" height="8" rx="4" fill="#C4C4C4"/>
<rect x="146" y="272" width="79" height="6" rx="3" fill="#C4C4C4"/>
<g filter="url(#filter1_d_8414_4836)">
<rect x="520" y="35" width="318" height="176" rx="16" fill="white"/>
<rect x="521" y="36" width="316" height="174" rx="15" stroke="#171416" stroke-width="2"/>
</g>
<rect opacity="0.5" x="679" y="92" width="122" height="8" rx="4" fill="#DB105B"/>
<rect x="679" y="108" width="50" height="5" rx="2.5" fill="#C4C4C4"/>
<rect x="679" y="129" width="122" height="6" rx="3" fill="#E3DFE7"/>
<path d="M607.98 170.959C634.478 170.959 655.959 149.478 655.959 122.98C655.959 96.4813 634.478 75 607.98 75C581.481 75 560 96.4813 560 122.98C560 149.478 581.481 170.959 607.98 170.959Z" stroke="#FDA277" stroke-width="2" stroke-miterlimit="10" stroke-linecap="round" stroke-dasharray="6 6"/>
<path d="M566.398 147.012C570.612 154.308 576.673 160.365 583.971 164.576C591.269 168.786 599.546 171.002 607.971 171C616.397 170.998 624.673 168.778 631.969 164.564C639.264 160.35 645.322 154.289 649.533 146.992C653.745 139.695 655.961 131.417 655.96 122.992C655.958 114.567 653.739 106.29 649.526 98.9942C645.312 91.6982 639.252 85.6399 631.955 81.4281C624.658 77.2162 616.381 74.9993 607.955 75" stroke="#FDA277" stroke-width="4" stroke-miterlimit="10" stroke-linecap="round"/>
<path d="M627.673 166.695C636.101 162.904 643.254 156.759 648.272 148.999C653.29 141.239 655.96 132.194 655.96 122.953C655.956 110.232 650.899 98.0327 641.901 89.0398C632.903 80.0469 620.701 74.9966 607.98 75" stroke="#EC601D" stroke-width="14" stroke-miterlimit="10" stroke-linecap="round"/>
<path d="M597.838 128H595.642V125.858H589.9V123.833L594.049 115.04H596.524L592.375 123.833H595.642V120.458H597.838V123.833H599.053V125.858H597.838V128ZM608.429 121.043C608.897 121.409 609.257 121.868 609.509 122.42C609.767 122.966 609.896 123.551 609.896 124.175C609.896 124.967 609.704 125.675 609.32 126.299C608.942 126.917 608.414 127.4 607.736 127.748C607.064 128.096 606.302 128.27 605.45 128.27C604.604 128.27 603.845 128.096 603.173 127.748C602.501 127.4 601.976 126.917 601.598 126.299C601.22 125.675 601.031 124.967 601.031 124.175C601.031 123.545 601.157 122.96 601.409 122.42C601.661 121.874 602.024 121.415 602.498 121.043C601.742 120.317 601.364 119.447 601.364 118.433C601.364 117.701 601.535 117.059 601.877 116.507C602.225 115.955 602.708 115.529 603.326 115.229C603.95 114.923 604.658 114.77 605.45 114.77C606.242 114.77 606.947 114.923 607.565 115.229C608.189 115.529 608.675 115.955 609.023 116.507C609.371 117.059 609.545 117.701 609.545 118.433C609.545 119.453 609.173 120.323 608.429 121.043ZM605.45 116.813C604.904 116.813 604.469 116.951 604.145 117.227C603.821 117.503 603.659 117.905 603.659 118.433C603.659 118.967 603.818 119.372 604.136 119.648C604.46 119.918 604.898 120.053 605.45 120.053C606.002 120.053 606.44 119.918 606.764 119.648C607.088 119.372 607.25 118.967 607.25 118.433C607.25 117.905 607.088 117.503 606.764 117.227C606.44 116.951 606.002 116.813 605.45 116.813ZM605.45 126.227C606.104 126.227 606.626 126.05 607.016 125.696C607.406 125.336 607.601 124.829 607.601 124.175C607.601 123.521 607.406 123.014 607.016 122.654C606.626 122.294 606.104 122.114 605.45 122.114C604.802 122.114 604.286 122.294 603.902 122.654C603.518 123.014 603.326 123.521 603.326 124.175C603.326 124.829 603.518 125.336 603.902 125.696C604.286 126.05 604.802 126.227 605.45 126.227ZM615.293 121.25C614.705 121.25 614.162 121.106 613.664 120.818C613.172 120.53 612.779 120.137 612.485 119.639C612.197 119.141 612.053 118.598 612.053 118.01C612.053 117.434 612.2 116.897 612.494 116.399C612.794 115.901 613.193 115.505 613.691 115.211C614.189 114.917 614.723 114.77 615.293 114.77C615.881 114.77 616.421 114.914 616.913 115.202C617.411 115.49 617.804 115.883 618.092 116.381C618.386 116.879 618.533 117.422 618.533 118.01C618.533 118.598 618.386 119.141 618.092 119.639C617.804 120.137 617.411 120.53 616.913 120.818C616.421 121.106 615.881 121.25 615.293 121.25ZM625.562 116.489L614.033 128L612.593 126.56L624.122 115.04L625.562 116.489ZM615.293 119.396C615.539 119.396 615.767 119.333 615.977 119.207C616.193 119.081 616.364 118.913 616.49 118.703C616.616 118.487 616.679 118.256 616.679 118.01C616.679 117.764 616.616 117.536 616.49 117.326C616.364 117.11 616.193 116.939 615.977 116.813C615.767 116.687 615.539 116.624 615.293 116.624C615.047 116.624 614.816 116.687 614.6 116.813C614.39 116.939 614.222 117.11 614.096 117.326C613.97 117.536 613.907 117.764 613.907 118.01C613.907 118.256 613.97 118.487 614.096 118.703C614.222 118.913 614.39 119.081 614.6 119.207C614.816 119.333 615.047 119.396 615.293 119.396ZM622.862 128.27C622.274 128.27 621.731 128.126 621.233 127.838C620.741 127.55 620.348 127.157 620.054 126.659C619.766 126.161 619.622 125.618 619.622 125.03C619.622 124.454 619.769 123.917 620.063 123.419C620.363 122.921 620.762 122.525 621.26 122.231C621.758 121.937 622.292 121.79 622.862 121.79C623.45 121.79 623.99 121.934 624.482 122.222C624.98 122.51 625.373 122.903 625.661 123.401C625.955 123.899 626.102 124.442 626.102 125.03C626.102 125.618 625.955 126.161 625.661 126.659C625.373 127.157 624.98 127.55 624.482 127.838C623.99 128.126 623.45 128.27 622.862 128.27ZM622.862 126.416C623.108 126.416 623.336 126.353 623.546 126.227C623.762 126.101 623.933 125.933 624.059 125.723C624.185 125.507 624.248 125.276 624.248 125.03C624.248 124.784 624.185 124.556 624.059 124.346C623.933 124.13 623.762 123.959 623.546 123.833C623.336 123.707 623.108 123.644 622.862 123.644C622.616 123.644 622.385 123.707 622.169 123.833C621.953 123.959 621.782 124.13 621.656 124.346C621.53 124.556 621.467 124.784 621.467 125.03C621.467 125.276 621.53 125.507 621.656 125.723C621.782 125.933 621.953 126.101 622.169 126.227C622.385 126.353 622.616 126.416 622.862 126.416Z" fill="#171416"/>
<path fill-rule="evenodd" clip-rule="evenodd" d="M791.545 282.383C791.521 280.641 791.294 278.884 790.841 277.115C789.249 270.906 782.15 266.92 774.593 265.983C767.04 265.046 759.184 267.178 756.157 272.579C754.425 275.667 754.187 278.328 754.894 280.572C755.599 282.804 757.271 284.654 759.54 286.096C765.866 290.112 776.946 290.932 782 289.253C784.338 288.475 786.622 287.538 788.846 286.466C787.574 293.485 782.836 300.136 776.513 306.128C762.77 319.152 741.444 329.038 729.83 332.672C729.206 332.867 728.86 333.534 729.054 334.162C729.248 334.79 729.911 335.141 730.535 334.946C742.379 331.239 764.12 321.144 778.134 307.861C785.374 301.001 790.533 293.278 791.414 285.159C807.781 276.361 821.222 260.399 832.713 246.966C833.14 246.471 833.084 245.717 832.588 245.287C832.092 244.861 831.346 244.915 830.919 245.413C819.896 258.296 807.103 273.622 791.545 282.383ZM789.166 283.66C789.255 281.702 789.064 279.713 788.548 277.707C787.171 272.333 780.845 269.155 774.303 268.344C770.294 267.848 766.171 268.257 762.937 269.711C760.904 270.624 759.229 271.948 758.22 273.751C756.894 276.115 756.608 278.136 757.151 279.851C757.695 281.578 759.044 282.966 760.803 284.081C766.568 287.742 776.656 288.52 781.257 286.991C783.971 286.09 786.604 284.967 789.166 283.66Z" fill="#918D91"/>
<defs>
<filter id="filter0_d_8414_4836" x="0" y="192" width="353" height="208" filterUnits="userSpaceOnUse" color-interpolation-filters="sRGB">
<feFlood flood-opacity="0" result="BackgroundImageFix"/>
<feColorMatrix in="SourceAlpha" type="matrix" values="0 0 0 0 0 0 0 0 0 0 0 0 0 0 0 0 0 0 127 0" result="hardAlpha"/>
<feOffset dy="30"/>
<feGaussianBlur stdDeviation="30"/>
<feComposite in2="hardAlpha" operator="out"/>
<feColorMatrix type="matrix" values="0 0 0 0 0.0392157 0 0 0 0 0.0823529 0 0 0 0 0.172549 0 0 0 0.08 0"/>
<feBlend mode="normal" in2="BackgroundImageFix" result="effect1_dropShadow_8414_4836"/>
<feBlend mode="normal" in="SourceGraphic" in2="effect1_dropShadow_8414_4836" result="shape"/>
</filter>
<filter id="filter1_d_8414_4836" x="476" y="13" width="406" height="264" filterUnits="userSpaceOnUse" color-interpolation-filters="sRGB">
<feFlood flood-opacity="0" result="BackgroundImageFix"/>
<feColorMatrix in="SourceAlpha" type="matrix" values="0 0 0 0 0 0 0 0 0 0 0 0 0 0 0 0 0 0 127 0" result="hardAlpha"/>
<feOffset dy="22"/>
<feGaussianBlur stdDeviation="22"/>
<feComposite in2="hardAlpha" operator="out"/>
<feColorMatrix type="matrix" values="0 0 0 0 0 0 0 0 0 0 0 0 0 0 0 0 0 0 0.04 0"/>
<feBlend mode="normal" in2="BackgroundImageFix" result="effect1_dropShadow_8414_4836"/>
<feBlend mode="normal" in="SourceGraphic" in2="effect1_dropShadow_8414_4836" result="shape"/>
</filter>
</defs>
</svg>
