<svg width="312" height="281" viewBox="0 0 312 281" fill="none" xmlns="http://www.w3.org/2000/svg">
<ellipse opacity="0.05" cx="162.379" cy="151.091" rx="129.902" ry="129.909" fill="#EC601D"/>
<path fill-rule="evenodd" clip-rule="evenodd" d="M162.959 103.379C166.121 134.208 148.002 147.066 142.867 150.058C142.91 150.376 142.931 150.715 142.931 151.055V195.039L151.375 199.686H195.781C195.866 199.686 195.972 199.686 196.057 199.707C206.284 201.108 206.687 189.014 206.687 187.507C206.623 186.743 207.047 185.979 207.79 185.661C214.197 182.903 211.482 174.246 211.227 173.503C210.888 172.633 211.291 171.636 212.139 171.212C220.456 167.18 215.216 159.924 214.537 159.012C213.985 158.418 213.9 157.505 214.346 156.784C229.41 133.678 182.351 139.385 179.339 139.767C179.105 139.81 178.851 139.831 178.596 139.767C177.599 139.576 176.962 138.621 177.153 137.624C184.176 102.042 167.988 102.424 162.917 103.336L162.959 103.379Z" fill="#EC601D"/>
<path fill-rule="evenodd" clip-rule="evenodd" d="M139.919 195.57V151.055C139.919 149.994 139.495 149.039 138.794 148.361C138.094 147.66 137.14 147.236 136.1 147.236H112.549C111.489 147.236 110.534 147.66 109.855 148.361C109.155 149.061 108.73 150.015 108.73 151.055V195.57C108.73 196.631 109.155 197.586 109.855 198.265C110.555 198.965 111.51 199.389 112.549 199.389H136.1C137.161 199.389 138.115 198.965 138.794 198.265C139.367 197.692 139.749 196.949 139.876 196.122C139.876 195.994 139.876 195.846 139.919 195.719C139.919 195.676 139.919 195.613 139.919 195.57Z" fill="#EC601D"/>
<path opacity="0.1" d="M195.935 9.95254C194.72 9.62001 193.509 9.63343 192.124 9.64878C191.778 9.65261 191.432 9.65645 191.086 9.66029C192.799 8.08426 194.512 6.50823 195.702 4.592C196.043 4.06921 195.345 3.55793 195.003 3.90774C192.943 5.4876 191.059 7.23853 189.175 8.98946C189.15 6.74068 189.125 4.4919 189.1 2.24313C189.089 1.20523 187.531 1.2225 187.543 2.26039C187.568 4.50917 187.595 6.93093 187.62 9.1797C186.045 7.64012 184.472 6.27352 182.9 4.90693C182.202 4.39565 181.346 5.27016 182.044 5.78143C183.271 7.15187 184.497 8.5223 185.897 9.89082C184.167 9.91 182.436 9.92918 180.708 10.1213C180.016 10.129 180.027 11.1669 180.719 11.1592C182.798 11.3092 184.701 11.2881 186.604 11.267C185.062 12.6681 183.522 14.2422 182.155 15.8144C181.471 16.514 182.519 17.3674 183.205 16.8408C184.747 15.4397 186.291 14.2116 187.66 12.8123C187.681 14.7152 187.704 16.7909 188.071 18.6899C188.075 19.0359 188.767 19.0282 188.936 18.6803C189.263 16.9467 189.242 15.0439 189.221 13.141C189.744 13.4813 190.096 13.9964 190.619 14.3366C191.667 15.19 192.714 16.0434 193.76 16.7238C194.11 17.0659 194.623 16.5412 194.274 16.1991C193.397 15.1708 192.693 14.1406 191.817 13.1123C191.29 12.4261 190.592 11.9148 190.067 11.4016C190.932 11.392 191.624 11.3844 192.49 11.3748C193.874 11.3594 194.912 11.3479 196.292 10.9866C196.464 10.8117 196.456 10.1198 195.935 9.95254Z" fill="#171416"/>
<path opacity="0.1" d="M16.9595 97.2479C15.7444 96.9153 14.5332 96.9288 13.1489 96.9441C12.8028 96.9479 12.4567 96.9518 12.1107 96.9556C13.8238 95.3796 15.5369 93.8036 16.727 91.8873C17.0674 91.3645 16.3695 90.8533 16.0272 91.2031C13.7931 92.6119 11.9108 94.5358 10.0266 96.2867C10.0017 94.0379 9.97672 91.7891 9.9518 89.5404C9.94029 88.5025 8.38297 88.5197 8.39448 89.5576C8.4194 91.8064 8.44625 94.2282 8.47117 96.4769C6.8966 94.9374 5.32394 93.5708 3.75127 92.2042C3.05338 91.6929 2.19779 92.5674 2.89568 93.0787C4.12227 94.4491 5.34886 95.8195 6.74849 97.1881C5.01813 97.2072 3.28777 97.2264 1.55933 97.4186C0.867189 97.4263 0.878694 98.4642 1.57084 98.4565C3.64918 98.6064 5.55258 98.5854 7.45597 98.5643C5.91399 99.9654 4.37392 101.539 3.00689 103.112C2.32242 103.811 3.37022 104.665 4.05661 104.138C5.59859 102.737 7.14249 101.509 8.51144 100.11C8.53253 102.012 8.55554 104.088 8.9227 105.987C8.92654 106.333 9.61868 106.325 9.78788 105.978C10.1148 104.244 10.0937 102.341 10.0726 100.438C10.5955 100.778 10.9474 101.294 11.4703 101.634C12.5181 102.487 13.5659 103.341 14.6118 104.021C14.9617 104.363 15.4751 103.838 15.1251 103.496C14.2485 102.468 13.5448 101.438 12.6681 100.41C12.1414 99.7233 11.4435 99.2121 10.9186 98.6989C11.7838 98.6893 12.4759 98.6816 13.3411 98.672C14.7254 98.6567 15.7636 98.6451 17.1441 98.2838C17.3152 98.1089 17.3075 97.417 16.9595 97.2479Z" fill="#171416"/>
<path d="M46.0915 40.007C44.1766 38.9902 42.4347 37.9715 41.0313 36.257C39.4528 34.3715 38.7358 32.1304 37.6726 29.8931C37.6726 29.8931 37.6707 29.7201 37.4977 29.722L37.3246 29.724C37.3246 29.724 37.3246 29.724 37.1535 29.8989C37.1535 29.8989 37.1535 29.8989 37.1554 30.0718C36.6881 34.7481 33.956 38.0655 30.5278 41.0446C30.3567 41.2195 30.3606 41.5654 30.5355 41.7365C34.3615 43.4241 37.0088 48.0659 38.2622 51.8581C38.4391 52.2021 38.9582 52.1964 39.1274 51.8485C39.7946 49.592 40.2907 47.5105 41.479 45.4213C42.6672 43.332 44.2073 41.7579 46.0972 40.526C46.2683 40.3511 46.2645 40.0051 46.0915 40.007Z" fill="#EC601D"/>
<path d="M310.489 91.8991C308.574 90.8823 306.832 89.8636 305.602 88.1472C304.023 86.2616 303.306 84.0205 302.243 81.7832C302.243 81.7832 302.241 81.6103 302.068 81.6122L301.895 81.6141C301.895 81.6141 301.895 81.6141 301.724 81.789C301.724 81.789 301.724 81.789 301.726 81.962C301.258 86.6383 298.526 89.9556 295.098 92.9347C294.927 93.1096 294.931 93.4556 295.106 93.6266C298.932 95.3143 301.579 99.956 302.833 103.748C303.009 104.092 303.528 104.087 303.698 103.739C304.365 101.482 304.861 99.4006 306.049 97.3114C307.238 95.2222 308.778 93.6481 310.668 92.4161C310.668 92.4161 310.664 92.0701 310.489 91.8991Z" fill="#EC601D"/>
<path d="M183.692 49.3617C182.3 48.6851 181.254 48.0047 180.202 46.8054C179.149 45.433 178.612 43.8819 177.73 42.3347C177.73 42.3347 177.73 42.3347 177.557 42.3366L177.384 42.3385C177.384 42.3385 177.384 42.3385 177.386 42.5115C177.076 45.802 175.198 48.0719 172.798 50.1745C172.627 50.3494 172.629 50.5224 172.802 50.5205C175.584 51.7007 177.351 54.9682 178.245 57.5533C178.248 57.8993 178.768 57.8935 178.764 57.5475C179.093 55.9869 179.594 54.4243 180.444 53.0308C181.294 51.6374 182.321 50.588 183.696 49.7077C183.869 49.7058 183.865 49.3598 183.692 49.3617Z" fill="#EC601D"/>
<path d="M139.558 80.2122C137.123 79.0282 135.206 77.8384 133.626 75.7799C131.696 73.3793 130.802 70.7941 129.56 68.0398C129.56 68.0398 129.558 67.8668 129.385 67.8687L129.212 67.8707C129.212 67.8707 129.039 67.8726 129.041 68.0456L129.043 68.2185C128.412 73.7617 125.17 77.9497 121.056 81.4554C120.885 81.6303 120.891 82.1492 121.237 82.1454C125.932 84.1694 129.107 89.6703 130.543 94.3255C130.722 94.8425 131.414 94.8349 131.582 94.314C132.245 91.7116 133.081 89.1073 134.439 86.6702C135.796 84.2331 137.678 82.3091 140.085 80.8984C139.739 80.9023 139.906 80.3814 139.558 80.2122Z" fill="#EC601D"/>
<path d="M98.0616 36.6436C95.6009 33.2108 93.1421 29.951 89.997 27.2178C88.2514 25.8531 86.5058 24.4884 84.591 23.4716C83.5471 22.9642 82.5051 22.6297 81.4612 22.1223C80.9402 21.9551 80.4192 21.7879 79.8962 21.4476C79.3753 21.2804 79.0254 20.9383 78.5082 21.117C78.1622 21.1209 77.991 21.2958 78.1679 21.6398C78.3505 22.5028 79.3944 23.0102 80.0923 23.5215C80.9651 24.2039 81.836 24.7132 82.7088 25.3956C84.4525 26.5873 86.1981 27.9519 87.7706 29.3185C90.7427 32.0536 93.1977 34.9675 95.4835 38.2292C96.5389 39.7746 99.119 38.3619 98.0616 36.6436Z" fill="#17BD8D"/>
<path d="M96.835 106.051C95.4144 102.779 92.1077 101.086 88.8049 99.7387C85.502 98.3913 81.682 97.2226 78.2273 97.7799C74.9436 98.1623 71.3331 100.278 70.1564 103.405C69.3162 105.664 68.4875 108.96 70.583 110.667C71.6326 111.693 73.5378 111.845 74.5645 110.796C76.2775 109.22 74.6934 106.815 73.2958 105.62C67.5284 100.494 57.8485 101.466 51.4792 104.478C47.5187 106.252 44.0908 109.231 42.0586 113.232C40.3629 116.365 38.5209 121.922 40.8067 125.183C41.1585 125.698 41.8506 125.691 42.1909 125.168C44.0654 122.552 44.0232 118.747 45.3768 115.963C46.7284 113.007 48.9509 110.561 51.529 108.975C56.8545 105.456 66.0057 103.625 71.5847 107.369C72.2826 107.88 74.1993 109.07 73.1726 110.119C72.3171 110.994 70.9233 110.144 70.3965 109.458C68.278 105.675 73.2498 101.468 76.3547 100.569C79.4595 99.6693 83.1027 100.494 86.0575 101.672C89.3565 102.674 93.1842 104.534 95.1182 107.281C95.9871 107.617 97.1906 106.912 96.835 106.051Z" fill="#FFA114"/>
<path d="M248.733 78.5705C248.906 78.5685 248.904 78.3956 248.731 78.3975C248.558 78.3994 248.56 78.5724 248.733 78.5705Z" fill="#373536"/>
<path d="M250.26 75.6123C253.14 70.0443 259.13 64.0957 265.901 66.0967C268.331 66.7618 271.471 68.9761 271.159 72.0936C271.009 74.1713 268.572 72.8143 267.697 71.959C265.596 69.7332 266.59 65.7431 267.253 63.1407C268.253 59.6695 270.466 56.3579 273.384 54.2495C275.785 52.3198 279.063 51.4185 282.001 51.0399C285.285 50.6575 288.238 51.6628 291.36 52.3202C292.573 52.4797 293.423 51.0863 292.548 50.231C290.272 47.8341 286.288 47.5323 283.178 47.9128C279.894 48.2952 276.443 49.1985 273.696 51.132C268.199 54.826 264.133 62.6562 264.725 69.2238C265.103 72.1607 268.971 77.654 272.224 74.5038C273.766 73.1027 273.218 70.5137 272.507 68.7916C271.267 66.2102 268.479 64.5111 265.876 63.848C258.067 61.8585 252.084 68.4989 249.216 75.1049C249.048 75.6258 249.919 76.1351 250.26 75.6123Z" fill="#FFA114"/>
<path d="M100.567 68.4673C98.1061 65.0345 94.9628 62.4743 91.3101 60.7847C89.3972 59.9409 87.4863 59.2701 85.5792 58.9452C83.8451 58.6184 81.2478 58.4742 79.7001 59.3564C79.356 59.5332 79.3617 60.0522 79.7116 60.3943C81.1054 61.2439 83.1836 61.3938 84.7447 61.7225C86.6537 62.2204 88.2167 62.7221 89.9566 63.5678C93.2613 65.0882 96.4007 67.3025 98.6807 70.0452C99.5574 71.0736 101.445 69.6686 100.567 68.4673Z" fill="#17BD8D"/>
<path d="M61.0739 80.4964C62.6274 80.1332 64.3559 79.9411 65.9132 79.9238C66.7784 79.9142 67.6435 79.9046 68.5087 79.895C69.0278 79.8893 69.5469 79.8835 69.8911 79.7067C70.2352 79.5299 70.5813 79.526 70.9255 79.3492C71.2696 79.1724 71.2639 78.6534 70.9159 78.4843C70.5679 78.3151 70.2199 78.146 70.0449 77.9749C69.697 77.8058 69.0048 77.8135 68.6568 77.6443C67.7917 77.6539 66.9265 77.6635 65.8902 77.848C64.1617 78.0402 62.4352 78.4053 60.7106 78.9434C59.6743 79.1279 60.0376 80.6809 61.0739 80.4964Z" fill="#17BD8D"/>
<path d="M245.401 121.685C250.213 118.691 255.377 116.212 260.897 114.593C263.485 113.873 266.245 113.15 269.01 112.773C270.565 112.583 271.948 112.395 273.503 112.204C274.714 112.191 275.925 112.178 276.958 111.647C277.302 111.47 277.296 110.951 276.948 110.782C275.731 110.277 274.522 110.463 273.138 110.478C271.58 110.496 270.198 110.684 268.641 110.701C265.701 110.907 262.766 111.459 259.832 112.183C253.964 113.632 248.802 116.284 244 120.144C243.315 120.843 244.369 122.216 245.401 121.685Z" fill="#17BD8D"/>
<path d="M235.8 113.661C239.905 109.29 245.236 106.29 250.395 103.291C252.975 101.879 255.726 100.291 258.481 99.0497C260.03 98.3406 261.407 97.6333 262.783 96.926C264.16 96.2187 265.713 95.8555 267.088 94.9752C267.432 94.7984 267.426 94.2795 266.905 94.1122C265.517 93.7816 263.966 94.3178 262.584 94.5062C260.855 94.6983 259.304 95.2345 257.754 95.9437C254.655 97.3621 251.558 98.9535 248.636 100.716C242.96 103.893 237.979 107.235 234.057 112.469C233.374 113.341 234.943 114.362 235.8 113.661Z" fill="#17BD8D"/>
<path d="M207.378 31.7987C207.2 31.2817 207.194 30.7627 207.013 30.0727C207.009 29.7267 206.834 29.5557 206.832 29.3827C206.831 29.2097 206.829 29.0367 206.654 28.8657C206.652 28.6927 206.479 28.6946 206.477 28.5216C206.302 28.3506 206.127 28.1795 205.954 28.1814C205.781 28.1833 205.61 28.3582 205.439 28.5331C205.441 28.7061 205.267 28.708 205.269 28.881C205.271 29.054 205.273 29.227 205.275 29.4C205.279 29.7459 205.283 30.0919 205.46 30.4359C205.465 30.9549 205.644 31.4719 205.823 31.989L205.821 31.816L205.823 31.989C205.825 32.1619 206.002 32.506 206.177 32.677C206.352 32.8481 206.7 33.0173 206.871 32.8424C207.044 32.8404 207.388 32.6636 207.386 32.4906C207.386 32.4906 207.382 32.1447 207.378 31.7987Z" fill="#171416"/>
<path d="M214.572 56.6317C214.695 52.1322 216.035 48.1382 217.547 43.9694C218.389 41.884 219.233 39.9716 220.25 38.0573C221.267 36.143 222.288 34.5746 222.784 32.4931C222.78 32.1471 222.428 31.632 222.086 31.9818C221.229 32.6833 220.715 33.208 220.033 34.0806C219.523 34.9513 219.016 35.9949 218.506 36.8656C217.491 38.9529 216.476 41.0402 215.635 43.2986C214.124 47.4674 213.311 52.1475 213.188 56.647C213.37 57.51 214.581 57.4966 214.572 56.6317Z" fill="#17BD8D"/>
<path d="M229.128 27.4055C229.298 27.0576 229.469 26.8827 229.638 26.5348C229.638 26.5348 229.64 26.7078 229.467 26.7097C229.467 26.7097 229.465 26.5367 229.638 26.5348L229.809 26.3599C229.98 26.185 229.98 26.185 230.151 26.0101C230.492 25.4873 231.007 25.1356 231.347 24.6128C231.688 24.09 232.203 23.7383 232.543 23.2155C232.712 22.8676 233.057 22.6908 233.226 22.3429C233.224 22.1699 233.397 22.168 233.395 21.995C233.566 21.8201 233.564 21.6472 233.562 21.4742C233.731 21.1263 233.38 20.6112 232.86 20.6169C232.687 20.6188 232.514 20.6208 232.168 20.6246C231.995 20.6265 231.997 20.7995 231.824 20.8014C231.824 20.8014 231.824 20.8014 231.651 20.8033C231.824 20.8014 231.824 20.8014 231.651 20.8033C231.305 20.8072 230.963 21.157 230.619 21.3338C229.93 21.6874 229.417 22.2121 228.904 22.7368C228.39 23.2615 227.877 23.7862 227.539 24.482C227.198 25.0048 226.687 25.7025 226.52 26.2233C226.179 26.7461 226.362 27.6091 227.058 27.9474C228.098 28.1089 228.788 27.9282 229.128 27.4055Z" fill="#17BD8D"/>
<path d="M223.433 59.8203C223.937 58.4307 224.615 57.2121 225.119 55.8225C225.623 54.4329 226.129 53.2163 226.805 51.8247C227.484 50.6062 227.988 49.2165 228.667 47.998C229.345 46.7794 230.37 45.5571 230.528 44.1713C230.522 43.6523 230.001 43.4851 229.655 43.4889C228.275 43.8502 227.6 45.4148 226.746 46.4623C225.721 47.6846 225.044 49.0762 224.368 50.4677C223.691 51.8592 223.187 53.2489 222.685 54.8115C222.52 55.5053 222.181 56.2011 222.191 57.066C222.026 57.7598 222.035 58.6248 222.043 59.3167C221.879 60.1835 223.095 60.5161 223.433 59.8203Z" fill="#17BD8D"/>
<path d="M232.914 40.8579C233.251 39.9892 233.762 39.2915 234.274 38.5938C234.954 37.5482 235.287 36.3335 235.969 35.4609C236.652 34.5883 237.513 34.2328 238.371 33.5313C239.228 32.8297 240.086 32.1282 240.941 31.2537C244.194 28.1036 247.97 25.2936 251.925 23.0008C252.957 22.4703 253.99 21.9398 255.022 21.4094C255.71 21.0557 256.741 20.3523 256.212 19.4931C255.328 17.7729 251.892 20.06 250.86 20.5905C246.905 22.8834 243.654 26.2065 240.053 29.1875C239.023 29.8909 238.167 30.7654 237.311 31.64C236.456 32.5145 235.777 33.733 234.922 34.6075C234.066 35.482 233.034 36.0125 232.178 36.887C231.494 37.5866 230.986 38.6302 230.652 39.672C229.975 41.0635 232.066 42.4243 232.914 40.8579Z" fill="#17BD8D"/>
<path opacity="0.5" d="M151 50.9352C151.677 49.5437 151.831 47.8119 151.641 46.257C151.621 44.5272 151.429 42.7993 151.066 41.2463C151.062 40.9003 150.37 40.908 150.374 41.2539C150.218 42.8127 150.235 44.3695 150.254 46.0994C150.27 47.4832 150.287 49.0401 149.781 50.2567C149.445 51.1255 150.664 51.804 151 50.9352Z" fill="#FFA114"/>
<g opacity="0.5">
<path d="M151.096 28.4435C151.078 26.8867 151.234 25.3279 151.046 23.946C150.855 22.3911 150.321 21.013 149.44 19.6387C149.264 19.2946 148.573 19.4753 148.752 19.9923C149.475 22.7524 149.508 25.6931 149.54 28.6338C149.377 29.5006 151.107 29.4814 151.096 28.4435Z" fill="#FFA114"/>
</g>
<path opacity="0.5" d="M143.32 13.6514C142.958 12.2714 142.424 10.8933 141.718 9.69009C141.366 9.17498 141.186 8.48496 140.834 7.96985C140.482 7.45474 140.125 6.42068 139.432 6.42835C139.086 6.43219 138.74 6.43603 138.571 6.78391C138.233 7.47968 138.759 8.16585 139.113 8.85395C139.465 9.36906 139.819 10.0572 139.998 10.5742C140.703 11.7774 141.236 12.9825 141.595 14.1896C141.953 15.2236 143.677 14.6855 143.32 13.6514Z" fill="#FFA114"/>
<path opacity="0.5" d="M151.25 11.1413C151.581 9.75361 151.737 8.19485 151.892 6.63608C151.885 5.94415 151.875 5.07924 151.867 4.38731C151.86 3.69538 151.85 2.83046 151.496 2.14237C151.318 1.62534 150.625 1.63301 150.458 2.15388C150.12 2.84964 150.129 3.71456 150.137 4.40649C150.145 5.09842 150.152 5.79035 150.16 6.48228C150.175 7.86614 150.018 9.25192 149.86 10.6377C149.864 10.9837 150.043 11.5007 150.389 11.4969C150.739 11.839 151.256 11.6603 151.25 11.1413Z" fill="#FFA114"/>
<path opacity="0.5" d="M157.882 16.0851C158.209 14.3515 158.884 12.7869 159.734 11.3935C160.583 10 161.781 8.77572 162.804 7.38035C162.973 7.03246 162.795 6.51543 162.45 6.69225C160.553 7.2323 159.186 8.80449 158.338 10.3709C157.317 11.9393 156.819 13.8478 156.492 15.5815C156.157 16.6232 157.72 17.1249 157.882 16.0851Z" fill="#FFA114"/>
<path d="M272.329 84.018C272.5 83.8431 272.498 83.6701 272.669 83.4952C272.838 83.1473 273.007 82.7994 273.004 82.4534C273 82.1075 272.998 81.9345 273.167 81.5866L273.165 81.4136C273.163 81.2406 273.161 81.0677 273.159 80.8947C273.156 80.5487 273.152 80.2028 272.975 79.8587C272.971 79.5127 272.796 79.3417 272.621 79.1706C272.267 78.4825 271.57 77.9712 270.702 77.8078C271.05 77.977 271.398 78.1461 271.748 78.4883C271.398 78.1461 271.05 77.977 270.704 77.9808C270.356 77.8117 270.01 77.8155 269.839 77.9904C269.493 77.9943 269.322 78.1692 268.978 78.346C268.634 78.5228 268.291 78.8726 268.122 79.2205C268.637 78.8688 268.98 78.519 269.495 78.1672C269.322 78.1692 269.151 78.3441 268.978 78.346C268.634 78.5228 268.289 78.6996 268.118 78.8745C267.947 79.0494 267.776 79.2243 267.605 79.3992C267.607 79.5722 267.434 79.5741 267.436 79.7471C267.438 79.9201 267.267 80.095 267.269 80.268C267.44 80.0931 267.436 79.7471 267.607 79.5722C267.609 79.7452 267.436 79.7471 267.438 79.9201C267.44 80.0931 267.267 80.095 267.269 80.268C267.097 80.4429 267.101 80.7888 266.93 80.9637C266.761 81.3116 266.592 81.6595 266.597 82.1785C266.428 82.5263 266.607 83.0434 266.611 83.3893C266.788 83.7334 266.965 84.0774 267.142 84.4215C267.318 84.7655 267.668 85.1076 268.016 85.2768C268.191 85.4479 268.537 85.444 268.712 85.6151C269.233 85.7823 269.925 85.7746 270.443 85.5959C270.614 85.421 270.96 85.4172 271.131 85.2423C271.819 84.8886 272.16 84.3658 272.329 84.018Z" fill="#17BD8D"/>
<path d="M265.434 24.062C265.433 23.889 265.26 23.8909 265.258 23.7179C265.083 23.5469 264.908 23.3758 264.906 23.2028C264.906 23.2028 264.731 23.0318 264.558 23.0337C264.21 22.8645 264.208 22.6915 263.687 22.5243C263.514 22.5262 263.166 22.3571 262.993 22.359C262.82 22.3609 262.474 22.3648 262.474 22.3648L261.957 22.5435C261.612 22.7203 261.441 22.8952 261.272 23.2431C261.101 23.418 261.101 23.418 261.103 23.591C261.105 23.764 260.932 23.7659 260.934 23.9389C260.764 24.2868 260.597 24.8076 260.603 25.3266C260.609 25.8455 260.786 26.1896 260.964 26.7066C261.493 27.5658 262.364 28.0751 263.229 28.0655C264.094 28.0559 265.127 27.5255 265.463 26.6567C265.632 26.3088 265.8 25.788 265.794 25.269C265.79 24.9231 265.613 24.579 265.434 24.062Z" fill="#17BD8D"/>
<path d="M138.147 46.2335C136.711 41.5784 137.348 36.5542 138.161 31.8741C138.157 31.5281 137.809 31.3589 137.64 31.7068C135.961 36.3965 135.502 41.7648 136.94 46.5929C136.949 47.4579 138.33 47.0965 138.147 46.2335Z" fill="#171416"/>
</svg>
