<svg width="17" height="17" viewBox="0 0 17 17" fill="none" xmlns="http://www.w3.org/2000/svg">
<path d="M14.875 4.23588C12.5162 4.00213 10.1433 3.88171 7.7775 3.88171C6.375 3.88171 4.9725 3.95255 3.57 4.09421L2.125 4.23588" stroke="#EC601D" stroke-width="1.5" stroke-linecap="round" stroke-linejoin="round"/>
<path d="M6.01953 3.52038L6.17536 2.59246C6.2887 1.91954 6.3737 1.41663 7.57078 1.41663H9.42661C10.6237 1.41663 10.7158 1.94788 10.822 2.59954L10.9779 3.52038" stroke="#EC601D" stroke-width="1.5" stroke-linecap="round" stroke-linejoin="round"/>
<path d="M13.3526 6.47412L12.8922 13.607C12.8143 14.7191 12.7505 15.5833 10.7743 15.5833H6.22677C4.25052 15.5833 4.18677 14.7191 4.10885 13.607L3.64844 6.47412" stroke="#EC601D" stroke-width="1.5" stroke-linecap="round" stroke-linejoin="round"/>
<path d="M7.31641 11.6875H9.67516" stroke="#EC601D" stroke-width="1.5" stroke-linecap="round" stroke-linejoin="round"/>
<path d="M6.73047 8.85413H10.2721" stroke="#EC601D" stroke-width="1.5" stroke-linecap="round" stroke-linejoin="round"/>
</svg>
