<svg width="142" height="155" viewBox="0 0 142 155" fill="none" xmlns="http://www.w3.org/2000/svg">
<g opacity="0.2">
<path fill-rule="evenodd" clip-rule="evenodd" d="M79.5059 29.1241C79.4135 29.1023 79.3212 29.076 79.2332 29.0497C78.0459 28.66 76.3922 27.9286 74.422 27.1754C69.5801 25.3185 62.922 23.3828 56.4617 25.5156C52.1211 26.9476 47.8421 30.1971 44.2667 36.5953C42.6131 39.5646 42.5911 42.8446 43.5322 46.0503C44.8647 50.6092 48.1543 55.0061 51.0568 57.9797C52.2222 59.1708 54.9356 61.0847 56.6771 62.5474C8.4206 60.2526 -20.8992 121.603 18.0077 154.737C18.4695 155.131 19.1642 155.074 19.56 154.619C19.9514 154.159 19.8988 153.467 19.437 153.073C-18.2825 120.946 10.9712 61.1854 58.1635 64.8334C59.0255 64.8991 59.4961 64.6188 59.7204 64.3867C60.0458 64.0451 60.1954 63.594 59.9975 63.0115C59.8479 62.578 59.2322 61.8379 58.2867 61.0364C56.5936 59.5956 53.8098 57.6556 52.6312 56.4513C49.9486 53.7054 46.8745 49.6546 45.6431 45.4416C44.8691 42.8009 44.8296 40.0988 46.1885 37.6595C49.4164 31.8788 53.2336 28.8877 57.1564 27.5914C63.089 25.6338 69.1888 27.5169 73.6349 29.2161C76.0053 30.127 77.9359 30.9941 79.176 31.3138C80.0072 31.5284 80.6405 31.4978 81.0451 31.3314C81.2518 31.2438 81.6608 30.9986 81.7576 30.3679C81.8499 29.7548 81.5201 26.9914 81.5156 26.5272C81.4409 13.8315 90.5838 5.52377 102.59 3.12388C122.709 -0.896366 134.671 8.76018 136.153 20.9304C137.451 31.5722 130.775 43.8913 114.908 50.4691C114.389 50.6268 113.865 50.7845 113.342 50.9377C111.574 51.4589 107.001 52.904 106.389 53.1755C105.536 53.5521 105.673 54.3535 105.699 54.4718C105.769 54.7564 105.945 55.1682 106.552 55.2908C106.609 55.3039 106.913 55.3302 107.484 55.1901C110.435 54.4587 113.162 53.5609 115.669 52.5274C118.395 51.7041 121.109 50.8589 123.875 50.1626C135.225 47.3116 146.928 45.0694 158.665 46.3438C172.057 47.7934 189.186 54.8178 199.604 65.2538C204.706 70.3645 208.193 76.2898 208.729 82.8019C209.27 89.3096 206.843 96.3647 200.264 103.74C199.859 104.191 199.903 104.883 200.356 105.285C200.809 105.688 201.504 105.645 201.908 105.193C208.984 97.2581 211.5 89.6249 210.92 82.6223C210.343 75.6197 206.649 69.2084 201.161 63.7123C190.404 52.9347 172.729 45.6649 158.903 44.1672C147.306 42.9103 135.749 44.9774 124.517 47.7452C135.142 40.3397 139.456 29.8555 138.335 20.6676C136.729 7.4726 123.967 -3.37942 102.154 0.97804C89.0886 3.58813 79.2376 12.719 79.3168 26.5403C79.3212 26.8118 79.4267 28.1826 79.5059 29.1241Z" fill="#171416"/>
</g>
</svg>
