<svg width="26" height="24" viewBox="0 0 26 24" fill="none" xmlns="http://www.w3.org/2000/svg">
<path d="M9.5246 22H15.8738C21.1648 22 23.2812 20 23.2812 15V9C23.2812 4 21.1648 2 15.8738 2H9.5246C4.23359 2 2.11719 4 2.11719 9V15C2.11719 20 4.23359 22 9.5246 22Z" stroke="#373536" stroke-width="1.5" stroke-linecap="round" stroke-linejoin="round"/>
<path d="M9.52461 10C10.6935 10 11.641 9.10457 11.641 8C11.641 6.89543 10.6935 6 9.52461 6C8.35575 6 7.4082 6.89543 7.4082 8C7.4082 9.10457 8.35575 10 9.52461 10Z" stroke="#373536" stroke-width="1.5" stroke-linecap="round" stroke-linejoin="round"/>
<path d="M2.82617 18.95L8.0431 15.64C8.87908 15.11 10.0854 15.17 10.8368 15.78L11.186 16.07C12.0114 16.74 13.3447 16.74 14.1701 16.07L18.5722 12.5C19.3976 11.83 20.7309 11.83 21.5563 12.5L23.2812 13.9" stroke="#373536" stroke-width="1.5" stroke-linecap="round" stroke-linejoin="round"/>
</svg>
