<svg width="26" height="24" viewBox="0 0 26 24" fill="none" xmlns="http://www.w3.org/2000/svg">
<path d="M2.42383 7.77998V17.51C2.42383 19.41 3.8524 20.19 5.58785 19.25L8.07462 17.91C8.6143 17.62 9.51377 17.59 10.0746 17.86L15.6302 20.49C16.191 20.75 17.0905 20.73 17.6302 20.44L22.2122 17.96C22.7942 17.64 23.281 16.86 23.281 16.22V6.48998C23.281 4.58998 21.8524 3.80998 20.1169 4.74998L17.6302 6.08998C17.0905 6.37998 16.191 6.40998 15.6302 6.13998L10.0746 3.51998C9.51377 3.25998 8.6143 3.27998 8.07462 3.56998L3.49261 6.04998C2.90002 6.36998 2.42383 7.14998 2.42383 7.77998Z" stroke="#373536" stroke-width="1.5" stroke-linecap="round" stroke-linejoin="round"/>
<path d="M9.05859 4V17" stroke="#373536" stroke-width="1.5" stroke-linecap="round" stroke-linejoin="round"/>
<path d="M16.6445 6.62V20" stroke="#373536" stroke-width="1.5" stroke-linecap="round" stroke-linejoin="round"/>
</svg>
