<svg width="18" height="18" viewBox="0 0 18 18" fill="none" xmlns="http://www.w3.org/2000/svg">
<path d="M5.66262 16.3121C12.4534 16.3121 16.1687 10.6846 16.1687 5.80597C16.1687 5.64777 16.1652 5.48605 16.1582 5.32784C16.8809 4.80517 17.5046 4.15776 18 3.41605C17.3269 3.71552 16.6122 3.91111 15.8804 3.99613C16.651 3.53425 17.2279 2.80868 17.5043 1.9539C16.7794 2.38349 15.9867 2.68653 15.1601 2.85003C14.6031 2.25824 13.8667 1.86641 13.0648 1.73511C12.2628 1.60381 11.4399 1.74036 10.7233 2.12365C10.0067 2.50693 9.43635 3.1156 9.10039 3.85556C8.76442 4.59551 8.68157 5.42554 8.86465 6.2173C7.39687 6.14364 5.96095 5.76235 4.64999 5.09815C3.33902 4.43394 2.18227 3.50165 1.25473 2.36171C0.7833 3.17451 0.639042 4.13631 0.851273 5.05164C1.0635 5.96698 1.6163 6.76716 2.3973 7.28956C1.81097 7.27095 1.23748 7.11308 0.724219 6.82902V6.87472C0.723693 7.72769 1.01857 8.55451 1.55873 9.21465C2.09889 9.87479 2.85099 10.3275 3.68719 10.4958C3.14404 10.6444 2.57399 10.6661 2.02113 10.5591C2.25709 11.2927 2.71618 11.9342 3.33433 12.3943C3.95248 12.8544 4.69884 13.11 5.46926 13.1255C4.16132 14.1529 2.54563 14.7102 0.882422 14.7075C0.587465 14.7071 0.292799 14.689 0 14.6534C1.68964 15.7374 3.65515 16.3131 5.66262 16.3121Z" fill="#1D9BF0"/>
</svg>
