<svg width="48" height="48" viewBox="0 0 48 48" fill="none" xmlns="http://www.w3.org/2000/svg">
<rect width="48" height="48" rx="24" fill="#FFF3EE"/>
<path d="M17.3309 20.0425L16.8029 20.092C15.0747 20.2542 13.4755 21.0759 12.3373 22.3864C11.1992 23.6969 10.6096 25.3954 10.691 27.1293C10.7725 28.8631 11.5187 30.4989 12.7747 31.6969C14.0307 32.8949 15.7 33.563 17.4357 33.5625H17.4359H20.2484C20.2982 33.5625 20.3459 33.5427 20.381 33.5076C20.4162 33.4724 20.4359 33.4247 20.4359 33.375C20.4359 33.3253 20.4162 33.2776 20.381 33.2424C20.3459 33.2073 20.2982 33.1875 20.2484 33.1875H17.4368H17.4359V32.4375C16.6973 32.4397 15.9654 32.2963 15.2821 32.0156C14.5988 31.7349 13.9775 31.3224 13.4537 30.8016C12.3957 29.7498 11.7989 28.3207 11.7945 26.8289C11.7902 25.3371 12.3786 23.9046 13.4305 22.8466C14.4823 21.7887 15.9113 21.1919 17.4031 21.1875L17.3309 20.0425ZM17.3309 20.0425L17.4602 19.5282C17.8265 18.0711 18.6691 16.7782 19.8542 15.8547C21.0393 14.9312 22.4989 14.4302 24.0013 14.431C25.5037 14.4319 26.9627 14.9347 28.1468 15.8595C29.3308 16.7844 30.1719 18.0783 30.5365 19.5358L31.2641 19.3537M17.3309 20.0425L31.2641 19.3537M31.2641 19.3537L31.1859 20.0997C32.8997 20.2792 34.4798 21.1074 35.6027 22.4145C36.7255 23.7216 37.3059 25.4086 37.225 27.1298C37.1441 28.8511 36.408 30.4762 35.1675 31.6722C33.9279 32.8673 32.2785 33.5435 30.5568 33.5625H27.7484C27.6987 33.5625 27.651 33.5427 27.6159 33.5076C27.5807 33.4724 27.5609 33.4247 27.5609 33.375C27.5609 33.3253 27.5807 33.2776 27.6159 33.2424C27.651 33.2073 27.6987 33.1875 27.7484 33.1875H30.5609C32.2517 33.1875 33.8732 32.5159 35.0687 31.3203C36.2643 30.1248 36.9359 28.5033 36.9359 26.8125C36.9359 25.1217 36.2643 23.5002 35.0687 22.3047C33.8732 21.1091 32.2517 20.4375 30.5609 20.4375V20.4374L30.5492 20.4376C30.4884 20.4385 30.4292 20.4184 30.3816 20.3805C30.3385 20.3461 30.3073 20.2991 30.2924 20.2463C30.0695 18.7424 29.3157 17.3674 28.1667 16.3707C27.0088 15.3662 25.5275 14.8132 23.9947 14.8132C22.4619 14.8132 20.9805 15.3662 19.8227 16.3707C18.6693 17.3713 17.914 18.753 17.6944 20.2637L31.2641 19.3537Z" stroke="#EC601D" stroke-width="1.5"/>
<mask id="path-3-inside-1_17844_40586" fill="white">
<path d="M28.0249 27.4754C28.2017 27.6461 28.4385 27.7406 28.6843 27.7385C28.9301 27.7364 29.1653 27.6378 29.3391 27.4639C29.5129 27.2901 29.6115 27.055 29.6136 26.8092C29.6158 26.5634 29.5213 26.3265 29.3505 26.1497L24.663 21.4622C24.4872 21.2865 24.2488 21.1877 24.0002 21.1877C23.7516 21.1877 23.5132 21.2865 23.3374 21.4622L18.6499 26.1497C18.4791 26.3265 18.3846 26.5634 18.3868 26.8092C18.3889 27.055 18.4875 27.2901 18.6613 27.4639C18.8351 27.6378 19.0703 27.7364 19.3161 27.7385C19.5619 27.7406 19.7987 27.6461 19.9755 27.4754L23.0627 24.3882V36.1875C23.0627 36.4362 23.1615 36.6746 23.3373 36.8505C23.5131 37.0263 23.7516 37.125 24.0002 37.125C24.2488 37.125 24.4873 37.0263 24.6631 36.8505C24.8389 36.6746 24.9377 36.4362 24.9377 36.1875V24.3882L28.0249 27.4754Z"/>
</mask>
<path d="M28.0249 27.4754C28.2017 27.6461 28.4385 27.7406 28.6843 27.7385C28.9301 27.7364 29.1653 27.6378 29.3391 27.4639C29.5129 27.2901 29.6115 27.055 29.6136 26.8092C29.6158 26.5634 29.5213 26.3265 29.3505 26.1497L24.663 21.4622C24.4872 21.2865 24.2488 21.1877 24.0002 21.1877C23.7516 21.1877 23.5132 21.2865 23.3374 21.4622L18.6499 26.1497C18.4791 26.3265 18.3846 26.5634 18.3868 26.8092C18.3889 27.055 18.4875 27.2901 18.6613 27.4639C18.8351 27.6378 19.0703 27.7364 19.3161 27.7385C19.5619 27.7406 19.7987 27.6461 19.9755 27.4754L23.0627 24.3882V36.1875C23.0627 36.4362 23.1615 36.6746 23.3373 36.8505C23.5131 37.0263 23.7516 37.125 24.0002 37.125C24.2488 37.125 24.4873 37.0263 24.6631 36.8505C24.8389 36.6746 24.9377 36.4362 24.9377 36.1875V24.3882L28.0249 27.4754Z" fill="#EC601D"/>
<path d="M28.0249 27.4754L16.7112 38.7891L16.8095 38.8874L16.9095 38.984L28.0249 27.4754ZM29.3505 26.1497L40.8591 15.0343L40.7625 14.9343L40.6642 14.836L29.3505 26.1497ZM24.663 21.4622L35.9767 10.1485L35.975 10.1468L24.663 21.4622ZM23.3374 21.4622L12.0254 10.1468L12.0237 10.1485L23.3374 21.4622ZM18.6499 26.1497L7.33618 14.836L7.23786 14.9343L7.14127 15.0343L18.6499 26.1497ZM19.9755 27.4754L31.0909 38.984L31.1909 38.8874L31.2892 38.7891L19.9755 27.4754ZM23.0627 24.3882H39.0627V-14.2393L11.749 13.0745L23.0627 24.3882ZM24.9377 24.3882L36.2514 13.0745L8.9377 -14.2393V24.3882H24.9377ZM16.9095 38.984C20.1039 42.0693 24.3824 43.7765 28.8234 43.7379L28.5453 11.7391C32.4946 11.7048 36.2994 13.223 39.1403 15.9667L16.9095 38.984ZM28.8234 43.7379C33.2643 43.6993 37.5125 41.918 40.6528 38.7776L18.0254 16.1502C20.8181 13.3575 24.5959 11.7734 28.5453 11.7391L28.8234 43.7379ZM40.6528 38.7776C43.7931 35.6373 45.5744 31.3892 45.613 26.9482L13.6142 26.6701C13.6486 22.7208 15.2327 18.9429 18.0254 16.1502L40.6528 38.7776ZM45.613 26.9482C45.6516 22.5073 43.9444 18.2288 40.8591 15.0343L17.8419 37.2651C15.0981 34.4243 13.5799 30.6195 13.6142 26.6701L45.613 26.9482ZM40.6642 14.836L35.9767 10.1485L13.3493 32.7759L18.0368 37.4634L40.6642 14.836ZM35.975 10.1468C32.7988 6.97152 28.4914 5.18774 24.0002 5.18774V37.1877C20.0062 37.1877 16.1756 35.6014 13.351 32.7776L35.975 10.1468ZM24.0002 5.18774C19.509 5.18774 15.2016 6.97153 12.0254 10.1468L34.6494 32.7776C31.8248 35.6014 27.9942 37.1877 24.0002 37.1877V5.18774ZM12.0237 10.1485L7.33618 14.836L29.9636 37.4634L34.6511 32.7759L12.0237 10.1485ZM7.14127 15.0343C4.05597 18.2288 2.34877 22.5073 2.38736 26.9482L34.3862 26.6701C34.4205 30.6195 32.9023 34.4243 30.1585 37.2651L7.14127 15.0343ZM2.38736 26.9482C2.42595 31.3891 4.20724 35.6373 7.3476 38.7776L29.975 16.1502C32.7677 18.9429 34.3518 22.7208 34.3862 26.6701L2.38736 26.9482ZM7.3476 38.7776C10.4879 41.918 14.7361 43.6993 19.177 43.7379L19.4551 11.7391C23.4045 11.7734 27.1823 13.3575 29.975 16.1502L7.3476 38.7776ZM19.177 43.7379C23.618 43.7765 27.8965 42.0693 31.0909 38.984L8.86012 15.9667C11.7009 13.223 15.5058 11.7048 19.4551 11.7391L19.177 43.7379ZM31.2892 38.7891L34.3764 35.7019L11.749 13.0745L8.6618 16.1617L31.2892 38.7891ZM7.0627 24.3882V36.1875H39.0627V24.3882H7.0627ZM7.0627 36.1875C7.0627 40.6796 8.84717 44.9878 12.0236 48.1642L34.651 25.5367C37.4758 28.3615 39.0627 32.1927 39.0627 36.1875H7.0627ZM12.0236 48.1642C15.2 51.3406 19.5081 53.125 24.0002 53.125V21.125C27.995 21.125 31.8262 22.712 34.651 25.5367L12.0236 48.1642ZM24.0002 53.125C28.4923 53.125 32.8004 51.3406 35.9768 48.1642L13.3494 25.5367C16.1742 22.712 20.0054 21.125 24.0002 21.125V53.125ZM35.9768 48.1642C39.1532 44.9877 40.9377 40.6796 40.9377 36.1875H8.9377C8.9377 32.1928 10.5246 28.3615 13.3494 25.5367L35.9768 48.1642ZM40.9377 36.1875V24.3882H8.9377V36.1875H40.9377ZM13.624 35.7019L16.7112 38.7891L39.3386 16.1617L36.2514 13.0745L13.624 35.7019Z" fill="#EC601D" mask="url(#path-3-inside-1_17844_40586)"/>
</svg>
