<svg width="20" height="20" viewBox="0 0 20 20" fill="none" xmlns="http://www.w3.org/2000/svg">
<path d="M10.8335 9.2915H5.8335" stroke="#918D91" stroke-width="1.5" stroke-linecap="round" stroke-linejoin="round"/>
<path d="M1.6665 9.2917V5.4417C1.6665 3.7417 3.04151 2.3667 4.74151 2.3667H9.42484C11.1248 2.3667 12.4998 3.42503 12.4998 5.12503" stroke="#918D91" stroke-width="1.5" stroke-linecap="round" stroke-linejoin="round"/>
<path d="M14.5665 10.1667C14.1498 10.5667 13.9498 11.1833 14.1165 11.8166C14.3248 12.5916 15.0915 13.0833 15.8915 13.0833H16.6665V14.2917C16.6665 16.1333 15.1748 17.625 13.3332 17.625H4.99984C3.15817 17.625 1.6665 16.1333 1.6665 14.2917V8.45833C1.6665 6.61667 3.15817 5.125 4.99984 5.125H13.3332C15.1665 5.125 16.6665 6.625 16.6665 8.45833V9.66663H15.7665C15.2998 9.66663 14.8748 9.84999 14.5665 10.1667Z" stroke="#918D91" stroke-width="1.5" stroke-linecap="round" stroke-linejoin="round"/>
<path d="M18.3333 10.5165V12.2332C18.3333 12.6999 17.95 13.0832 17.475 13.0832H15.8667C14.9667 13.0832 14.1417 12.4249 14.0667 11.5249C14.0167 10.9999 14.2167 10.5082 14.5667 10.1665C14.875 9.84987 15.3 9.6665 15.7667 9.6665H17.475C17.95 9.6665 18.3333 10.0499 18.3333 10.5165Z" stroke="#918D91" stroke-width="1.5" stroke-linecap="round" stroke-linejoin="round"/>
</svg>
