<svg width="47" height="49" viewBox="0 0 47 49" fill="none" xmlns="http://www.w3.org/2000/svg">
<path d="M10.1822 27.5558L10.1822 27.5562C10.1806 30.2762 10.8929 32.9295 12.2423 35.2671L12.5964 35.8805L12.4119 36.5644L10.8318 42.4202L17.0241 40.957L17.6598 40.8068L18.2333 41.1197C20.4844 42.3478 23.0214 42.994 25.6068 42.9955H25.6125C34.1149 42.9955 41.0381 36.0741 41.0427 27.5711L41.0427 27.5707C41.0458 23.4445 39.4449 19.5736 36.5292 16.6546C33.6135 13.7374 29.7475 12.1334 25.6158 12.1317L10.1822 27.5558ZM10.1822 27.5558C10.1853 19.0522 17.1106 12.132 25.6152 12.1317L10.1822 27.5558ZM25.6125 12.1511H25.6133C29.7301 12.1531 33.6073 13.7616 36.5156 16.668L36.5164 16.6688C39.4255 19.5799 41.0271 23.4566 41.0232 27.5702M25.6125 12.1511L10.2017 27.5545C10.1998 30.2599 10.9118 32.924 12.2596 35.257C12.2598 35.2573 12.2599 35.2575 12.2601 35.2578L12.6158 35.8753L12.4289 36.5655L12.4283 36.5679L11.604 39.6306L10.861 42.3911L13.6432 41.7342L17.0209 40.9367L17.0211 40.9366L17.6625 40.7851L18.2441 41.1021C20.4926 42.3297 23.039 42.9741 25.6078 42.9761H25.6091C34.1099 42.9761 41.0189 36.0671 41.0232 27.5702M25.6125 12.1511C17.1168 12.1511 10.2058 19.0603 10.2017 27.554L25.6125 12.1511ZM41.0232 27.5702L39.3174 27.5686L41.0232 27.5694C41.0232 27.5697 41.0232 27.57 41.0232 27.5702ZM19.65 21.3532C19.7342 21.3532 19.8141 21.3533 19.8899 21.3538C20.0634 21.757 20.2956 22.3239 20.5164 22.8665C20.5547 22.9606 20.5939 23.0571 20.6331 23.1537C20.7478 23.4362 20.8626 23.719 20.9553 23.9416C20.8085 24.1134 20.7115 24.2336 20.6368 24.3263C20.5481 24.4362 20.4907 24.5075 20.4181 24.5803C20.4145 24.584 20.4099 24.5884 20.4046 24.5935C20.3074 24.6877 19.9466 25.0372 19.7553 25.5468C19.6213 25.9039 19.5895 26.2599 19.6339 26.5984C19.5063 26.3975 19.3622 26.153 19.2221 25.8771C18.867 25.1778 18.6129 24.4214 18.6129 23.752C18.6129 23.0181 18.8009 22.5202 18.9943 22.1791C19.1726 21.8645 19.357 21.6672 19.5595 21.4504C19.5893 21.4185 19.6194 21.3863 19.65 21.3532ZM19.7418 21.0265C19.7418 21.0265 19.7421 21.027 19.7428 21.0281L19.7418 21.0265ZM20.3588 21.3657C20.3586 21.3657 20.354 21.3654 20.3457 21.3643C20.3549 21.365 20.3591 21.3656 20.3588 21.3657ZM28.0144 33.5773C28.7139 33.4851 29.1842 33.0919 29.4668 32.7698C29.621 32.5945 30.0629 32.0805 30.4498 31.5948C30.6778 31.7013 30.9434 31.8281 31.2138 31.9584C31.7375 32.2107 32.2622 32.4685 32.5369 32.6049C32.5053 32.7504 32.4614 32.9117 32.4018 33.0821C32.3933 33.0951 32.3619 33.142 32.2867 33.2191C32.1689 33.3399 31.9981 33.4782 31.789 33.6132C31.5821 33.7469 31.3699 33.8565 31.1889 33.9313C31.0235 33.9998 30.9422 34.0153 30.9424 34.0164C30.9424 34.0166 30.9436 34.0165 30.946 34.0163C30.8246 34.0275 30.7253 34.0389 30.6381 34.049C30.3569 34.0814 30.2001 34.0994 29.8287 34.0494C29.4595 33.9997 28.8989 33.8751 28.0144 33.5773Z" fill="#171416" stroke="#17BD8D" stroke-width="3.41176"/>
<g opacity="0.2">
<ellipse cx="2.11445" cy="1.32148" rx="1.14375" ry="1.14375" fill="#17BD8D"/>
<ellipse cx="7.45137" cy="1.32148" rx="1.14375" ry="1.14375" fill="#17BD8D"/>
<ellipse cx="12.7883" cy="1.32148" rx="1.14375" ry="1.14375" fill="#17BD8D"/>
<ellipse cx="18.1281" cy="1.32148" rx="1.14375" ry="1.14375" fill="#17BD8D"/>
<ellipse cx="23.465" cy="1.32148" rx="1.14375" ry="1.14375" fill="#17BD8D"/>
<ellipse cx="2.11445" cy="5.89766" rx="1.14375" ry="1.14375" fill="#17BD8D"/>
<ellipse cx="7.45137" cy="5.89766" rx="1.14375" ry="1.14375" fill="#17BD8D"/>
<ellipse cx="12.7883" cy="5.89766" rx="1.14375" ry="1.14375" fill="#17BD8D"/>
<ellipse cx="18.1281" cy="5.89766" rx="1.14375" ry="1.14375" fill="#17BD8D"/>
<ellipse cx="23.465" cy="5.89766" rx="1.14375" ry="1.14375" fill="#17BD8D"/>
<ellipse cx="2.11445" cy="10.4719" rx="1.14375" ry="1.14375" fill="#17BD8D"/>
<ellipse cx="7.45137" cy="10.4719" rx="1.14375" ry="1.14375" fill="#17BD8D"/>
<ellipse cx="12.7883" cy="10.4719" rx="1.14375" ry="1.14375" fill="#17BD8D"/>
<ellipse cx="18.1281" cy="10.4719" rx="1.14375" ry="1.14375" fill="#17BD8D"/>
<circle cx="23.465" cy="10.4719" r="1.14375" fill="#17BD8D"/>
<circle cx="2.11445" cy="15.0461" r="1.14375" fill="#17BD8D"/>
<circle cx="7.45137" cy="15.0461" r="1.14375" fill="#17BD8D"/>
<ellipse cx="12.7883" cy="15.0461" rx="1.14375" ry="1.14375" fill="#17BD8D"/>
<ellipse cx="18.1281" cy="15.0461" rx="1.14375" ry="1.14375" fill="#17BD8D"/>
<ellipse cx="2.11445" cy="19.6203" rx="1.14375" ry="1.14375" fill="#17BD8D"/>
<ellipse cx="7.45137" cy="19.6203" rx="1.14375" ry="1.14375" fill="#17BD8D"/>
<ellipse cx="12.7883" cy="19.6203" rx="1.14375" ry="1.14375" fill="#17BD8D"/>
<circle cx="2.11445" cy="24.1965" r="1.14375" fill="#17BD8D"/>
<circle cx="7.45137" cy="24.1965" r="1.14375" fill="#17BD8D"/>
<ellipse cx="18.1281" cy="24.1965" rx="1.14375" ry="1.14375" fill="#17BD8D"/>
</g>
</svg>
