<svg width="64" height="64" viewBox="0 0 64 64" fill="none" xmlns="http://www.w3.org/2000/svg">
<circle cx="32" cy="32" r="32" fill="#FFF3EE"/>
<path d="M40.4998 25.1435C40.4148 25.1293 40.3156 25.1293 40.2306 25.1435C38.2756 25.0727 36.7173 23.4718 36.7173 21.4885C36.7173 19.4627 38.3464 17.8335 40.3723 17.8335C42.3981 17.8335 44.0273 19.4768 44.0273 21.4885C44.0131 23.4718 42.4548 25.0727 40.4998 25.1435Z" stroke="#EC601D" stroke-width="2.5" stroke-linecap="round" stroke-linejoin="round"/>
<path d="M39.0406 35.4571C40.9814 35.7829 43.1206 35.4429 44.6222 34.4371C46.6197 33.1054 46.6197 30.9237 44.6222 29.5921C43.1064 28.5862 40.9389 28.2462 38.998 28.5862" stroke="#EC601D" stroke-width="2.5" stroke-linecap="round" stroke-linejoin="round"/>
<path d="M23.4577 25.1435C23.5427 25.1293 23.6418 25.1293 23.7268 25.1435C25.6818 25.0727 27.2402 23.4718 27.2402 21.4885C27.2402 19.4627 25.611 17.8335 23.5852 17.8335C21.5593 17.8335 19.9302 19.4768 19.9302 21.4885C19.9443 23.4718 21.5027 25.0727 23.4577 25.1435Z" stroke="#EC601D" stroke-width="2.5" stroke-linecap="round" stroke-linejoin="round"/>
<path d="M24.9167 35.4571C22.9759 35.7829 20.8367 35.4429 19.335 34.4371C17.3375 33.1054 17.3375 30.9237 19.335 29.5921C20.8509 28.5862 23.0184 28.2462 24.9592 28.5862" stroke="#EC601D" stroke-width="2.5" stroke-linecap="round" stroke-linejoin="round"/>
<path d="M31.9998 35.726C31.9148 35.7119 31.8156 35.7119 31.7306 35.726C29.7756 35.6552 28.2173 34.0544 28.2173 32.071C28.2173 30.0452 29.8464 28.416 31.8723 28.416C33.8981 28.416 35.5273 30.0594 35.5273 32.071C35.5131 34.0544 33.9548 35.6694 31.9998 35.726Z" stroke="#EC601D" stroke-width="2.5" stroke-linecap="round" stroke-linejoin="round"/>
<path d="M27.8775 40.1887C25.88 41.5204 25.88 43.7021 27.8775 45.0337C30.1442 46.5496 33.8559 46.5496 36.1225 45.0337C38.12 43.7021 38.12 41.5204 36.1225 40.1887C33.87 38.6871 30.1442 38.6871 27.8775 40.1887Z" stroke="#EC601D" stroke-width="2.5" stroke-linecap="round" stroke-linejoin="round"/>
</svg>
