<svg width="64" height="64" viewBox="0 0 64 64" fill="none" xmlns="http://www.w3.org/2000/svg">
<circle cx="32" cy="32" r="32" fill="#FFF3EE"/>
<mask id="path-2-inside-1_8230_1128" fill="white">
<path d="M48.5862 20.8729C48.3253 20.6851 47.9858 20.6209 47.6671 20.6992L40.8223 22.3809C40.2677 22.5172 39.929 23.0398 40.0571 23.5616L40.4728 25.2563L39.9947 25.4506C39.4853 25.6573 38.9715 25.629 38.4676 25.3663C37.8651 25.0519 37.3289 24.7583 36.8558 24.4993C34.6104 23.2695 33.2551 22.5271 31.2311 23.2337C30.6949 23.4208 30.1742 23.7652 29.6476 24.215H23.7827L23.9429 23.5617C24.071 23.0399 23.7323 22.5173 23.1777 22.3811L16.3329 20.6992C16.0142 20.6209 15.6748 20.685 15.4138 20.8728C15.1528 21.0606 15 21.3509 15 21.6585V36.2996C15 36.8474 15.4757 37.2915 16.0625 37.2915H19.7279C20.2185 37.2915 20.6443 36.9778 20.7598 36.5337C23.3175 39.0852 25.803 41.3387 27.487 42.6214C28.0008 43.0809 28.6747 43.3332 29.3918 43.3332C30.129 43.3331 30.8214 43.0662 31.3403 42.5816C31.4921 42.4399 31.6241 42.2843 31.7346 42.1179L32.0853 42.4452C32.6042 42.9298 33.2961 43.1968 34.0334 43.1967C34.7707 43.1967 35.463 42.9297 35.982 42.4452C36.1596 42.2795 36.3098 42.0948 36.4306 41.8962C36.8365 42.1082 37.2966 42.221 37.7759 42.221C38.5133 42.2209 39.2055 41.954 39.7246 41.4694C40.2189 41.0079 40.5017 40.4 40.5276 39.7484C41.052 39.649 41.5334 39.4091 41.9193 39.0488C42.4383 38.5644 42.7242 37.9184 42.7242 37.2302C42.7242 37.121 42.7162 37.013 42.7021 36.9065L43.2855 36.666C43.4441 37.0387 43.8319 37.2915 44.2722 37.2915H47.9375C48.5243 37.2915 49 36.8474 49 36.2996V21.6585C49 21.3509 48.8471 21.0607 48.5862 20.8729ZM31.9753 25.0917C33.0094 24.7308 33.6178 25.0257 35.7806 26.2102C36.2626 26.4743 36.809 26.7735 37.4312 27.0981C38.5135 27.6624 39.725 27.7234 40.8425 27.2697L40.9555 27.2237L42.7902 34.7017L41.6587 35.1679L38.6802 32.3874L35.7017 29.6068C34.3742 28.3674 32.2905 28.1921 30.747 29.1899C28.7353 30.4905 27.6399 30.8159 26.6783 30.2302C27.5463 29.4361 28.3534 28.5439 29.087 27.7329C30.1483 26.5596 31.2457 25.3464 31.9753 25.0917ZM17.125 35.3077V22.9452L21.6419 24.0549L18.8812 35.3077H17.125ZM40.4167 37.6461C40.1753 37.8716 39.7664 37.8706 39.5253 37.6462L34.7347 33.1737C34.3198 32.7864 33.6471 32.7862 33.2322 33.1737C32.8172 33.561 32.8172 34.1891 33.2322 34.5764L38.2221 39.2346C38.4606 39.4573 38.464 39.8407 38.2221 40.0667C37.9867 40.2865 37.5646 40.2854 37.3306 40.0668L32.1772 35.2556C31.7623 34.8683 31.0896 34.8682 30.6746 35.2556C30.2596 35.643 30.2596 36.271 30.6746 36.6584L34.493 40.2232C34.7286 40.4431 34.7103 40.8269 34.4795 41.0423C34.2386 41.2672 33.8288 41.2673 33.5881 41.0425L28.8122 36.5838C28.3973 36.1964 27.7246 36.1965 27.3097 36.5838C26.8947 36.9712 26.8947 37.5992 27.3097 37.9866L29.8478 40.3562C30.0848 40.5774 30.0712 40.961 29.8379 41.1788C29.5969 41.4037 29.1872 41.4038 28.9465 41.179C28.9207 41.1549 24.1829 37.0997 21.335 34.1926L23.2962 26.1986H27.6939C27.6177 26.2826 27.541 26.3674 27.4637 26.4529C26.4988 27.5196 25.5011 28.6226 24.4359 29.4565C23.9874 29.8076 23.9275 30.4312 24.302 30.8512C25.3837 32.0641 26.5419 32.4838 27.6471 32.4837C29.3845 32.4835 30.9902 31.4457 31.957 30.8208C32.6668 30.362 33.5888 30.4396 34.1993 31.0095C34.1993 31.0095 40.4107 36.8082 40.4169 36.8139C40.6578 37.0391 40.6573 37.4214 40.4167 37.6461ZM46.875 35.3077H45.1188L42.7454 25.6336L42.745 25.6319L42.3581 24.055L46.875 22.9452V35.3077Z"/>
</mask>
<path d="M48.5862 20.8729C48.3253 20.6851 47.9858 20.6209 47.6671 20.6992L40.8223 22.3809C40.2677 22.5172 39.929 23.0398 40.0571 23.5616L40.4728 25.2563L39.9947 25.4506C39.4853 25.6573 38.9715 25.629 38.4676 25.3663C37.8651 25.0519 37.3289 24.7583 36.8558 24.4993C34.6104 23.2695 33.2551 22.5271 31.2311 23.2337C30.6949 23.4208 30.1742 23.7652 29.6476 24.215H23.7827L23.9429 23.5617C24.071 23.0399 23.7323 22.5173 23.1777 22.3811L16.3329 20.6992C16.0142 20.6209 15.6748 20.685 15.4138 20.8728C15.1528 21.0606 15 21.3509 15 21.6585V36.2996C15 36.8474 15.4757 37.2915 16.0625 37.2915H19.7279C20.2185 37.2915 20.6443 36.9778 20.7598 36.5337C23.3175 39.0852 25.803 41.3387 27.487 42.6214C28.0008 43.0809 28.6747 43.3332 29.3918 43.3332C30.129 43.3331 30.8214 43.0662 31.3403 42.5816C31.4921 42.4399 31.6241 42.2843 31.7346 42.1179L32.0853 42.4452C32.6042 42.9298 33.2961 43.1968 34.0334 43.1967C34.7707 43.1967 35.463 42.9297 35.982 42.4452C36.1596 42.2795 36.3098 42.0948 36.4306 41.8962C36.8365 42.1082 37.2966 42.221 37.7759 42.221C38.5133 42.2209 39.2055 41.954 39.7246 41.4694C40.2189 41.0079 40.5017 40.4 40.5276 39.7484C41.052 39.649 41.5334 39.4091 41.9193 39.0488C42.4383 38.5644 42.7242 37.9184 42.7242 37.2302C42.7242 37.121 42.7162 37.013 42.7021 36.9065L43.2855 36.666C43.4441 37.0387 43.8319 37.2915 44.2722 37.2915H47.9375C48.5243 37.2915 49 36.8474 49 36.2996V21.6585C49 21.3509 48.8471 21.0607 48.5862 20.8729ZM31.9753 25.0917C33.0094 24.7308 33.6178 25.0257 35.7806 26.2102C36.2626 26.4743 36.809 26.7735 37.4312 27.0981C38.5135 27.6624 39.725 27.7234 40.8425 27.2697L40.9555 27.2237L42.7902 34.7017L41.6587 35.1679L38.6802 32.3874L35.7017 29.6068C34.3742 28.3674 32.2905 28.1921 30.747 29.1899C28.7353 30.4905 27.6399 30.8159 26.6783 30.2302C27.5463 29.4361 28.3534 28.5439 29.087 27.7329C30.1483 26.5596 31.2457 25.3464 31.9753 25.0917ZM17.125 35.3077V22.9452L21.6419 24.0549L18.8812 35.3077H17.125ZM40.4167 37.6461C40.1753 37.8716 39.7664 37.8706 39.5253 37.6462L34.7347 33.1737C34.3198 32.7864 33.6471 32.7862 33.2322 33.1737C32.8172 33.561 32.8172 34.1891 33.2322 34.5764L38.2221 39.2346C38.4606 39.4573 38.464 39.8407 38.2221 40.0667C37.9867 40.2865 37.5646 40.2854 37.3306 40.0668L32.1772 35.2556C31.7623 34.8683 31.0896 34.8682 30.6746 35.2556C30.2596 35.643 30.2596 36.271 30.6746 36.6584L34.493 40.2232C34.7286 40.4431 34.7103 40.8269 34.4795 41.0423C34.2386 41.2672 33.8288 41.2673 33.5881 41.0425L28.8122 36.5838C28.3973 36.1964 27.7246 36.1965 27.3097 36.5838C26.8947 36.9712 26.8947 37.5992 27.3097 37.9866L29.8478 40.3562C30.0848 40.5774 30.0712 40.961 29.8379 41.1788C29.5969 41.4037 29.1872 41.4038 28.9465 41.179C28.9207 41.1549 24.1829 37.0997 21.335 34.1926L23.2962 26.1986H27.6939C27.6177 26.2826 27.541 26.3674 27.4637 26.4529C26.4988 27.5196 25.5011 28.6226 24.4359 29.4565C23.9874 29.8076 23.9275 30.4312 24.302 30.8512C25.3837 32.0641 26.5419 32.4838 27.6471 32.4837C29.3845 32.4835 30.9902 31.4457 31.957 30.8208C32.6668 30.362 33.5888 30.4396 34.1993 31.0095C34.1993 31.0095 40.4107 36.8082 40.4169 36.8139C40.6578 37.0391 40.6573 37.4214 40.4167 37.6461ZM46.875 35.3077H45.1188L42.7454 25.6336L42.745 25.6319L42.3581 24.055L46.875 22.9452V35.3077Z" fill="#373536"/>
<path d="M47.6671 20.6992L48.2636 23.127L48.2639 23.127L47.6671 20.6992ZM40.8223 22.3809L41.4188 24.8088L41.4188 24.8087L40.8223 22.3809ZM40.0571 23.5616L42.4851 22.966L42.4851 22.9659L40.0571 23.5616ZM40.4728 25.2563L41.4137 27.5725L43.4157 26.7593L42.9008 24.6607L40.4728 25.2563ZM39.9947 25.4506L40.9349 27.767L40.9356 27.7668L39.9947 25.4506ZM38.4676 25.3663L37.3113 27.5828L37.3117 27.583L38.4676 25.3663ZM36.8558 24.4993L35.6549 26.692L35.6552 26.6921L36.8558 24.4993ZM31.2311 23.2337L32.055 25.594L32.0552 25.594L31.2311 23.2337ZM29.6476 24.215V26.715H30.57L31.2714 26.1159L29.6476 24.215ZM23.7827 24.215L21.3547 23.6194L20.5953 26.715H23.7827V24.215ZM23.9429 23.5617L21.5149 22.9661L21.5149 22.9661L23.9429 23.5617ZM23.1777 22.3811L22.5811 24.8089L22.5812 24.8089L23.1777 22.3811ZM16.3329 20.6992L16.9295 18.2714L16.9294 18.2714L16.3329 20.6992ZM20.7598 36.5337L22.5254 34.7638L19.4384 31.6843L18.3404 35.9041L20.7598 36.5337ZM27.487 42.6214L29.1535 40.7579L29.0801 40.6922L29.0018 40.6326L27.487 42.6214ZM29.3918 43.3332L29.3918 45.8332L29.392 45.8332L29.3918 43.3332ZM31.3403 42.5816L29.6343 40.7542L29.6342 40.7543L31.3403 42.5816ZM31.7346 42.1179L33.4406 40.2905L31.2847 38.2778L29.6524 40.7343L31.7346 42.1179ZM32.0853 42.4452L33.7915 40.618L33.7913 40.6178L32.0853 42.4452ZM34.0334 43.1967L34.0336 45.6967L34.0334 43.1967ZM35.982 42.4452L37.6881 44.2726L35.982 42.4452ZM36.4306 41.8962L37.5884 39.6804L35.5117 38.5952L34.2944 40.5975L36.4306 41.8962ZM37.7759 42.221L37.7759 44.721L37.7762 44.721L37.7759 42.221ZM39.7246 41.4694L41.4305 43.297L41.4307 43.2968L39.7246 41.4694ZM40.5276 39.7484L40.0619 37.2922L38.1083 37.6626L38.0295 39.6494L40.5276 39.7484ZM41.9193 39.0488L40.2134 37.2213L40.2133 37.2214L41.9193 39.0488ZM42.7021 36.9065L41.7496 34.595L39.9707 35.328L40.2238 37.2354L42.7021 36.9065ZM43.2855 36.666L45.5859 35.6871L44.6182 33.413L42.3331 34.3546L43.2855 36.666ZM31.9753 25.0917L32.7992 27.4521L32.7992 27.4521L31.9753 25.0917ZM35.7806 26.2102L36.9816 24.0176L36.9815 24.0176L35.7806 26.2102ZM37.4312 27.0981L36.2749 29.3146L36.2753 29.3148L37.4312 27.0981ZM40.8425 27.2697L41.783 29.586L41.7833 29.5858L40.8425 27.2697ZM40.9555 27.2237L43.3835 26.628L42.6944 23.819L40.0147 24.9075L40.9555 27.2237ZM42.7902 34.7017L43.7426 37.0132L45.7304 36.1941L45.2182 34.106L42.7902 34.7017ZM41.6587 35.1679L39.9527 36.9954L41.1265 38.0911L42.6111 37.4794L41.6587 35.1679ZM35.7017 29.6068L33.9957 31.4342L33.9957 31.4343L35.7017 29.6068ZM30.747 29.1899L29.3898 27.0904L29.3897 27.0904L30.747 29.1899ZM26.6783 30.2302L24.9909 28.3857L22.5341 30.6332L25.3778 32.3653L26.6783 30.2302ZM29.087 27.7329L27.233 26.0558L27.2328 26.0559L29.087 27.7329ZM17.125 35.3077H14.625V37.8077H17.125V35.3077ZM17.125 22.9452L17.7215 20.5174L14.625 19.7566V22.9452H17.125ZM21.6419 24.0549L24.0699 24.6506L24.6654 22.2234L22.2384 21.6271L21.6419 24.0549ZM18.8812 35.3077V37.8077H20.842L21.3092 35.9034L18.8812 35.3077ZM40.4167 37.6461L42.123 39.4733L42.1232 39.4731L40.4167 37.6461ZM39.5253 37.6462L37.8192 39.4736L37.822 39.4762L39.5253 37.6462ZM34.7347 33.1737L36.4408 31.3463L36.4406 31.3461L34.7347 33.1737ZM33.2322 33.1737L34.938 35.0013L34.9385 35.0009L33.2322 33.1737ZM33.2322 34.5764L34.9381 32.749L34.938 32.7489L33.2322 34.5764ZM38.2221 39.2346L39.9281 37.4072L39.9281 37.4072L38.2221 39.2346ZM38.2221 40.0667L39.9283 41.8939L39.9286 41.8936L38.2221 40.0667ZM37.3306 40.0668L39.0368 38.2396L39.0366 38.2394L37.3306 40.0668ZM32.1772 35.2556L33.8832 33.4282L33.8832 33.4282L32.1772 35.2556ZM30.6746 35.2556L32.3805 37.0832L32.3808 37.0829L30.6746 35.2556ZM30.6746 36.6584L32.3807 34.831L32.3805 34.8308L30.6746 36.6584ZM34.493 40.2232L32.7869 42.0506L32.7869 42.0506L34.493 40.2232ZM34.4795 41.0423L32.7735 39.2149L34.4795 41.0423ZM33.5881 41.0425L35.2946 39.2155L35.2941 39.2151L33.5881 41.0425ZM28.8122 36.5838L27.1061 38.4111L27.1062 38.4113L28.8122 36.5838ZM27.3097 36.5838L25.6038 34.7563L25.6036 34.7564L27.3097 36.5838ZM27.3097 37.9866L29.0157 36.1592L29.0155 36.159L27.3097 37.9866ZM29.8478 40.3562L28.1418 42.1836L28.1418 42.1836L29.8478 40.3562ZM29.8379 41.1788L31.5439 43.0062L29.8379 41.1788ZM28.9465 41.179L30.6528 39.3518L30.6525 39.3516L28.9465 41.179ZM21.335 34.1926L18.907 33.5969L18.5754 34.9481L19.5491 35.942L21.335 34.1926ZM23.2962 26.1986V23.6986H21.3354L20.8682 25.6029L23.2962 26.1986ZM27.6939 26.1986L29.5465 27.8772L33.3327 23.6986H27.6939V26.1986ZM27.4637 26.4529L25.61 24.7754L25.6096 24.7758L27.4637 26.4529ZM24.4359 29.4565L22.8948 27.4879L22.8947 27.488L24.4359 29.4565ZM24.302 30.8512L22.4361 32.515L22.4362 32.5151L24.302 30.8512ZM27.6471 32.4837L27.6468 29.9837L27.6468 29.9837L27.6471 32.4837ZM31.957 30.8208L30.5998 28.7212L30.5997 28.7213L31.957 30.8208ZM34.1993 31.0095L35.9053 29.1821L35.9052 29.182L34.1993 31.0095ZM40.4169 36.8139L42.1239 34.9874L42.1229 34.9865L40.4169 36.8139ZM46.875 35.3077V37.8077H49.375V35.3077H46.875ZM45.1188 35.3077L42.6908 35.9034L43.158 37.8077H45.1188V35.3077ZM42.7454 25.6336L40.3128 26.2103L40.3151 26.2198L40.3174 26.2293L42.7454 25.6336ZM42.745 25.6319L45.1776 25.0552L45.1753 25.0457L45.173 25.0362L42.745 25.6319ZM42.3581 24.055L41.7616 21.6272L39.3346 22.2235L39.9301 24.6506L42.3581 24.055ZM46.875 22.9452H49.375V19.7565L46.2785 20.5174L46.875 22.9452ZM50.0466 18.8438C49.1778 18.2185 48.0836 18.0224 47.0703 18.2715L48.2639 23.127C47.8881 23.2193 47.4728 23.1517 47.1259 22.902L50.0466 18.8438ZM47.0706 18.2714L40.2258 19.9532L41.4188 24.8087L48.2636 23.127L47.0706 18.2714ZM40.2259 19.9531C38.4721 20.384 37.1385 22.1577 37.6291 24.1573L42.4851 22.9659C42.7196 23.9218 42.0634 24.6504 41.4188 24.8088L40.2259 19.9531ZM37.6291 24.1573L38.0448 25.852L42.9008 24.6607L42.4851 22.966L37.6291 24.1573ZM39.5319 22.9402L39.0538 23.1344L40.9356 27.7668L41.4137 27.5725L39.5319 22.9402ZM39.0545 23.1341C39.1164 23.109 39.2277 23.0806 39.3668 23.0883C39.5038 23.0958 39.5941 23.1342 39.6234 23.1495L37.3117 27.583C38.4409 28.1718 39.7204 28.26 40.9349 27.767L39.0545 23.1341ZM39.6239 23.1497C39.0466 22.8486 38.5311 22.5663 38.0564 22.3064L35.6552 26.6921C36.1267 26.9503 36.6836 27.2553 37.3113 27.5828L39.6239 23.1497ZM38.0567 22.3066C35.9584 21.1574 33.6247 19.7501 30.4071 20.8734L32.0552 25.594C32.5646 25.4161 32.8796 25.4308 33.2693 25.5429C33.8189 25.701 34.4544 26.0345 35.6549 26.692L38.0567 22.3066ZM30.4073 20.8733C29.4618 21.2033 28.6696 21.7625 28.0239 22.3141L31.2714 26.1159C31.6787 25.7679 31.928 25.6383 32.055 25.594L30.4073 20.8733ZM29.6476 21.715H23.7827V26.715H29.6476V21.715ZM26.2107 24.8106L26.3709 24.1573L21.5149 22.9661L21.3547 23.6194L26.2107 24.8106ZM26.3709 24.1574C26.8615 22.1578 25.5279 20.3842 23.7741 19.9533L22.5812 24.8089C21.9366 24.6505 21.2804 23.922 21.5149 22.9661L26.3709 24.1574ZM23.7742 19.9533L16.9295 18.2714L15.7364 23.127L22.5811 24.8089L23.7742 19.9533ZM16.9294 18.2714C15.9166 18.0225 14.8226 18.2183 13.9537 18.8435L16.8739 22.9021C16.527 23.1518 16.1119 23.2192 15.7364 23.127L16.9294 18.2714ZM13.9537 18.8435C13.0741 19.4764 12.5 20.5052 12.5 21.6585H17.5C17.5 22.1965 17.2315 22.6448 16.8739 22.9021L13.9537 18.8435ZM12.5 21.6585V36.2996H17.5V21.6585H12.5ZM12.5 36.2996C12.5 38.3872 14.2597 39.7915 16.0625 39.7915V34.7915C16.6918 34.7915 17.5 35.3075 17.5 36.2996H12.5ZM16.0625 39.7915H19.7279V34.7915H16.0625V39.7915ZM19.7279 39.7915C21.2532 39.7915 22.7518 38.806 23.1792 37.1632L18.3404 35.9041C18.5367 35.1495 19.1839 34.7915 19.7279 34.7915V39.7915ZM18.9942 38.3036C21.5815 40.8846 24.158 43.2283 25.9721 44.6101L29.0018 40.6326C27.4481 39.4491 25.0535 37.2857 22.5254 34.7638L18.9942 38.3036ZM25.8204 44.4848C26.8112 45.371 28.0853 45.8332 29.3918 45.8332V40.8332C29.2641 40.8332 29.1904 40.7909 29.1535 40.7579L25.8204 44.4848ZM29.392 45.8332C30.7354 45.8331 32.0451 45.3439 33.0464 44.4089L29.6342 40.7543C29.5976 40.7884 29.5227 40.8332 29.3916 40.8332L29.392 45.8332ZM33.0463 44.4091C33.3374 44.1374 33.5963 43.8334 33.8168 43.5015L29.6524 40.7343C29.6518 40.7352 29.6469 40.7424 29.6343 40.7542L33.0463 44.4091ZM30.0286 43.9453L30.3793 44.2727L33.7913 40.6178L33.4406 40.2905L30.0286 43.9453ZM30.379 44.2724C31.3801 45.2073 32.6894 45.6968 34.0336 45.6967L34.0332 40.6967C33.9027 40.6967 33.8283 40.6524 33.7915 40.618L30.379 44.2724ZM34.0336 45.6967C35.3771 45.6966 36.6867 45.2074 37.6881 44.2726L34.276 40.6177C34.2393 40.652 34.1643 40.6967 34.0332 40.6967L34.0336 45.6967ZM37.6881 44.2726C38.0285 43.9548 38.3247 43.5932 38.5668 43.1949L34.2944 40.5975C34.295 40.5965 34.2906 40.6041 34.276 40.6177L37.6881 44.2726ZM35.2728 44.1119C36.045 44.5154 36.9036 44.721 37.7759 44.721V39.721C37.6896 39.721 37.628 39.7011 37.5884 39.6804L35.2728 44.1119ZM37.7762 44.721C39.1198 44.7209 40.4292 44.2316 41.4305 43.297L38.0187 39.6419C37.9818 39.6764 37.9068 39.721 37.7757 39.721L37.7762 44.721ZM41.4307 43.2968C42.3887 42.4023 42.9727 41.1806 43.0256 39.8475L38.0295 39.6494C38.0296 39.6469 38.0301 39.6424 38.0314 39.6369C38.0328 39.6315 38.0345 39.6269 38.0359 39.6238C38.0374 39.6207 38.0378 39.6206 38.0359 39.6233C38.0339 39.6259 38.0287 39.6325 38.0184 39.6421L41.4307 43.2968ZM40.9933 42.2047C41.9676 42.02 42.8829 41.5693 43.6253 40.8763L40.2133 37.2214C40.1839 37.2489 40.1365 37.278 40.0619 37.2922L40.9933 42.2047ZM43.6252 40.8764C44.6326 39.936 45.2242 38.6358 45.2242 37.2302H40.2242C40.2242 37.2288 40.2244 37.2246 40.2256 37.2188C40.2269 37.213 40.2286 37.2079 40.2303 37.2041C40.232 37.2004 40.2327 37.1997 40.231 37.2021C40.2293 37.2045 40.2241 37.2113 40.2134 37.2213L43.6252 40.8764ZM45.2242 37.2302C45.2242 36.9994 45.2074 36.781 45.1804 36.5775L40.2238 37.2354C40.2251 37.2451 40.2242 37.2427 40.2242 37.2302H45.2242ZM43.6545 39.2179L44.238 38.9775L42.3331 34.3546L41.7496 34.595L43.6545 39.2179ZM40.9852 37.645C41.5604 38.9968 42.8928 39.7915 44.2722 39.7915V34.7915C44.7711 34.7915 45.3278 35.0806 45.5859 35.6871L40.9852 37.645ZM44.2722 39.7915H47.9375V34.7915H44.2722V39.7915ZM47.9375 39.7915C49.7403 39.7915 51.5 38.3872 51.5 36.2996H46.5C46.5 35.3075 47.3082 34.7915 47.9375 34.7915V39.7915ZM51.5 36.2996V21.6585H46.5V36.2996H51.5ZM51.5 21.6585C51.5 20.5047 50.9255 19.4763 50.0466 18.8438L47.1259 22.902C46.7688 22.645 46.5 22.197 46.5 21.6585H51.5ZM32.7992 27.4521C32.8809 27.4235 32.8458 27.4453 32.7507 27.4472C32.6536 27.4491 32.6165 27.4281 32.6922 27.4523C32.7894 27.4835 32.9688 27.5551 33.3014 27.7213C33.6302 27.8856 34.0338 28.104 34.5797 28.4029L36.9815 24.0176C35.9819 23.4701 35.0496 22.9571 34.2172 22.6905C33.1268 22.3414 32.1591 22.3796 31.1514 22.7314L32.7992 27.4521ZM34.5796 28.4029C35.0607 28.6664 35.6276 28.9769 36.2749 29.3146L38.5874 24.8815C37.9905 24.5701 37.4645 24.2821 36.9816 24.0176L34.5796 28.4029ZM36.2753 29.3148C37.9989 30.2136 39.9765 30.3195 41.783 29.586L39.902 24.9533C39.4735 25.1273 39.0282 25.1113 38.5871 24.8813L36.2753 29.3148ZM41.7833 29.5858L41.8964 29.5399L40.0147 24.9075L39.9016 24.9535L41.7833 29.5858ZM38.5275 27.8194L40.3622 35.2974L45.2182 34.106L43.3835 26.628L38.5275 27.8194ZM41.8377 32.3902L40.7063 32.8564L42.6111 37.4794L43.7426 37.0132L41.8377 32.3902ZM37.4078 27.7794C35.228 25.7444 31.8794 25.4809 29.3898 27.0904L32.1043 31.2894C32.7016 30.9033 33.5204 30.9905 33.9957 31.4342L37.4078 27.7794ZM29.3897 27.0904C28.9283 27.3888 28.5604 27.6043 28.2623 27.7563C27.9612 27.9098 27.7769 27.9748 27.6797 28.0005C27.5919 28.0238 27.6224 28.0023 27.7275 28.0146C27.8449 28.0284 27.9376 28.07 27.9789 28.0951L25.3778 32.3653C26.5229 33.0628 27.7549 33.1525 28.9581 32.8343C30.0071 32.5569 31.0611 31.9638 32.1043 31.2894L29.3897 27.0904ZM28.3658 32.0748C29.3354 31.1877 30.2203 30.2068 30.9411 29.4099L27.2328 26.0559C26.4866 26.881 25.7572 27.6846 24.9909 28.3857L28.3658 32.0748ZM30.9409 29.41C31.4869 28.8065 31.9672 28.2771 32.3934 27.865C32.6034 27.6619 32.7619 27.5252 32.8731 27.4411C33.0069 27.34 32.972 27.3918 32.7992 27.4521L31.1514 22.7314C30.205 23.0618 29.3927 23.8112 28.9176 24.2707C28.3474 24.8222 27.7483 25.4861 27.233 26.0558L30.9409 29.41ZM19.625 35.3077V22.9452H14.625V35.3077H19.625ZM16.5285 25.373L21.0454 26.4827L22.2384 21.6271L17.7215 20.5174L16.5285 25.373ZM19.2139 23.4592L16.4532 34.712L21.3092 35.9034L24.0699 24.6506L19.2139 23.4592ZM18.8812 32.8077H17.125V37.8077H18.8812V32.8077ZM38.7105 35.8189C39.1072 35.4485 39.579 35.3146 39.9724 35.3149C40.3653 35.3151 40.834 35.449 41.2285 35.8162L37.822 39.4762C39.0193 40.5906 40.9172 40.5993 42.123 39.4733L38.7105 35.8189ZM41.2314 35.8189L36.4408 31.3463L33.0287 35.0011L37.8192 39.4736L41.2314 35.8189ZM36.4406 31.3461C35.0655 30.0626 32.9019 30.0616 31.5259 31.3465L34.9385 35.0009C34.3923 35.5109 33.574 35.5101 33.0289 35.0013L36.4406 31.3461ZM31.5263 31.3461C30.0525 32.7218 30.0525 35.0283 31.5263 36.404L34.938 32.7489C35.5819 33.3498 35.5819 34.4003 34.938 35.0013L31.5263 31.3461ZM31.5262 36.4039L36.5162 41.0621L39.9281 37.4072L34.9381 32.749L31.5262 36.4039ZM36.5161 41.0621C35.7054 40.3052 35.6901 39.0108 36.5156 38.2397L39.9286 41.8936C41.2379 40.6706 41.2158 38.6093 39.9281 37.4072L36.5161 41.0621ZM36.5158 38.2395C36.9385 37.8447 37.4216 37.7309 37.7775 37.7312C38.1325 37.7314 38.6145 37.8452 39.0368 38.2396L35.6243 41.894C36.2807 42.507 37.0907 42.7307 37.7742 42.7312C38.4584 42.7316 39.2702 42.5084 39.9283 41.8939L36.5158 38.2395ZM39.0366 38.2394L33.8832 33.4282L30.4711 37.083L35.6245 41.8942L39.0366 38.2394ZM33.8832 33.4282C32.508 32.1444 30.3443 32.1437 28.9684 33.4283L32.3808 37.0829C31.8348 37.5926 31.0166 37.5922 30.4712 37.0831L33.8832 33.4282ZM28.9687 33.4281C27.4949 34.8037 27.4949 37.1103 28.9687 38.4859L32.3805 34.8308C33.0243 35.4318 33.0243 36.4822 32.3805 37.0832L28.9687 33.4281ZM28.9685 38.4858L32.7869 42.0506L36.199 38.3958L32.3807 34.831L28.9685 38.4858ZM32.7869 42.0506C31.8711 41.1956 32.0408 39.8989 32.7735 39.2149L36.1856 42.8697C37.3798 41.7548 37.5861 39.6907 36.199 38.3958L32.7869 42.0506ZM32.7735 39.2149C33.1706 38.8442 33.6418 38.7111 34.0332 38.711C34.4246 38.711 34.8967 38.8438 35.2946 39.2155L31.8816 42.8695C33.0839 43.9925 34.985 43.9906 36.1856 42.8697L32.7735 39.2149ZM35.2941 39.2151L30.5183 34.7564L27.1062 38.4113L31.8821 42.8699L35.2941 39.2151ZM30.5184 34.7565C29.1426 33.472 26.9791 33.4726 25.6038 34.7563L29.0155 38.4114C28.4702 38.9204 27.652 38.9209 27.1061 38.4111L30.5184 34.7565ZM25.6036 34.7564C24.1301 36.132 24.1299 38.4384 25.6038 39.8142L29.0155 36.159C29.6595 36.7601 29.6593 37.8105 29.0157 38.4113L25.6036 34.7564ZM25.6036 39.814L28.1418 42.1836L31.5539 38.5287L29.0157 36.1592L25.6036 39.814ZM28.1418 42.1836C27.251 41.3519 27.3769 40.0561 28.1319 39.3513L31.5439 43.0062C32.7654 41.8658 32.9186 39.8028 31.5539 38.5287L28.1418 42.1836ZM28.1319 39.3513C28.5286 38.9809 28.9997 38.8476 29.3915 38.8475C29.7833 38.8475 30.2551 38.9805 30.6528 39.3518L27.2402 43.0062C28.4425 44.1289 30.3432 44.1271 31.5439 43.0062L28.1319 39.3513ZM30.6525 39.3516C30.4423 39.1553 25.9408 35.3217 23.1208 32.4431L19.5491 35.942C22.4249 38.8777 27.399 43.1544 27.2405 43.0064L30.6525 39.3516ZM23.763 34.7882L25.7242 26.7943L20.8682 25.6029L18.907 33.5969L23.763 34.7882ZM23.2962 28.6986H27.6939V23.6986H23.2962V28.6986ZM25.8413 24.52C25.7645 24.6047 25.6874 24.6899 25.61 24.7754L29.3173 28.1304C29.3947 28.0449 29.4709 27.9606 29.5465 27.8772L25.8413 24.52ZM25.6096 24.7758C24.6113 25.8795 23.7595 26.8111 22.8948 27.4879L25.9769 31.425C27.2427 30.4341 28.3863 29.1597 29.3177 28.1299L25.6096 24.7758ZM22.8947 27.488C21.3346 28.7094 21.0798 30.994 22.4361 32.515L26.1679 29.1873C26.7752 29.8684 26.6401 30.9058 25.977 31.425L22.8947 27.488ZM22.4362 32.5151C23.9766 34.2424 25.8061 34.9839 27.6474 34.9837L27.6468 29.9837C27.4201 29.9837 27.212 29.9429 27.0025 29.8474C26.7907 29.7509 26.5051 29.5654 26.1678 29.1872L22.4362 32.5151ZM27.6473 34.9837C30.2382 34.9834 32.4527 33.4772 33.3142 32.9203L30.5997 28.7213C30.1077 29.0394 29.6054 29.36 29.0528 29.6123C28.4988 29.8652 28.0299 29.9837 27.6468 29.9837L27.6473 34.9837ZM33.3141 32.9203C33.0776 33.0732 32.735 33.0625 32.4934 32.837L35.9052 29.182C34.4427 27.8167 32.2559 27.6507 30.5998 28.7212L33.3141 32.9203ZM34.1993 31.0095C32.4933 32.8369 32.4933 32.8369 32.4934 32.837C32.4934 32.837 32.4935 32.8371 32.4936 32.8372C32.4942 32.8378 32.4936 32.8372 32.4944 32.838C32.4946 32.8382 32.4948 32.8384 32.4951 32.8386C32.4953 32.8388 32.4956 32.839 32.4958 32.8393C32.4961 32.8396 32.4964 32.8398 32.4967 32.8401C32.4971 32.8405 32.4974 32.8408 32.4978 32.8411C32.499 32.8423 32.507 32.8497 32.5111 32.8536C32.5213 32.8631 32.5419 32.8823 32.5631 32.902C32.6086 32.9446 32.6752 33.0067 32.7602 33.0861C32.9302 33.2448 33.1725 33.471 33.4639 33.7431C34.0464 34.2869 34.8229 35.0117 35.5998 35.737C37.1534 37.1874 38.7078 38.6385 38.7108 38.6413L42.1229 34.9865C42.1198 34.9836 40.5654 33.5325 39.0118 32.0821C38.2351 31.357 37.4583 30.6318 36.876 30.0882C36.5846 29.8162 36.3422 29.5899 36.1722 29.4312C36.0873 29.3519 36.0206 29.2897 35.9751 29.2472C35.9538 29.2273 35.9334 29.2083 35.9231 29.1987C35.9188 29.1946 35.9113 29.1876 35.9098 29.1863C35.9094 29.1858 35.9081 29.1847 35.9079 29.1844C35.9076 29.1842 35.9073 29.1839 35.9071 29.1837C35.9068 29.1835 35.9066 29.1833 35.9065 29.1831C35.9055 29.1822 35.9064 29.1831 35.9056 29.1823C35.9055 29.1822 35.9054 29.1822 35.9054 29.1821C35.9053 29.1821 35.9053 29.1821 34.1993 31.0095ZM38.7098 38.6404C37.8918 37.8759 37.8944 36.5812 38.7102 35.8191L42.1232 39.4731C43.4201 38.2617 43.4238 36.2023 42.1239 34.9874L38.7098 38.6404ZM46.875 32.8077H45.1188V37.8077H46.875V32.8077ZM47.5468 34.712L45.1734 25.0379L40.3174 26.2293L42.6908 35.9034L47.5468 34.712ZM45.178 25.0568L45.1776 25.0552L40.3124 26.2086L40.3128 26.2103L45.178 25.0568ZM45.173 25.0362L44.7861 23.4593L39.9301 24.6506L40.317 26.2276L45.173 25.0362ZM42.9546 26.4828L47.4715 25.3729L46.2785 20.5174L41.7616 21.6272L42.9546 26.4828ZM44.375 22.9452V35.3077H49.375V22.9452H44.375ZM43.3647 33.3405L40.3862 30.5599L36.9742 34.2148L39.9527 36.9954L43.3647 33.3405ZM40.3862 30.5599L37.4077 27.7794L33.9957 31.4343L36.9742 34.2148L40.3862 30.5599Z" fill="#EC601D" mask="url(#path-2-inside-1_8230_1128)"/>
</svg>
