<svg width="1899" height="177" viewBox="0 0 1899 177" fill="none" xmlns="http://www.w3.org/2000/svg">
<g opacity="0.2">
<path fill-rule="evenodd" clip-rule="evenodd" d="M1809.34 62.7805L1809.36 62.8824C1809.43 63.3165 1809.5 63.7595 1809.58 64.0496C1810.71 68.0033 1810.47 72.6524 1810.07 76.7035C1809.09 86.3961 1808.64 96.1395 1808.37 105.879C1808.3 108.607 1808.56 111.343 1808.66 114.067C1808.69 114.873 1808.73 115.675 1808.77 116.479C1808.8 116.829 1808.66 117.564 1808.66 117.945C1808.66 118.22 1808.73 118.422 1808.79 118.537C1808.96 118.825 1809.2 118.947 1809.46 118.967C1809.63 118.982 1809.9 118.964 1810.19 118.67C1813.24 115.562 1815.8 110.049 1818.04 103.836C1821.32 94.7108 1823.92 84.0748 1826.45 77.6626C1827.11 75.977 1827.88 72.3091 1828.91 69.2591C1829.36 67.9058 1829.85 66.6721 1830.42 65.8636C1830.39 66.6632 1830.27 67.6555 1830.29 68.2226C1830.39 70.6723 1830.1 73.1286 1830.06 75.5761C1829.91 83.0204 1834.02 105.569 1835.91 112.827C1837.44 118.699 1849.29 151.276 1862.59 166.435C1862.87 166.76 1863.37 166.794 1863.69 166.508C1864.02 166.222 1864.05 165.726 1863.77 165.403C1850.63 150.425 1838.93 118.233 1837.42 112.433C1835.56 105.254 1831.48 82.9651 1831.62 75.6093C1831.67 73.1286 1831.95 70.6412 1831.85 68.1605C1831.82 67.2656 1832.08 65.3919 1831.91 64.6033C1831.81 64.1581 1831.57 63.8923 1831.34 63.7661C1831.05 63.6133 1830.65 63.5446 1830.16 63.9034C1829.34 64.4926 1828.6 65.7175 1827.98 67.2613C1826.67 70.4773 1825.77 75.1287 1824.99 77.0889C1822.46 83.5099 1819.85 94.1638 1816.56 103.307C1814.73 108.401 1812.7 113.024 1810.32 116.12C1810.28 115.416 1810.25 114.714 1810.22 114.007C1810.12 111.316 1809.86 108.618 1809.94 105.923C1810.21 96.2215 1810.65 86.5134 1811.63 76.8608C1812.05 72.6214 1812.26 67.7574 1811.09 63.6221C1810.93 63.0396 1810.8 61.8324 1810.54 61.3451C1810.37 61.0328 1810.13 60.8624 1809.9 60.7937C1809.62 60.7051 1809.28 60.7117 1808.92 61.0218C1807.43 62.2865 1805.52 65.0264 1803.51 68.4373C1798.95 76.1874 1793.76 87.4326 1791.44 91.9444C1789.89 94.9744 1788.45 98.0842 1786.8 101.063C1786.72 101.212 1784.92 103.907 1784.06 105.19C1783.65 104.352 1783.26 103.07 1782.85 101.575C1781.43 96.3189 1780.2 88.4758 1779.8 86.1014C1779.03 81.5475 1778.37 76.9848 1777.49 72.4487C1776.1 65.29 1774.47 58.1867 1773.16 51.0126C1773.09 50.5873 1772.68 50.306 1772.25 50.3835C1771.83 50.461 1771.54 50.8708 1771.62 51.2938C1772.93 58.4746 1774.56 65.5846 1775.95 72.7499C1776.83 77.2705 1777.48 81.8221 1778.26 86.365C1778.66 88.7615 1779.91 96.6777 1781.34 101.982C1782 104.414 1782.74 106.315 1783.42 107.041C1783.61 107.241 1784.11 107.529 1784.67 107.017C1785.39 106.361 1788.05 102.033 1788.17 101.823C1789.83 98.8284 1791.27 95.7032 1792.84 92.6599C1795.14 88.1636 1800.31 76.956 1804.86 69.2347C1806.5 66.455 1808.04 64.1294 1809.34 62.7805Z" fill="white"/>
</g>
<g opacity="0.1" clip-path="url(#clip0_8497_3948)">
<path fill-rule="evenodd" clip-rule="evenodd" d="M69.7613 13.4049C76.6984 13.7587 82.2123 17.2504 87.7263 21.1711C105.81 34.0462 111.858 54.0228 99.4663 73.6533C80.1969 104.095 35.3135 124.019 0.50988 114.824C-7.19791 112.798 -17.6331 111.012 -25.2816 101.116C-32.3965 91.9143 -32.1 80.9757 -28.839 70.8487C-25.5188 60.4654 -19.1154 50.9091 -14.0163 44.7662C8.27697 17.965 52.9229 -6.39358 93.2999 6.44809C94.1299 6.69552 94.9601 6.27001 95.1973 5.49775C95.4345 4.72549 95.0191 3.89739 94.2483 3.64996C52.6855 -9.56609 6.6166 15.3156 -16.3289 42.8979C-22.673 50.5576 -30.9733 63.3441 -33.3449 76.5736C-34.9457 85.6157 -33.8195 94.8588 -27.6532 102.899C-19.5304 113.441 -8.4429 115.505 -0.26078 117.663C35.6694 127.16 82.0937 106.654 101.956 75.2137C115.297 54.1145 108.893 32.6228 89.446 18.7837C83.5169 14.5298 77.469 10.8536 69.9391 10.4704C69.109 10.4287 68.3978 11.0523 68.3978 11.8622C68.3385 12.672 68.9906 13.3632 69.7613 13.4049Z" fill="white"/>
</g>
<defs>
<clipPath id="clip0_8497_3948">
<rect width="109" height="120" fill="white"/>
</clipPath>
</defs>
</svg>
