<svg width="82" height="117" viewBox="0 0 82 117" fill="none" xmlns="http://www.w3.org/2000/svg">
<g opacity="0.2">
<path d="M-23.4262 108.001L37.1955 61.7757C37.262 61.7114 37.3027 61.6251 37.3101 61.5329C37.3174 61.4407 37.2909 61.349 37.2355 61.275C37.1801 61.2009 37.0996 61.1496 37.0091 61.1306C36.9186 61.1117 36.8243 61.1264 36.7439 61.172L-19.4758 104.044L47.7025 36.6191C47.7379 36.5838 47.766 36.5418 47.7852 36.4957C47.8044 36.4495 47.8143 36.4 47.8144 36.35C47.8144 36.3 47.8046 36.2505 47.7855 36.2042C47.7664 36.158 47.7385 36.116 47.7031 36.0806C47.6678 36.0452 47.6259 36.0171 47.5797 35.9979C47.5335 35.9787 47.484 35.9688 47.434 35.9687C47.384 35.9687 47.3345 35.9785 47.2883 35.9976C47.242 36.0166 47.2 36.0446 47.1646 36.0799L-19.9944 103.499L57.8346 0.713248C57.8896 0.652814 57.9223 0.575466 57.9275 0.493951C57.9327 0.412435 57.9101 0.331581 57.8632 0.264655C57.8164 0.197728 57.7482 0.148721 57.6698 0.125677C57.5915 0.102633 57.5076 0.106926 57.432 0.137847C57.2388 0.189611 61.4875 -5.35909 -23.9447 107.457C-24.1838 107.955 -23.7042 108.2 -23.4262 108.001Z" fill="#171416"/>
</g>
</svg>
